{"glyphs":{"0":{"ha":1221,"x_min":74,"x_max":1147,"o":"m 74 481 q 84 612 74 548 q 119 732 95 675 q 184 835 144 788 q 284 916 224 882 q 425 968 344 949 q 611 987 505 987 q 797 968 716 987 q 937 916 878 949 q 1037 835 997 882 q 1101 732 1077 788 q 1136 612 1126 675 q 1147 481 1147 548 q 1136 350 1147 414 q 1101 229 1126 286 q 1037 126 1077 173 q 937 45 997 79 q 797 -7 878 12 q 611 -26 716 -26 q 425 -7 506 -26 q 284 45 344 12 q 184 126 224 79 q 119 229 144 173 q 84 349 95 286 q 74 481 74 413 m 611 21 q 668 42 646 21 q 701 116 689 63 q 716 257 712 168 q 720 481 720 345 q 716 704 720 616 q 701 845 712 793 q 668 919 689 898 q 611 940 646 940 q 554 919 575 940 q 521 845 532 898 q 506 704 509 793 q 502 481 502 616 q 506 257 502 345 q 521 116 509 168 q 554 42 532 63 q 611 21 575 21 z "},"1":{"ha":795,"x_min":62,"x_max":734,"o":"m 62 54 l 181 54 l 181 844 l 62 844 l 62 897 q 218 916 149 897 q 331 961 288 935 l 616 961 l 616 54 l 734 54 l 734 0 l 62 0 l 62 54 z "},"2":{"ha":1115,"x_min":67,"x_max":1035,"o":"m 87 67 q 199 168 141 113 q 314 283 258 222 q 421 407 370 343 q 511 534 473 471 q 573 659 550 597 q 595 776 595 720 q 583 855 595 823 q 548 905 570 886 q 499 931 527 924 q 440 939 471 939 q 366 932 403 939 q 422 908 397 923 q 466 872 448 892 q 494 828 484 852 q 505 779 505 804 q 487 714 505 744 q 440 661 470 684 q 371 625 411 638 q 286 612 331 612 q 200 625 240 612 q 131 661 161 638 q 84 714 102 684 q 67 779 67 744 q 101 868 67 829 q 197 933 135 907 q 346 973 259 960 q 538 987 433 987 q 657 980 599 987 q 768 958 715 972 q 864 920 820 943 q 941 864 909 897 q 991 789 973 831 q 1010 695 1010 747 q 989 594 1010 640 q 932 513 969 549 q 843 450 895 477 q 729 401 791 422 q 596 364 667 380 q 449 338 525 349 q 446 331 448 336 q 444 320 445 326 q 440 305 441 313 l 943 305 q 959 329 951 315 q 973 355 966 342 q 985 382 980 369 q 994 406 991 395 l 1035 404 l 985 0 l 87 0 l 87 67 z "},"3":{"ha":1108,"x_min":61,"x_max":1038,"o":"m 61 183 q 78 248 61 218 q 125 300 96 278 q 195 336 155 323 q 280 349 235 349 q 365 336 326 349 q 434 300 405 323 q 481 248 464 278 q 498 183 498 218 q 489 134 498 157 q 462 92 479 111 q 421 56 445 72 q 369 31 397 41 q 412 25 391 27 q 452 23 433 23 q 521 33 490 23 q 573 65 551 42 q 607 128 595 89 q 618 228 618 168 q 602 320 618 280 q 553 388 585 360 q 479 431 522 416 q 382 450 435 447 l 382 524 q 475 546 432 528 q 551 595 519 565 q 602 667 583 626 q 620 759 620 709 q 607 842 620 808 q 572 897 595 876 q 520 927 550 918 q 456 937 490 937 q 400 934 429 937 q 336 922 371 932 q 406 901 374 916 q 461 864 438 886 q 498 816 485 843 q 511 759 511 789 q 494 694 511 724 q 447 642 477 664 q 378 606 418 619 q 293 593 338 593 q 208 606 248 593 q 138 642 168 619 q 91 694 109 664 q 74 759 74 724 q 106 851 74 810 q 198 923 138 893 q 342 970 258 954 q 532 987 427 987 q 647 980 589 987 q 757 961 704 974 q 856 927 810 947 q 936 877 902 906 q 989 811 970 848 q 1008 728 1008 774 q 890 559 1008 616 q 525 500 772 503 q 735 485 641 498 q 898 443 830 472 q 1002 367 965 414 q 1038 252 1038 320 q 1005 128 1038 180 q 909 41 972 75 q 758 -9 847 7 q 555 -26 668 -26 q 353 -13 444 -26 q 197 27 262 1 q 97 92 132 53 q 61 183 61 131 z "},"4":{"ha":1044,"x_min":2,"x_max":977,"o":"m 2 304 l 505 972 l 833 972 l 833 304 l 977 304 l 977 244 l 833 244 l 833 54 l 951 54 l 951 0 l 279 0 l 279 54 l 397 54 l 397 244 l 2 244 l 2 304 m 397 304 l 397 686 l 112 304 l 397 304 z "},"5":{"ha":1124,"x_min":60,"x_max":1037,"o":"m 60 183 q 78 246 60 218 q 124 294 95 274 q 194 325 154 314 q 279 336 233 336 q 364 325 324 336 q 434 294 404 314 q 480 246 463 274 q 497 183 497 218 q 486 131 497 155 q 455 85 475 106 q 408 49 435 64 q 347 25 380 33 q 396 20 372 22 q 441 18 420 18 q 511 31 478 18 q 569 69 545 43 q 608 133 593 94 q 622 226 622 172 q 605 323 622 283 q 557 389 588 363 q 485 425 527 414 q 391 436 442 436 q 283 425 336 436 q 184 394 229 413 l 151 433 l 220 961 q 322 954 271 959 q 427 943 374 949 q 562 930 494 936 q 694 924 629 924 q 829 933 764 924 q 951 968 893 943 l 991 968 q 994 938 993 954 q 997 905 996 922 q 998 874 998 889 q 998 849 998 859 q 974 733 998 779 q 908 661 949 688 q 811 625 866 635 q 694 614 755 614 q 551 624 624 614 q 412 642 478 633 q 319 655 361 650 q 245 661 276 661 l 221 465 q 412 523 313 500 q 624 545 510 545 q 789 529 713 545 q 920 480 865 513 q 1006 396 975 448 q 1037 272 1037 344 q 1001 130 1037 187 q 897 39 964 73 q 731 -11 829 4 q 512 -26 634 -26 q 329 -16 412 -26 q 186 17 246 -7 q 94 81 127 41 q 60 183 60 121 z "},"6":{"ha":1145,"x_min":74,"x_max":1074,"o":"m 74 454 q 84 594 74 526 q 117 721 94 662 q 180 829 140 781 q 278 913 219 878 q 418 967 337 948 q 607 987 500 987 q 787 973 709 987 q 918 934 865 959 q 998 874 970 909 q 1025 797 1025 839 q 1010 738 1025 764 q 970 694 996 712 q 909 667 945 676 q 829 658 873 658 q 749 667 786 658 q 685 694 712 676 q 643 738 658 712 q 627 797 627 764 q 666 883 627 851 q 774 926 704 916 q 736 931 757 929 q 699 932 716 932 q 598 915 636 932 q 539 854 560 897 q 511 741 518 812 q 503 564 504 670 q 556 584 527 574 q 616 601 585 593 q 681 613 648 609 q 747 618 714 618 q 881 596 821 618 q 984 537 941 575 q 1050 446 1027 499 q 1074 330 1074 393 q 1064 245 1074 288 q 1033 163 1055 203 q 977 90 1012 124 q 890 30 941 55 q 770 -11 839 4 q 611 -26 701 -26 q 429 -10 509 -26 q 290 35 349 5 q 189 106 230 64 q 122 201 148 148 q 85 318 96 254 q 74 454 74 382 m 597 27 q 637 36 617 27 q 672 69 656 45 q 696 135 687 93 q 706 243 706 176 q 699 355 706 307 q 675 434 692 402 q 633 481 659 465 q 568 496 606 496 q 502 488 537 496 l 502 474 q 504 281 502 364 q 515 141 506 197 q 544 56 525 85 q 597 27 564 27 z "},"7":{"ha":1042,"x_min":71,"x_max":1001,"o":"m 274 161 q 293 252 274 209 q 344 334 311 295 q 419 410 376 374 q 512 480 463 446 q 613 544 561 513 q 714 604 665 575 q 825 674 776 640 q 901 741 874 708 l 901 783 q 813 706 861 736 q 712 661 765 677 q 603 638 659 644 q 489 633 547 633 q 415 634 452 633 q 341 638 378 635 q 270 642 304 641 q 203 644 236 644 q 173 635 185 644 q 153 614 161 627 q 142 585 145 601 q 138 554 138 569 l 71 554 l 90 977 l 144 977 l 144 922 q 181 943 159 932 q 232 962 203 954 q 293 976 260 970 q 362 982 326 982 q 459 974 409 982 q 559 956 509 966 q 655 939 608 946 q 749 932 703 932 q 847 943 800 932 q 938 987 895 955 l 1001 987 l 1001 808 q 981 764 1001 798 q 930 680 962 730 q 879 600 906 644 q 824 511 852 557 q 770 418 796 465 q 723 327 744 371 q 687 242 701 282 q 668 171 672 202 q 644 81 661 118 q 603 20 628 43 q 545 -15 578 -4 q 471 -26 511 -26 q 396 -13 431 -26 q 333 25 360 1 q 290 84 306 50 q 274 161 274 119 z "},"8":{"ha":1135,"x_min":71,"x_max":1074,"o":"m 71 216 q 88 284 71 254 q 134 338 104 315 q 203 380 163 362 q 291 410 243 397 q 160 545 199 474 q 121 690 121 616 q 153 817 121 762 q 242 909 184 871 q 386 967 301 947 q 578 987 471 987 q 745 974 668 987 q 878 935 822 961 q 966 871 934 909 q 998 780 998 832 q 948 665 998 712 q 795 595 898 618 q 902 541 851 571 q 990 471 952 511 q 1052 381 1029 431 q 1074 266 1074 331 q 1036 134 1074 189 q 927 43 998 79 q 755 -9 857 7 q 526 -26 653 -26 q 418 -20 473 -26 q 314 -3 364 -15 q 219 28 263 9 q 142 74 175 47 q 90 136 109 100 q 71 216 71 171 m 692 639 q 746 711 729 669 q 762 797 762 752 q 752 857 762 830 q 723 901 742 883 q 678 928 705 919 q 620 938 652 938 q 562 929 587 938 q 519 905 536 920 q 494 868 503 889 q 486 824 486 848 q 502 768 486 793 q 547 720 519 742 q 613 677 576 697 q 692 639 651 657 m 331 197 q 347 117 331 151 q 389 61 363 83 q 448 29 415 39 q 515 19 481 19 q 573 30 549 19 q 613 57 597 40 q 637 94 629 73 q 644 133 644 114 q 626 187 644 161 q 574 239 607 213 q 495 291 541 264 q 396 347 450 317 q 348 277 364 316 q 331 197 331 239 z "},"9":{"ha":1145,"x_min":72,"x_max":1072,"o":"m 121 164 q 135 223 121 197 q 175 267 149 249 q 237 294 201 284 q 316 303 273 303 q 396 294 359 303 q 460 267 433 284 q 503 223 488 249 q 518 164 518 197 q 480 78 518 110 q 372 35 441 45 q 409 30 389 32 q 447 28 429 28 q 547 46 509 28 q 606 106 585 64 q 634 220 627 149 q 643 397 642 291 q 590 377 618 387 q 529 360 561 368 q 464 348 497 352 q 399 343 431 343 q 264 365 324 343 q 161 424 203 386 q 95 515 118 462 q 72 631 72 568 q 81 715 72 673 q 112 798 91 758 q 169 871 134 837 q 255 931 204 906 q 376 972 307 957 q 534 987 445 987 q 791 952 688 987 q 957 855 895 918 q 1045 704 1019 792 q 1072 507 1072 615 q 1062 367 1072 435 q 1028 240 1052 299 q 966 132 1005 180 q 867 48 926 83 q 727 -6 808 13 q 538 -26 646 -26 q 359 -12 437 -26 q 228 27 281 2 q 148 87 175 52 q 121 164 121 122 m 578 465 q 644 473 608 465 l 644 487 q 642 680 644 597 q 630 820 640 764 q 601 905 621 876 q 548 934 582 934 q 509 925 528 934 q 474 892 489 916 q 449 826 458 868 q 439 718 439 784 q 447 606 439 654 q 470 527 454 559 q 513 480 486 496 q 578 465 539 465 z "}," ":{"ha":513,"x_min":0,"x_max":0,"o":""},"!":{"ha":618,"x_min":92,"x_max":526,"o":"m 310 382 q 278 431 296 406 q 241 484 261 456 q 188 561 215 521 q 140 642 161 600 q 105 726 119 684 q 92 810 92 768 q 110 890 92 857 q 157 945 127 924 q 226 977 186 966 q 310 987 265 987 q 393 977 353 987 q 462 945 432 966 q 509 890 492 924 q 526 810 526 857 q 513 725 526 768 q 478 641 499 683 q 430 560 456 600 q 377 483 404 520 q 341 431 358 456 q 310 382 323 406 m 134 157 q 148 228 134 195 q 187 287 162 262 q 245 326 212 311 q 317 340 279 340 q 387 326 354 340 q 446 287 420 311 q 485 228 471 262 q 499 157 499 195 q 485 86 499 119 q 446 28 471 53 q 387 -12 420 3 q 317 -26 354 -26 q 245 -12 279 -26 q 187 28 212 3 q 148 86 162 53 q 134 157 134 119 z "},"\"":{"ha":651,"x_min":75,"x_max":576,"o":"m 440 654 q 424 736 435 692 q 401 827 414 781 q 384 896 392 862 q 368 963 375 930 q 357 1024 361 995 q 353 1079 353 1054 q 362 1121 353 1102 q 388 1154 372 1140 q 424 1175 404 1167 q 465 1182 444 1182 q 506 1175 486 1182 q 541 1154 526 1167 q 567 1121 557 1140 q 576 1079 576 1102 q 572 1024 576 1054 q 561 962 568 995 q 545 896 554 930 q 527 827 536 861 q 505 736 515 780 q 489 654 494 692 l 440 654 m 162 654 q 146 736 157 692 q 123 827 136 781 q 105 896 114 862 q 90 963 97 930 q 79 1024 83 995 q 75 1079 75 1054 q 84 1121 75 1102 q 110 1154 94 1140 q 145 1175 125 1167 q 186 1182 165 1182 q 228 1175 208 1182 q 263 1154 248 1167 q 289 1121 279 1140 q 298 1079 298 1102 q 294 1024 298 1054 q 283 962 290 995 q 267 896 276 930 q 249 827 258 861 q 227 736 237 780 q 211 654 216 692 l 162 654 z "},"#":{"ha":1004,"x_min":83,"x_max":920,"o":"m 259 286 l 83 286 l 83 370 l 281 370 l 338 584 l 83 584 l 83 668 l 361 668 l 439 961 l 518 961 l 440 668 l 693 668 l 771 961 l 850 961 l 772 668 l 920 668 l 920 584 l 750 584 l 693 370 l 920 370 l 920 286 l 671 286 l 595 0 l 515 0 l 591 286 l 338 286 l 262 0 l 183 0 l 259 286 m 614 370 l 671 584 l 418 584 l 361 370 l 614 370 z "},"$":{"ha":1200,"x_min":122,"x_max":1116,"o":"m 125 369 l 170 369 q 222 283 191 329 q 297 194 253 237 q 399 113 341 150 q 530 54 456 76 l 530 262 l 513 267 q 341 332 414 296 q 219 414 267 369 q 146 515 170 460 q 122 637 122 570 q 154 781 122 718 q 241 888 186 844 q 370 957 296 932 q 530 986 444 982 l 530 1101 l 600 1101 l 600 985 q 639 981 619 983 q 679 975 659 979 l 679 1101 l 749 1101 l 749 958 q 843 923 798 943 q 920 878 887 903 l 1022 977 l 1069 977 l 1069 682 l 1026 682 q 915 813 985 755 q 749 904 844 871 l 749 707 q 894 657 827 685 q 1010 586 961 629 q 1088 484 1060 544 q 1116 336 1116 423 q 1093 206 1116 268 q 1023 96 1069 144 q 908 17 977 48 q 749 -23 839 -15 l 749 -129 l 679 -129 l 679 -26 q 600 -20 637 -25 l 600 -129 l 530 -129 l 530 -5 q 410 41 468 11 q 291 117 353 72 l 176 -13 l 125 -13 l 125 369 m 530 935 q 490 931 511 934 q 451 922 469 929 q 420 903 433 916 q 408 871 408 891 q 530 774 408 822 l 530 935 m 600 749 q 637 738 617 744 q 679 726 657 732 l 679 922 q 640 929 659 926 q 600 933 620 932 l 600 749 m 600 37 q 638 32 618 34 q 679 28 658 30 l 679 222 l 600 244 l 600 37 m 749 30 q 790 36 769 32 q 827 49 810 41 q 854 70 844 57 q 865 102 865 83 q 836 155 865 132 q 749 199 808 177 l 749 30 z "},"%":{"ha":1262,"x_min":85,"x_max":1177,"o":"m 352 487 q 227 510 277 487 q 144 569 176 532 q 99 649 113 605 q 85 737 85 694 q 99 825 85 781 q 144 905 113 869 q 227 964 176 941 q 352 987 277 987 q 478 964 427 987 q 561 905 529 941 q 606 825 592 869 q 620 737 620 781 q 606 649 620 694 q 561 569 592 605 q 478 510 529 532 q 352 487 427 487 m 1055 957 l 1107 903 l 219 16 l 165 68 l 1055 957 m 352 534 q 397 551 381 534 q 419 596 412 568 q 428 661 427 625 q 429 737 429 698 q 428 812 429 776 q 419 878 427 849 q 397 923 412 906 q 352 940 381 940 q 308 923 323 940 q 285 877 292 905 q 277 812 278 848 q 275 737 275 776 q 277 661 275 698 q 285 596 278 625 q 308 551 292 568 q 352 534 323 534 m 643 224 q 656 312 643 268 q 702 393 670 357 q 784 451 733 429 q 909 474 835 474 q 1035 451 984 474 q 1118 393 1086 429 q 1163 312 1149 357 q 1177 224 1177 268 q 1163 137 1177 181 q 1118 56 1149 92 q 1035 -3 1086 20 q 909 -26 984 -26 q 784 -3 835 -26 q 702 56 733 20 q 656 137 670 92 q 643 224 643 181 m 833 224 q 834 149 833 185 q 843 83 836 112 q 865 38 850 55 q 909 21 881 21 q 954 38 939 21 q 977 83 970 55 q 985 149 984 112 q 987 224 987 185 q 985 300 987 263 q 977 365 984 336 q 954 410 970 393 q 909 427 939 427 q 865 410 881 427 q 843 364 850 393 q 834 299 836 336 q 833 224 833 263 z "},"&":{"ha":1265,"x_min":52,"x_max":1240,"o":"m 52 201 q 72 295 52 253 q 127 370 92 336 q 212 430 163 404 q 321 476 262 456 q 277 535 296 507 q 245 593 258 564 q 225 650 232 621 q 218 711 218 680 q 240 814 218 764 q 306 902 262 864 q 412 964 349 941 q 558 987 475 987 q 632 984 594 987 q 706 974 670 981 q 773 952 742 966 q 829 916 805 938 q 867 862 853 893 q 881 787 881 830 q 869 715 881 748 q 836 655 857 682 q 785 606 814 628 q 720 566 755 583 q 813 456 766 508 q 905 360 860 404 l 977 471 q 979 482 979 476 q 970 497 979 491 q 944 506 961 503 q 905 512 928 510 q 856 513 882 513 l 856 562 l 1178 562 l 1178 513 q 1127 511 1147 513 q 1092 502 1106 508 q 1069 489 1078 496 q 1053 471 1060 481 q 1001 394 1027 432 q 950 317 976 356 q 993 280 973 296 q 1031 253 1013 264 q 1069 235 1050 241 q 1108 229 1088 229 q 1168 252 1145 229 q 1191 321 1191 275 l 1234 321 q 1240 233 1240 273 q 1220 114 1240 163 q 1162 34 1200 65 q 1069 -12 1124 3 q 944 -26 1014 -26 q 831 -10 883 -26 q 728 41 779 6 q 675 14 704 26 q 609 -7 646 1 q 527 -21 572 -16 q 427 -26 482 -26 q 271 -12 340 -26 q 153 30 202 2 q 78 100 104 58 q 52 201 52 143 m 692 600 q 734 647 715 621 q 766 701 753 673 q 785 758 779 728 q 792 815 792 787 q 786 857 792 838 q 767 892 779 877 q 737 915 755 907 q 697 924 720 924 q 663 915 679 924 q 635 891 647 906 q 615 854 623 876 q 608 809 608 833 q 631 697 608 750 q 692 600 654 645 m 323 359 q 336 297 323 330 q 369 231 349 264 q 417 166 390 197 q 473 112 444 136 q 531 75 502 89 q 587 60 561 60 q 634 65 612 60 q 676 80 656 71 q 610 142 644 107 q 537 220 576 176 q 454 315 498 263 q 359 429 410 368 q 333 398 342 415 q 323 359 323 380 z "},"'":{"ha":373,"x_min":75,"x_max":298,"o":"m 157 692 q 123 827 136 781 q 105 896 114 862 q 90 963 97 930 q 79 1024 83 995 q 75 1079 75 1054 q 84 1121 75 1102 q 110 1154 94 1140 q 145 1175 125 1167 q 186 1182 165 1182 q 228 1175 208 1182 q 263 1154 248 1167 q 289 1121 279 1140 q 298 1079 298 1102 q 294 1024 298 1054 q 283 962 290 995 q 267 896 276 930 q 249 827 258 861 q 227 736 237 780 q 211 654 216 692 l 162 654 l 157 692 z "},"(":{"ha":665,"x_min":160,"x_max":568,"o":"m 160 481 q 189 768 160 646 q 270 970 217 890 q 398 1089 323 1050 q 568 1128 474 1128 l 568 1082 q 527 1074 545 1082 q 498 1044 510 1066 q 478 980 486 1021 q 467 872 471 939 q 461 710 463 806 q 459 481 459 614 q 461 252 459 348 q 467 89 463 155 q 478 -19 471 22 q 498 -83 486 -60 q 527 -113 510 -105 q 568 -121 545 -121 l 568 -168 q 398 -128 474 -168 q 270 -8 323 -89 q 189 194 217 72 q 160 481 160 315 z "},")":{"ha":665,"x_min":96,"x_max":505,"o":"m 96 -120 q 137 -113 120 -121 q 166 -83 155 -105 q 186 -19 178 -60 q 198 89 194 22 q 204 252 202 155 q 205 481 205 348 q 204 710 205 614 q 198 872 202 806 q 186 980 194 939 q 166 1044 178 1021 q 137 1074 155 1066 q 96 1082 120 1082 l 96 1128 q 266 1089 191 1128 q 395 970 342 1050 q 476 768 448 890 q 505 481 505 646 q 476 194 505 315 q 395 -8 448 72 q 266 -128 342 -89 q 96 -168 191 -168 l 96 -120 z "},"*":{"ha":708,"x_min":95,"x_max":613,"o":"m 354 500 q 302 520 321 500 q 282 567 282 540 q 292 626 282 594 q 316 692 302 658 q 328 725 323 709 q 338 760 334 742 q 314 734 326 747 q 292 707 302 722 q 268 675 281 692 q 237 642 254 658 q 203 616 221 627 q 167 606 185 606 q 138 612 151 606 q 116 630 125 619 q 100 654 106 641 q 95 682 95 668 q 113 726 95 709 q 155 752 130 743 q 208 766 180 762 q 254 772 235 770 q 288 778 271 774 q 322 787 305 781 q 254 802 290 796 q 204 809 232 804 q 152 823 176 814 q 112 849 128 833 q 95 892 95 865 q 101 920 95 907 q 117 944 106 934 q 140 961 127 955 q 167 968 153 968 q 201 957 183 968 q 236 929 219 945 q 268 896 253 913 q 292 867 282 879 q 314 839 303 852 q 338 814 326 826 q 328 847 333 831 q 316 881 323 864 q 292 947 302 916 q 282 1006 282 979 q 302 1054 282 1034 q 354 1074 321 1074 q 406 1054 387 1074 q 426 1006 426 1034 q 415 947 426 979 q 391 880 404 915 q 370 813 378 848 q 394 838 382 825 q 417 865 406 851 q 445 902 431 884 q 474 935 458 920 q 506 959 489 949 q 541 968 523 968 q 569 961 556 968 q 592 943 583 954 q 608 919 602 932 q 613 891 613 905 q 595 849 613 865 q 552 823 577 833 q 500 808 527 813 q 454 801 473 804 q 419 795 437 798 q 385 786 402 791 q 420 778 403 781 q 454 772 437 775 q 503 764 475 769 q 555 749 530 759 q 596 723 579 739 q 613 682 613 707 q 607 653 613 667 q 591 629 602 640 q 568 612 581 618 q 541 606 555 606 q 504 617 522 606 q 469 644 485 628 q 439 678 452 661 q 417 708 426 696 q 395 735 407 722 q 370 760 382 748 q 391 693 378 724 q 415 627 404 659 q 426 567 426 595 q 406 520 426 540 q 354 500 387 500 z "},"+":{"ha":726,"x_min":60,"x_max":667,"o":"m 321 401 l 60 401 l 60 485 l 321 485 l 321 746 l 405 746 l 405 485 l 667 485 l 667 401 l 405 401 l 405 139 l 321 139 l 321 401 z "},",":{"ha":555,"x_min":93,"x_max":463,"o":"m 93 173 q 107 238 93 208 q 145 291 121 269 q 201 327 169 314 q 269 340 233 340 q 347 326 311 340 q 408 287 382 313 q 448 222 434 260 q 463 133 463 183 q 437 -10 463 53 q 369 -120 411 -73 q 272 -197 326 -166 q 159 -243 217 -228 l 139 -216 q 227 -167 191 -197 q 284 -107 262 -138 q 314 -51 305 -77 q 323 -9 323 -24 q 306 16 323 8 q 262 27 288 23 q 207 37 236 31 q 152 58 177 43 q 110 100 126 73 q 93 173 93 127 z "},"-":{"ha":729,"x_min":61,"x_max":668,"o":"m 61 485 l 668 485 l 668 401 l 61 401 l 61 485 z "},".":{"ha":551,"x_min":93,"x_max":458,"o":"m 93 157 q 107 228 93 195 q 146 287 121 262 q 205 326 172 311 q 276 340 238 340 q 347 326 313 340 q 405 287 380 311 q 444 228 430 262 q 458 157 458 195 q 444 86 458 119 q 405 28 430 53 q 347 -12 380 3 q 276 -26 313 -26 q 205 -12 238 -26 q 146 28 172 3 q 107 86 121 53 q 93 157 93 119 z "},"/":{"ha":641,"x_min":-36,"x_max":675,"o":"m 608 1041 l 675 1007 l 33 -328 l -36 -294 l 608 1041 z "},":":{"ha":551,"x_min":93,"x_max":458,"o":"m 276 415 q 205 429 238 415 q 146 469 172 444 q 107 527 121 494 q 93 597 93 559 q 107 669 93 635 q 146 727 121 703 q 205 766 172 752 q 276 781 238 781 q 347 766 313 781 q 405 727 380 752 q 444 669 430 703 q 458 597 458 635 q 444 527 458 559 q 405 469 430 494 q 347 429 380 444 q 276 415 313 415 m 93 157 q 107 228 93 195 q 146 287 121 262 q 205 326 172 311 q 276 340 238 340 q 347 326 313 340 q 405 287 380 311 q 444 228 430 262 q 458 157 458 195 q 444 86 458 119 q 405 28 430 53 q 347 -12 380 3 q 276 -26 313 -26 q 205 -12 238 -26 q 146 28 172 3 q 107 86 121 53 q 93 157 93 119 z "},";":{"ha":555,"x_min":93,"x_max":463,"o":"m 277 415 q 206 429 239 415 q 148 469 173 444 q 109 527 123 494 q 94 597 94 559 q 109 669 94 635 q 148 727 123 703 q 206 766 173 752 q 277 781 239 781 q 348 766 315 781 q 406 727 381 752 q 446 669 431 703 q 460 597 460 635 q 446 527 460 559 q 406 469 431 494 q 348 429 381 444 q 277 415 315 415 m 93 173 q 107 238 93 208 q 145 291 121 269 q 201 327 169 314 q 269 340 233 340 q 347 326 311 340 q 408 287 382 313 q 448 222 434 260 q 463 133 463 183 q 437 -10 463 53 q 369 -120 411 -73 q 272 -197 326 -166 q 159 -243 217 -228 l 139 -216 q 227 -167 191 -197 q 284 -107 262 -138 q 314 -51 305 -77 q 323 -9 323 -24 q 306 16 323 8 q 262 27 288 23 q 207 37 236 31 q 152 58 177 43 q 110 100 126 73 q 93 173 93 127 z "},"<":{"ha":554,"x_min":65,"x_max":466,"o":"m 65 413 l 406 741 l 466 681 l 186 413 l 466 145 l 406 85 l 65 413 z "},"=":{"ha":731,"x_min":62,"x_max":669,"o":"m 62 593 l 669 593 l 669 509 l 62 509 l 62 593 m 62 322 l 669 322 l 669 238 l 62 238 l 62 322 z "},">":{"ha":554,"x_min":88,"x_max":489,"o":"m 368 413 l 88 681 l 148 741 l 489 413 l 148 85 l 88 145 l 368 413 z "},"?":{"ha":1046,"x_min":51,"x_max":994,"o":"m 438 370 q 449 438 438 403 q 476 509 460 473 q 510 582 492 545 q 545 655 529 618 q 572 730 561 692 q 583 804 583 767 q 544 899 583 863 q 433 935 505 935 q 379 931 410 935 q 318 921 348 928 q 385 900 354 915 q 439 863 416 884 q 475 815 462 842 q 488 759 488 788 q 470 694 488 724 q 424 642 453 664 q 354 606 394 619 q 269 593 314 593 q 184 606 224 593 q 114 642 144 619 q 68 694 85 664 q 51 759 51 724 q 83 855 51 812 q 176 926 115 897 q 329 971 238 956 q 537 987 420 987 q 705 971 623 987 q 851 922 787 955 q 955 837 916 888 q 994 715 994 785 q 974 623 994 662 q 919 554 954 583 q 841 505 885 526 q 748 469 796 484 q 651 442 700 454 q 561 420 603 431 q 487 398 519 410 q 438 370 454 386 m 338 157 q 353 228 338 195 q 392 287 367 262 q 450 326 417 311 q 522 340 484 340 q 592 326 559 340 q 650 287 625 311 q 690 228 675 262 q 704 157 704 195 q 690 86 704 119 q 650 28 675 53 q 592 -12 625 3 q 522 -26 559 -26 q 450 -12 484 -26 q 392 28 417 3 q 353 86 367 53 q 338 157 338 119 z "},"@":{"ha":1664,"x_min":130,"x_max":1552,"o":"m 130 322 q 151 500 130 411 q 215 671 172 589 q 324 823 258 753 q 477 946 389 894 q 674 1027 564 998 q 917 1057 784 1057 q 1060 1043 986 1057 q 1205 1000 1135 1029 q 1339 924 1276 970 q 1449 812 1402 878 q 1524 663 1496 747 q 1552 474 1552 579 q 1537 346 1552 408 q 1496 227 1522 283 q 1431 125 1469 172 q 1345 45 1392 79 q 1242 -7 1297 12 q 1126 -26 1187 -26 q 1030 -11 1070 -26 q 965 27 991 3 q 928 79 940 50 q 915 137 916 109 q 877 72 899 102 q 822 20 854 42 q 745 -14 789 -1 q 640 -26 700 -26 q 514 -3 570 -26 q 419 62 458 20 q 358 163 379 104 q 336 295 336 222 q 371 512 336 420 q 463 663 405 604 q 600 752 522 723 q 764 781 677 781 q 871 764 827 781 q 944 720 916 748 q 987 652 972 691 q 1006 568 1002 614 l 1037 709 l 1335 709 q 1306 627 1320 675 q 1279 526 1292 580 q 1254 414 1265 472 q 1234 303 1242 357 q 1221 203 1225 250 q 1216 123 1216 156 q 1229 85 1216 96 q 1259 75 1242 75 q 1332 107 1295 75 q 1399 193 1369 140 q 1449 314 1430 246 q 1468 452 1468 381 q 1429 636 1468 551 q 1312 784 1389 722 q 1122 882 1235 846 q 865 917 1010 917 q 686 898 771 917 q 526 844 600 880 q 391 757 452 808 q 288 640 331 706 q 222 496 245 574 q 199 327 199 417 q 246 98 199 193 q 378 -57 294 3 q 580 -145 463 -117 q 835 -173 696 -173 q 1053 -156 957 -173 q 1226 -113 1149 -140 q 1364 -53 1303 -87 q 1477 16 1425 -19 l 1510 -26 q 1449 -83 1485 -52 q 1367 -146 1413 -114 q 1265 -208 1321 -178 q 1141 -261 1208 -238 q 996 -298 1074 -284 q 829 -313 918 -313 q 660 -297 744 -313 q 497 -248 575 -281 q 353 -163 420 -214 q 236 -41 286 -112 q 158 120 186 29 q 130 322 130 210 m 697 250 q 704 160 697 195 q 722 104 711 125 q 748 76 733 84 q 780 68 763 68 q 842 100 810 68 q 901 189 874 132 q 944 328 927 247 q 960 506 960 408 q 957 582 960 547 q 944 641 953 616 q 921 679 935 665 q 886 692 907 692 q 817 661 851 692 q 756 572 783 629 q 713 432 730 514 q 697 250 697 350 z "},"A":{"ha":1282,"x_min":-10,"x_max":1286,"o":"m -10 54 q 74 61 45 54 q 112 88 104 68 l 461 961 l 759 961 l 1168 54 l 1286 54 l 1286 0 l 517 0 l 517 54 l 648 54 l 554 288 l 256 288 l 176 90 q 176 85 176 88 q 185 70 176 75 q 211 60 194 64 q 250 55 227 56 q 300 54 273 54 l 300 0 l -10 0 l -10 54 m 533 341 l 402 661 l 277 341 l 533 341 z "},"B":{"ha":1307,"x_min":67,"x_max":1234,"o":"m 67 54 l 186 54 l 186 908 l 67 908 l 67 961 l 753 961 q 917 950 841 961 q 1049 913 993 940 q 1138 841 1105 886 q 1170 725 1170 795 q 1147 627 1170 668 q 1076 559 1124 586 q 952 519 1028 532 q 769 505 876 505 q 884 501 827 504 q 992 489 941 498 q 1088 464 1044 480 q 1164 420 1132 447 q 1215 354 1197 393 q 1234 260 1234 315 q 1204 133 1234 183 q 1120 53 1175 82 q 986 12 1065 23 q 804 0 906 0 l 67 0 l 67 54 m 654 526 q 711 533 684 526 q 757 562 737 541 q 788 622 777 583 q 799 721 799 660 q 788 819 799 782 q 757 877 777 857 q 711 905 737 898 q 654 912 684 912 l 654 526 m 654 54 q 718 60 691 54 q 763 86 745 66 q 790 143 781 106 q 799 241 799 180 q 763 419 799 363 q 654 475 728 475 l 654 54 z "},"C":{"ha":1253,"x_min":80,"x_max":1154,"o":"m 80 458 q 116 667 80 570 q 224 835 152 764 q 404 946 296 906 q 656 987 512 987 q 850 955 760 987 q 1015 852 939 923 l 1099 977 l 1145 977 l 1145 536 l 1093 536 q 1026 715 1068 644 q 935 829 985 787 q 831 889 885 871 q 729 906 777 906 q 683 902 706 906 q 640 885 661 899 q 600 847 618 872 q 569 779 582 822 q 548 673 555 736 q 540 521 540 610 q 546 357 540 428 q 563 235 551 287 q 592 150 575 184 q 633 96 610 116 q 686 67 656 75 q 749 58 715 58 q 876 79 817 58 q 981 144 935 100 q 1056 260 1026 189 q 1094 429 1085 330 l 1154 429 q 1119 251 1148 334 q 1031 106 1090 168 q 880 9 972 45 q 653 -26 787 -26 q 417 9 523 -26 q 236 109 311 45 q 121 262 161 173 q 80 458 80 351 z "},"D":{"ha":1373,"x_min":67,"x_max":1293,"o":"m 67 54 l 186 54 l 186 908 l 67 908 l 67 961 l 823 961 q 1018 929 931 961 q 1166 835 1105 897 q 1260 684 1227 773 q 1293 481 1293 595 q 1260 277 1293 366 q 1166 126 1227 187 q 1018 32 1105 64 q 823 0 931 0 l 67 0 l 67 54 m 654 54 q 712 60 686 54 q 758 84 738 66 q 791 132 777 102 q 815 210 806 162 q 828 324 824 257 q 833 481 833 391 q 828 637 833 571 q 815 751 824 704 q 791 829 806 799 q 758 877 777 860 q 712 901 738 895 q 654 908 686 908 l 654 54 z "},"E":{"ha":1256,"x_min":67,"x_max":1150,"o":"m 67 54 l 186 54 l 186 908 l 67 908 l 67 961 l 1118 961 l 1118 631 l 1072 631 l 883 908 l 654 908 l 654 505 l 756 505 l 846 728 l 890 728 l 890 227 l 846 227 l 756 452 l 654 452 l 654 54 l 907 54 l 1103 362 l 1150 362 l 1150 0 l 67 0 l 67 54 z "},"F":{"ha":1137,"x_min":67,"x_max":1086,"o":"m 67 54 l 186 54 l 186 908 l 67 908 l 67 961 l 1086 961 l 1086 599 l 1040 599 l 848 908 l 654 908 l 654 454 l 763 454 l 846 677 l 890 677 l 890 175 l 846 175 l 763 400 l 654 400 l 654 54 l 823 54 l 823 0 l 67 0 l 67 54 z "},"G":{"ha":1303,"x_min":80,"x_max":1255,"o":"m 80 458 q 115 666 80 570 q 220 834 150 763 q 396 946 290 905 q 643 987 501 987 q 839 956 744 987 q 1015 852 933 926 l 1099 977 l 1145 977 l 1145 536 l 1093 536 q 1026 715 1068 644 q 935 829 985 787 q 831 889 885 871 q 729 906 777 906 q 683 902 706 906 q 640 885 661 899 q 600 847 618 872 q 569 779 582 822 q 548 673 555 736 q 540 521 540 610 q 546 294 540 387 q 565 143 551 201 q 602 60 579 86 q 659 35 625 35 q 701 45 686 35 q 724 80 717 56 q 733 143 732 104 q 735 237 735 181 l 735 429 l 609 429 l 609 483 l 1255 483 l 1255 429 l 1145 429 l 1145 -26 l 1103 -26 q 1037 20 1071 7 q 965 33 1003 33 q 891 25 928 33 q 811 6 854 17 q 708 -16 763 -5 q 588 -26 654 -26 q 378 12 472 -26 q 218 115 285 50 q 116 269 152 181 q 80 458 80 357 z "},"H":{"ha":1518,"x_min":67,"x_max":1451,"o":"m 67 54 l 186 54 l 186 908 l 67 908 l 67 961 l 721 961 l 721 908 l 654 908 l 654 541 l 865 541 l 865 908 l 798 908 l 798 961 l 1451 961 l 1451 908 l 1333 908 l 1333 54 l 1451 54 l 1451 0 l 798 0 l 798 54 l 865 54 l 865 488 l 654 488 l 654 54 l 721 54 l 721 0 l 67 0 l 67 54 z "},"I":{"ha":839,"x_min":67,"x_max":772,"o":"m 67 54 l 186 54 l 186 908 l 67 908 l 67 961 l 772 961 l 772 908 l 654 908 l 654 54 l 772 54 l 772 0 l 67 0 l 67 54 z "},"J":{"ha":891,"x_min":-16,"x_max":849,"o":"m -16 163 q -4 213 -16 189 q 29 253 7 236 q 80 281 50 271 q 144 291 109 291 q 209 281 179 291 q 259 253 238 271 q 292 213 280 236 q 303 163 303 189 q 275 88 303 121 q 200 42 248 56 q 229 34 213 37 q 259 31 245 31 q 306 42 287 31 q 338 70 326 52 q 355 111 350 87 q 361 161 361 134 q 346 229 361 193 q 314 301 332 264 q 278 378 294 340 q 262 448 262 416 l 262 908 l 144 908 l 144 961 l 849 961 l 849 908 l 730 908 l 730 283 q 708 133 730 192 q 643 38 686 73 q 533 -12 599 3 q 380 -26 468 -26 q 229 -13 300 -26 q 102 24 157 0 q 16 84 47 49 q -16 163 -16 119 z "},"K":{"ha":1426,"x_min":67,"x_max":1413,"o":"m 67 54 l 186 54 l 186 908 l 67 908 l 67 961 l 772 961 l 772 908 l 654 908 l 654 484 l 1059 868 q 1063 873 1062 871 q 1063 878 1063 875 q 1047 892 1063 886 q 1008 902 1031 899 q 957 907 984 905 q 905 908 929 908 l 905 961 l 1323 961 l 1323 908 q 1252 906 1281 908 q 1202 899 1223 904 q 1167 886 1181 894 q 1140 866 1153 878 l 1004 737 l 1326 54 l 1413 54 l 1413 0 l 779 0 l 779 54 l 846 54 l 684 432 l 654 403 l 654 54 l 721 54 l 721 0 l 67 0 l 67 54 z "},"L":{"ha":1122,"x_min":67,"x_max":1086,"o":"m 67 54 l 186 54 l 186 908 l 67 908 l 67 961 l 772 961 l 772 908 l 654 908 l 654 54 l 869 54 l 1040 362 l 1086 362 l 1086 0 l 67 0 l 67 54 z "},"M":{"ha":1498,"x_min":64,"x_max":1431,"o":"m 64 54 q 153 60 123 54 q 182 92 182 66 l 182 908 l 64 908 l 64 961 l 608 961 l 732 559 l 864 961 l 1431 961 l 1431 908 l 1312 908 l 1312 54 l 1431 54 l 1431 0 l 745 0 l 745 54 l 864 54 l 864 766 l 614 0 l 489 0 l 240 757 l 240 96 q 270 60 240 67 q 359 54 299 54 l 359 0 l 64 0 l 64 54 z "},"N":{"ha":1265,"x_min":19,"x_max":1230,"o":"m 31 54 q 88 55 60 54 q 136 61 115 57 q 170 73 157 65 q 182 92 182 80 l 182 800 l 100 908 l 19 908 l 19 961 l 612 961 l 1048 387 l 1048 868 q 1039 888 1048 880 q 1015 900 1031 896 q 975 906 998 905 q 923 908 952 908 l 923 961 l 1230 961 l 1230 908 q 1139 901 1172 908 q 1105 868 1105 893 l 1105 0 l 762 0 l 240 724 l 240 96 q 251 74 240 82 q 282 61 262 66 q 328 55 301 57 q 384 54 354 54 l 384 0 l 31 0 l 31 54 z "},"O":{"ha":1322,"x_min":80,"x_max":1242,"o":"m 80 481 q 94 612 80 548 q 137 732 108 675 q 213 835 167 788 q 323 916 259 882 q 472 968 388 949 q 661 987 556 987 q 850 968 766 987 q 999 916 935 949 q 1110 835 1064 882 q 1185 732 1156 788 q 1229 612 1215 675 q 1242 481 1242 548 q 1229 350 1242 414 q 1185 229 1215 286 q 1110 126 1156 173 q 999 45 1064 79 q 850 -7 935 12 q 661 -26 766 -26 q 472 -7 556 -26 q 323 45 388 12 q 213 126 259 79 q 137 229 167 173 q 94 349 108 286 q 80 481 80 413 m 661 21 q 720 42 696 21 q 758 116 743 63 q 778 257 772 168 q 783 481 783 345 q 778 704 783 616 q 758 845 772 793 q 720 919 743 898 q 661 940 696 940 q 603 919 626 940 q 565 845 579 898 q 546 704 551 793 q 540 481 540 616 q 546 257 540 345 q 565 116 551 168 q 603 42 579 63 q 661 21 626 21 z "},"P":{"ha":1252,"x_min":67,"x_max":1234,"o":"m 67 54 l 186 54 l 186 908 l 67 908 l 67 961 l 849 961 q 1021 937 949 961 q 1141 871 1094 913 q 1212 771 1189 829 q 1234 645 1234 713 q 1208 520 1234 576 q 1132 423 1182 463 q 1007 360 1081 382 q 836 338 932 338 l 654 338 l 654 54 l 772 54 l 772 0 l 67 0 l 67 54 m 654 387 q 721 405 693 387 q 766 456 749 423 q 791 534 783 488 q 799 635 799 579 q 791 759 799 706 q 765 845 783 811 q 721 896 748 879 q 654 912 693 912 l 654 387 z "},"Q":{"ha":1323,"x_min":80,"x_max":1260,"o":"m 80 481 q 94 612 80 548 q 137 732 108 675 q 213 835 167 788 q 323 916 259 882 q 472 968 388 949 q 661 987 556 987 q 850 968 766 987 q 999 916 935 949 q 1110 835 1064 882 q 1185 732 1156 788 q 1229 612 1215 675 q 1242 481 1242 548 q 1222 325 1242 400 q 1160 186 1202 250 q 1049 76 1117 123 q 886 1 981 28 q 908 -40 895 -21 q 942 -73 922 -59 q 989 -95 962 -87 q 1055 -102 1017 -102 q 1113 -99 1084 -102 q 1164 -83 1141 -96 q 1200 -46 1186 -71 q 1214 18 1214 -22 l 1255 18 q 1259 -19 1258 -1 q 1260 -54 1260 -37 q 1249 -159 1260 -113 q 1211 -235 1237 -204 q 1144 -281 1185 -265 q 1043 -296 1103 -296 q 954 -286 991 -296 q 890 -255 917 -275 q 846 -210 863 -236 q 818 -152 829 -183 q 802 -86 808 -121 q 793 -17 797 -52 q 730 -23 763 -21 q 661 -26 697 -26 q 472 -7 556 -26 q 323 45 388 12 q 213 126 259 79 q 137 229 167 173 q 94 349 108 286 q 80 481 80 413 m 545 267 q 602 308 568 293 q 673 323 635 323 q 734 316 709 323 q 779 294 760 308 q 783 481 783 374 q 778 704 783 616 q 758 845 772 793 q 720 919 743 898 q 661 940 696 940 q 603 919 626 940 q 565 845 579 898 q 546 704 551 793 q 540 481 540 616 q 541 364 540 416 q 545 267 542 311 m 549 215 q 563 123 554 160 q 586 63 572 85 q 618 31 600 40 q 661 21 637 21 q 701 29 684 21 q 731 55 718 37 q 754 103 745 73 q 769 178 763 134 q 730 244 757 218 q 653 269 704 269 q 595 254 623 269 q 549 215 566 239 z "},"R":{"ha":1377,"x_min":67,"x_max":1335,"o":"m 67 54 l 186 54 l 186 908 l 67 908 l 67 961 l 842 961 q 1008 946 935 961 q 1131 900 1081 931 q 1207 822 1181 869 q 1233 710 1233 774 q 1210 610 1233 654 q 1133 535 1187 566 q 987 488 1078 505 q 760 471 896 471 q 968 459 882 470 q 1108 420 1054 448 q 1188 346 1163 393 q 1213 229 1213 300 q 1213 195 1213 209 q 1212 162 1213 181 q 1211 132 1211 142 q 1211 108 1211 121 q 1216 76 1211 87 q 1236 65 1222 65 q 1268 109 1258 65 q 1278 234 1278 152 l 1335 234 l 1335 212 q 1323 99 1335 145 q 1278 24 1310 53 q 1192 -17 1246 -4 q 1054 -29 1137 -29 q 921 -13 974 -29 q 837 37 868 4 q 792 117 805 69 q 779 229 779 165 q 772 342 779 298 q 750 411 765 386 q 711 446 735 437 q 654 456 687 456 l 654 54 l 772 54 l 772 0 l 67 0 l 67 54 m 654 509 q 718 518 690 509 q 763 549 745 527 q 789 611 781 572 q 798 710 798 650 q 789 809 798 770 q 763 869 781 847 q 718 900 745 891 q 654 908 690 908 l 654 509 z "},"S":{"ha":1200,"x_min":122,"x_max":1116,"o":"m 125 369 l 170 369 q 212 297 187 336 q 271 221 237 259 q 349 148 305 183 q 446 87 392 113 q 564 44 499 60 q 705 28 628 28 q 755 31 727 28 q 807 41 783 33 q 848 63 831 49 q 865 102 865 78 q 843 148 865 128 q 779 187 822 168 q 669 224 735 205 q 513 267 603 243 q 218 411 314 319 q 122 637 122 504 q 156 786 122 721 q 250 896 191 851 q 389 963 309 940 q 559 987 469 987 q 655 979 605 987 q 754 956 706 970 q 845 922 802 942 q 920 878 888 902 l 1022 977 l 1069 977 l 1069 682 l 1026 682 q 949 782 996 736 q 842 862 903 828 q 709 916 782 896 q 553 935 635 935 q 513 934 538 935 q 466 927 489 933 q 425 908 442 921 q 408 871 408 895 q 478 797 408 832 q 688 724 549 761 q 802 691 747 709 q 904 652 857 674 q 991 602 952 630 q 1058 536 1030 574 q 1101 449 1086 498 q 1116 336 1116 400 q 1089 197 1116 262 q 1008 81 1062 131 q 874 3 954 32 q 689 -26 794 -26 q 581 -17 631 -26 q 482 9 530 -8 q 387 54 434 27 q 291 117 340 81 l 176 -13 l 125 -13 l 125 369 z "},"T":{"ha":1179,"x_min":45,"x_max":1135,"o":"m 237 54 l 355 54 l 355 908 l 258 908 l 92 573 l 45 573 l 45 961 l 1135 961 l 1135 573 l 1087 573 l 922 908 l 823 908 l 823 54 l 942 54 l 942 0 l 237 0 l 237 54 z "},"U":{"ha":1284,"x_min":54,"x_max":1242,"o":"m 173 908 l 54 908 l 54 961 l 759 961 l 759 908 l 641 908 l 641 385 q 648 263 641 321 q 676 162 654 205 q 737 92 697 118 q 842 66 777 66 q 894 72 867 66 q 945 91 920 77 q 992 130 970 105 q 1030 195 1014 155 q 1057 291 1047 235 q 1066 423 1066 347 l 1066 868 q 1036 898 1066 888 q 947 908 1006 908 l 947 961 l 1242 961 l 1242 908 q 1154 898 1183 908 q 1124 868 1124 888 l 1124 442 q 1101 230 1124 319 q 1024 85 1078 142 q 881 1 970 28 q 659 -26 792 -26 q 495 -9 567 -26 q 369 36 423 7 q 277 107 315 66 q 217 197 240 148 q 183 302 194 246 q 173 416 173 357 l 173 908 z "},"V":{"ha":1220,"x_min":-3,"x_max":1230,"o":"m 96 908 l -3 908 l -3 961 l 721 961 l 721 908 l 602 908 l 831 315 l 1036 866 q 1038 877 1038 872 q 1029 891 1038 886 q 1003 901 1020 897 q 964 906 987 905 q 914 908 941 908 l 914 961 l 1230 961 l 1230 908 q 1142 899 1171 908 q 1105 866 1114 889 l 785 0 l 494 0 l 96 908 z "},"W":{"ha":1765,"x_min":-3,"x_max":1775,"o":"m 92 908 l -3 908 l -3 961 l 682 961 l 682 908 l 560 908 l 748 352 l 850 694 l 772 908 l 727 908 l 727 961 l 1362 961 l 1362 908 l 1240 908 l 1426 355 l 1575 866 q 1577 877 1577 872 q 1568 891 1577 886 q 1542 901 1558 897 q 1502 906 1525 905 q 1453 908 1480 908 l 1453 961 l 1775 961 l 1775 908 q 1686 899 1715 908 q 1650 866 1657 890 l 1394 0 l 1102 0 l 888 589 l 714 0 l 423 0 l 92 908 z "},"X":{"ha":1297,"x_min":13,"x_max":1284,"o":"m 13 54 q 63 56 43 54 q 98 63 84 58 q 122 77 113 68 q 138 96 132 85 l 394 500 l 151 908 l 43 908 l 43 961 l 774 961 l 774 908 l 665 908 l 866 572 l 1057 868 q 1059 877 1059 871 q 1049 891 1059 886 q 1024 901 1040 897 q 985 906 1008 905 q 935 908 962 908 l 935 961 l 1251 961 l 1251 908 q 1200 905 1221 908 q 1165 898 1179 903 q 1142 885 1151 892 q 1126 866 1133 877 l 902 511 l 1176 54 l 1284 54 l 1284 0 l 553 0 l 553 54 l 661 54 l 430 440 l 207 92 q 205 85 205 89 q 214 70 205 75 q 240 60 223 64 q 279 55 256 56 q 329 54 302 54 l 329 0 l 13 0 l 13 54 z "},"Y":{"ha":1200,"x_min":-3,"x_max":1211,"o":"m 274 54 l 393 54 l 393 339 l 100 908 l -3 908 l -3 961 l 721 961 l 721 908 l 606 908 l 826 438 l 1023 866 q 1025 878 1025 871 q 1016 892 1025 886 q 990 901 1006 898 q 951 906 974 905 q 901 908 928 908 l 901 961 l 1211 961 l 1211 908 q 1160 906 1181 908 q 1127 900 1140 905 q 1106 887 1114 895 q 1092 866 1098 879 l 861 370 l 861 54 l 979 54 l 979 0 l 274 0 l 274 54 z "},"Z":{"ha":1125,"x_min":58,"x_max":1061,"o":"m 58 52 l 558 910 l 308 910 q 286 894 298 910 q 258 852 273 878 q 229 795 243 827 q 200 731 214 763 q 175 672 186 700 q 158 627 164 644 l 86 627 l 86 961 l 1061 961 l 1061 910 l 559 52 l 815 52 q 844 67 828 52 q 877 109 860 83 q 909 165 893 134 q 940 227 926 196 q 966 285 954 258 q 984 330 977 313 l 1056 330 l 1056 0 l 58 0 l 58 52 z "},"[":{"ha":665,"x_min":192,"x_max":600,"o":"m 192 1115 l 600 1115 l 600 1068 l 491 1068 l 491 -107 l 600 -107 l 600 -154 l 192 -154 l 192 1115 z "},"\\":{"ha":641,"x_min":-35,"x_max":677,"o":"m -35 1007 l 33 1041 l 677 -294 l 608 -328 l -35 1007 z "},"]":{"ha":665,"x_min":64,"x_max":473,"o":"m 174 -107 l 174 1068 l 64 1068 l 64 1115 l 473 1115 l 473 -154 l 64 -154 l 64 -107 l 174 -107 z "},"^":{"ha":926,"x_min":101,"x_max":825,"o":"m 463 798 l 825 172 l 753 130 l 463 631 l 174 130 l 101 172 l 463 798 z "},"_":{"ha":1036,"x_min":-7,"x_max":1043,"o":"m 1043 -44 l 1043 -121 l -7 -121 l -7 -44 l 1043 -44 z "},"`":{"ha":638,"x_min":0,"x_max":463,"o":"m 385 881 q 329 901 361 889 q 263 925 298 912 q 194 951 229 938 q 130 977 159 965 q 77 999 100 989 q 45 1015 55 1009 q 11 1048 22 1028 q 0 1090 0 1068 q 7 1127 0 1109 q 27 1159 15 1145 q 57 1181 40 1173 q 93 1189 74 1189 q 116 1186 104 1189 q 139 1177 127 1183 q 169 1156 149 1171 q 214 1121 189 1141 q 269 1078 239 1101 q 327 1030 298 1054 q 381 985 355 1007 q 426 947 407 963 q 450 926 441 934 q 463 916 460 918 l 429 864 q 414 870 425 866 q 385 881 402 875 z "},"a":{"ha":1249,"x_min":89,"x_max":1201,"o":"m 89 178 q 109 268 89 230 q 164 331 128 305 q 250 373 200 357 q 362 398 300 389 q 494 410 423 407 q 640 413 564 413 l 640 451 q 628 590 640 538 q 592 670 616 642 q 533 706 568 698 q 451 715 498 715 q 398 711 426 715 q 348 701 370 707 q 406 686 379 698 q 451 655 432 673 q 480 614 470 637 q 491 569 491 592 q 477 515 491 541 q 437 472 463 490 q 379 442 412 453 q 308 431 346 431 q 237 442 270 431 q 179 472 204 453 q 140 515 155 490 q 126 569 126 541 q 147 637 126 607 q 203 691 168 668 q 287 732 239 715 q 391 760 336 749 q 507 775 447 770 q 627 781 567 781 q 811 766 732 781 q 941 714 889 751 q 1019 613 993 677 q 1044 451 1044 549 l 1044 167 q 1055 89 1044 116 q 1094 61 1065 61 q 1117 70 1108 61 q 1132 94 1126 79 q 1139 129 1137 109 q 1141 169 1141 149 l 1141 236 l 1201 236 l 1201 169 q 1187 77 1201 115 q 1139 17 1173 40 q 1047 -16 1105 -6 q 903 -26 990 -26 q 821 -21 859 -26 q 751 -5 783 -16 q 696 26 720 7 q 660 73 673 45 q 606 23 640 42 q 532 -7 572 3 q 453 -22 493 -18 q 380 -26 413 -26 q 245 -9 300 -26 q 155 35 189 7 q 104 100 120 63 q 89 178 89 137 m 480 185 q 498 104 480 135 q 559 73 517 73 q 617 99 594 73 q 640 167 640 124 l 640 351 q 560 342 591 351 q 511 314 529 333 q 487 262 493 294 q 480 185 480 231 z "},"b":{"ha":1259,"x_min":35,"x_max":1198,"o":"m 154 977 l 35 977 l 35 1025 l 557 1025 l 557 715 q 643 762 592 743 q 770 781 694 781 q 960 748 879 781 q 1093 660 1040 715 q 1172 531 1146 604 q 1198 377 1198 458 q 1170 221 1198 294 q 1085 93 1142 148 q 941 6 1027 38 q 736 -26 854 -26 q 606 -14 663 -26 q 506 18 549 -1 q 430 63 462 38 q 376 112 398 87 l 154 -26 l 154 977 m 551 246 q 559 155 551 193 q 584 90 568 116 q 620 52 599 64 q 667 39 642 39 q 722 58 700 39 q 757 116 743 76 q 776 220 770 156 q 782 377 782 285 q 776 531 782 469 q 758 633 770 594 q 725 690 745 673 q 675 707 705 707 q 621 691 644 707 q 582 651 597 675 q 558 597 566 627 q 551 542 551 568 l 551 246 z "},"c":{"ha":1078,"x_min":60,"x_max":1023,"o":"m 60 385 q 96 547 60 473 q 196 672 132 620 q 346 752 259 724 q 535 781 433 781 q 756 760 664 781 q 908 706 848 739 q 995 631 967 673 q 1023 549 1023 590 q 1008 493 1023 519 q 968 447 994 467 q 909 416 943 427 q 836 404 875 404 q 762 415 796 404 q 702 446 727 427 q 661 491 676 465 q 646 547 646 517 q 660 599 646 574 q 696 643 673 624 q 751 674 720 662 q 819 688 783 686 q 743 710 781 703 q 673 718 705 718 q 583 704 621 718 q 520 653 545 690 q 484 549 496 615 q 471 377 471 482 q 480 208 471 273 q 510 106 490 143 q 561 56 530 69 q 637 42 593 42 q 745 56 694 42 q 834 97 795 71 q 901 160 874 123 q 937 243 927 197 l 1000 243 q 962 130 994 180 q 877 45 930 80 q 754 -7 825 11 q 599 -26 683 -26 q 366 2 467 -26 q 197 82 265 29 q 95 211 130 134 q 60 385 60 287 z "},"d":{"ha":1259,"x_min":60,"x_max":1224,"o":"m 60 377 q 86 531 60 458 q 166 660 113 604 q 300 748 219 715 q 490 781 380 781 q 616 762 564 781 q 701 715 667 743 l 701 977 l 583 977 l 583 1025 l 1105 1025 l 1105 49 l 1224 49 l 1224 0 l 701 0 l 701 54 q 623 -4 673 17 q 490 -26 573 -26 q 300 7 380 -26 q 166 95 219 39 q 86 223 113 151 q 60 377 60 296 m 593 52 q 639 63 618 52 q 675 97 660 73 q 699 157 690 120 q 708 246 708 193 l 708 542 q 701 597 708 568 q 677 651 693 627 q 638 691 662 675 q 584 707 615 707 q 535 690 555 707 q 502 633 515 673 q 483 531 489 594 q 477 377 477 469 q 483 222 477 285 q 502 122 488 160 q 538 68 515 85 q 593 52 560 52 z "},"e":{"ha":1076,"x_min":60,"x_max":1015,"o":"m 60 385 q 98 549 60 475 q 201 673 135 622 q 358 753 267 725 q 554 781 448 781 q 702 764 635 781 q 819 720 768 748 q 907 653 870 692 q 968 570 944 614 q 1004 476 992 525 q 1015 377 1015 427 l 471 377 q 480 208 471 273 q 510 106 490 143 q 561 56 530 69 q 637 42 593 42 q 745 56 694 42 q 834 97 795 71 q 901 160 874 123 q 937 243 927 197 l 1000 243 q 962 130 994 180 q 877 45 930 80 q 754 -7 825 11 q 599 -26 683 -26 q 366 2 467 -26 q 197 82 265 29 q 95 211 130 134 q 60 385 60 287 m 662 446 q 654 587 660 530 q 636 677 648 643 q 608 725 625 711 q 567 739 591 739 q 526 725 543 739 q 497 677 509 711 q 479 587 486 643 q 472 446 473 530 l 662 446 z "},"f":{"ha":798,"x_min":47,"x_max":849,"o":"m 47 49 l 167 49 l 167 642 l 47 642 l 47 690 l 167 690 l 167 744 q 258 978 167 905 q 526 1051 349 1051 q 586 1048 552 1051 q 655 1036 620 1044 q 726 1015 691 1028 q 788 981 761 1001 q 832 933 815 961 q 849 871 849 906 q 837 821 849 844 q 803 780 825 798 q 751 753 781 763 q 686 743 721 743 q 621 753 651 743 q 570 780 591 763 q 536 821 548 798 q 524 871 524 844 q 533 915 524 894 q 559 952 543 935 q 600 980 576 968 q 652 996 624 991 q 588 1004 620 1004 q 538 997 562 1004 q 497 974 515 990 q 470 932 480 958 q 460 868 460 906 q 468 819 460 843 q 489 771 476 794 q 516 728 501 749 q 545 690 531 707 l 703 690 l 703 642 l 570 642 l 570 49 l 688 49 l 688 0 l 47 0 l 47 49 z "},"g":{"ha":1118,"x_min":44,"x_max":1149,"o":"m 44 -151 q 78 -87 44 -119 q 189 -29 111 -56 q 81 138 81 28 q 92 202 81 171 q 123 260 102 233 q 177 308 144 287 q 255 342 210 329 q 143 424 181 374 q 105 538 105 473 q 131 630 105 586 q 210 708 157 674 q 344 761 263 741 q 534 781 425 781 q 640 775 591 781 q 732 760 689 770 q 784 823 753 797 q 851 867 814 850 q 928 892 887 884 q 1010 900 968 900 q 1065 891 1040 900 q 1108 869 1090 883 q 1138 836 1127 854 q 1149 795 1149 817 q 1138 754 1149 773 q 1108 721 1127 735 q 1065 698 1090 707 q 1010 690 1040 690 q 957 698 982 690 q 912 721 931 707 q 882 754 893 735 q 871 795 871 773 q 880 830 871 812 q 824 797 850 818 q 780 745 798 776 q 916 662 869 715 q 962 538 962 608 q 934 438 962 483 q 851 361 905 393 q 716 312 796 330 q 534 295 636 295 q 313 321 405 295 q 259 300 275 314 q 244 273 244 287 q 251 254 244 263 q 277 237 258 244 q 330 224 296 229 q 419 219 364 219 l 692 219 q 829 207 766 219 q 938 165 892 194 q 1010 88 984 136 q 1036 -31 1036 40 q 1008 -141 1036 -92 q 919 -225 981 -191 q 756 -278 857 -260 q 511 -296 656 -296 q 296 -285 385 -296 q 152 -254 208 -273 q 70 -208 96 -234 q 44 -151 44 -181 m 534 337 q 577 348 559 337 q 604 384 594 359 q 618 446 614 408 q 623 538 623 484 q 618 630 623 592 q 604 692 614 668 q 577 727 594 716 q 534 739 559 739 q 491 727 508 739 q 463 692 473 716 q 449 630 453 668 q 444 538 444 592 q 449 446 444 484 q 463 384 453 408 q 491 348 473 359 q 534 337 508 337 m 153 -144 q 157 -166 153 -155 q 175 -189 161 -178 q 212 -211 188 -201 q 276 -229 236 -221 q 374 -242 316 -237 q 511 -247 431 -247 q 681 -239 607 -247 q 805 -217 755 -231 q 882 -183 856 -203 q 908 -142 908 -164 q 860 -95 908 -109 q 721 -80 812 -80 l 452 -80 q 340 -73 391 -80 q 247 -54 289 -66 q 174 -98 195 -75 q 153 -144 153 -121 z "},"h":{"ha":1314,"x_min":54,"x_max":1291,"o":"m 54 49 l 173 49 l 173 977 l 54 977 l 54 1025 l 576 1025 l 576 668 q 629 715 598 694 q 697 751 660 736 q 777 773 734 766 q 864 781 819 781 q 1016 756 956 781 q 1111 688 1076 732 q 1159 580 1145 644 q 1173 439 1173 517 l 1173 49 l 1291 49 l 1291 0 l 701 0 l 701 49 l 769 49 l 769 439 q 765 553 769 509 q 751 623 761 597 q 724 658 741 648 q 681 668 707 668 q 635 657 655 668 q 603 627 616 646 q 583 580 589 607 q 576 521 576 553 l 576 49 l 644 49 l 644 0 l 54 0 l 54 49 z "},"i":{"ha":730,"x_min":54,"x_max":695,"o":"m 368 823 q 292 831 328 823 q 227 856 255 839 q 182 901 199 873 q 165 967 165 928 q 182 1034 165 1006 q 227 1079 199 1061 q 292 1104 255 1096 q 368 1112 328 1112 q 443 1104 406 1112 q 507 1079 479 1096 q 552 1034 535 1061 q 569 968 569 1007 q 552 901 569 928 q 507 856 535 873 q 443 831 479 839 q 368 823 406 823 m 54 49 l 173 49 l 173 706 l 54 706 l 54 755 l 576 755 l 576 49 l 695 49 l 695 0 l 54 0 l 54 49 z "},"j":{"ha":775,"x_min":-52,"x_max":631,"o":"m 415 823 q 339 831 376 823 q 275 856 303 839 q 230 901 247 873 q 214 967 214 928 q 230 1034 214 1006 q 275 1079 247 1061 q 339 1104 303 1096 q 415 1112 376 1112 q 491 1104 454 1112 q 555 1079 527 1096 q 600 1034 583 1061 q 617 968 617 1007 q 600 901 617 928 q 555 856 583 873 q 491 831 527 839 q 415 823 454 823 m 112 19 q 177 9 147 19 q 228 -19 206 -1 q 262 -59 250 -36 q 274 -109 274 -83 q 265 -152 274 -132 q 239 -189 256 -173 q 200 -217 223 -205 q 150 -234 177 -229 q 189 -244 166 -239 q 229 -249 212 -249 q 281 -237 260 -249 q 315 -207 302 -226 q 333 -165 328 -189 q 338 -117 338 -142 q 330 -68 338 -92 q 311 -25 323 -45 q 286 13 300 -5 q 260 46 273 31 q 236 78 245 64 q 227 104 227 92 l 227 706 l 109 706 l 109 755 l 631 755 l 631 11 q 540 -223 631 -150 q 272 -296 450 -296 q 150 -284 208 -296 q 46 -248 91 -272 q -25 -190 1 -224 q -52 -109 -52 -155 q -39 -59 -52 -83 q -5 -19 -27 -36 q 47 9 17 -1 q 112 19 77 19 z "},"k":{"ha":1240,"x_min":54,"x_max":1211,"o":"m 54 49 l 173 49 l 173 977 l 54 977 l 54 1025 l 576 1025 l 576 397 q 622 440 595 415 q 677 494 648 466 q 735 551 707 522 q 788 603 764 579 q 827 644 812 627 q 846 666 843 661 q 849 670 848 669 q 849 674 849 672 q 840 689 849 683 q 814 699 831 695 q 775 704 798 703 q 725 706 752 706 l 725 755 l 1137 755 l 1137 706 q 1081 705 1109 706 q 1029 699 1054 703 q 984 686 1005 694 q 948 663 964 677 q 904 623 930 648 q 847 567 878 597 q 782 503 816 536 q 715 436 747 469 q 753 438 734 437 q 790 439 772 439 q 926 428 869 439 q 1019 391 983 417 q 1072 322 1055 365 q 1088 215 1088 279 q 1088 204 1088 209 q 1088 195 1088 200 q 1088 182 1088 190 q 1087 163 1088 175 q 1086 144 1086 152 q 1086 132 1086 137 q 1086 121 1086 126 q 1086 111 1086 117 q 1092 80 1086 92 q 1114 67 1099 67 q 1131 74 1124 67 q 1144 97 1139 81 q 1151 139 1149 113 q 1154 205 1154 165 l 1211 205 l 1211 182 q 1196 74 1211 115 q 1148 11 1181 33 q 1065 -19 1116 -12 q 942 -26 1014 -26 q 812 -11 862 -26 q 734 32 762 3 q 697 102 707 60 q 687 199 687 144 q 680 310 687 267 q 648 368 672 352 q 607 327 626 346 q 576 295 589 309 l 576 49 l 661 49 l 661 0 l 54 0 l 54 49 z "},"l":{"ha":730,"x_min":54,"x_max":695,"o":"m 54 49 l 173 49 l 173 977 l 54 977 l 54 1025 l 576 1025 l 576 49 l 695 49 l 695 0 l 54 0 l 54 49 z "},"m":{"ha":1884,"x_min":54,"x_max":1862,"o":"m 54 49 l 173 49 l 173 706 l 54 706 l 54 755 l 576 755 l 576 668 q 690 751 621 722 q 851 781 760 781 q 1029 745 964 781 q 1125 643 1095 709 q 1170 697 1141 672 q 1235 741 1198 722 q 1315 770 1272 760 q 1404 781 1358 781 q 1572 758 1506 781 q 1675 691 1637 735 q 1728 584 1714 648 q 1743 439 1743 521 l 1743 49 l 1862 49 l 1862 0 l 1272 0 l 1272 49 l 1339 49 l 1339 439 q 1335 553 1339 509 q 1321 623 1331 597 q 1294 658 1311 648 q 1251 668 1277 668 q 1182 638 1207 668 q 1150 560 1158 609 q 1158 502 1156 532 q 1160 439 1160 472 l 1160 49 l 1227 49 l 1227 0 l 688 0 l 688 49 l 756 49 l 756 439 q 752 553 756 509 q 738 623 748 597 q 711 658 728 648 q 668 668 694 668 q 625 657 642 668 q 596 627 607 646 q 581 580 585 607 q 576 521 576 553 l 576 49 l 644 49 l 644 0 l 54 0 l 54 49 z "},"n":{"ha":1314,"x_min":54,"x_max":1291,"o":"m 54 49 l 173 49 l 173 706 l 54 706 l 54 755 l 576 755 l 576 668 q 629 715 598 694 q 697 751 660 736 q 777 773 734 766 q 864 781 819 781 q 1016 756 956 781 q 1111 688 1076 732 q 1159 580 1145 644 q 1173 439 1173 517 l 1173 49 l 1291 49 l 1291 0 l 701 0 l 701 49 l 769 49 l 769 439 q 765 553 769 509 q 751 623 761 597 q 724 658 741 648 q 681 668 707 668 q 635 657 655 668 q 603 627 616 646 q 583 580 589 607 q 576 521 576 553 l 576 49 l 644 49 l 644 0 l 54 0 l 54 49 z "},"o":{"ha":1145,"x_min":60,"x_max":1085,"o":"m 60 377 q 92 538 60 465 q 188 666 124 612 q 348 750 252 720 q 573 781 444 781 q 798 750 702 781 q 958 666 894 720 q 1053 538 1021 612 q 1085 377 1085 465 q 1053 216 1085 290 q 958 89 1021 142 q 798 4 894 35 q 573 -26 702 -26 q 348 4 444 -26 q 188 89 252 35 q 92 216 124 142 q 60 377 60 290 m 573 16 q 617 33 599 16 q 647 92 635 50 q 664 202 659 133 q 669 377 669 272 q 664 552 669 483 q 647 663 659 622 q 617 722 635 705 q 573 739 599 739 q 528 722 547 739 q 498 663 510 705 q 482 552 487 622 q 477 377 477 483 q 482 202 477 272 q 498 92 487 133 q 528 33 510 50 q 573 16 547 16 z "},"p":{"ha":1278,"x_min":55,"x_max":1218,"o":"m 174 -222 l 174 706 l 55 706 l 55 755 l 577 755 l 577 701 q 655 759 605 738 q 789 781 706 781 q 979 748 899 781 q 1113 660 1060 715 q 1192 531 1166 604 q 1218 377 1218 458 q 1192 223 1218 296 q 1113 95 1166 151 q 979 7 1060 39 q 789 -26 899 -26 q 663 -7 714 -26 q 577 40 612 12 l 577 -222 l 696 -222 l 696 -271 l 55 -271 l 55 -222 l 174 -222 m 570 213 q 578 157 570 186 q 602 104 586 128 q 641 63 617 79 q 696 47 664 47 q 745 65 724 47 q 778 121 765 82 q 796 223 790 160 q 802 377 802 286 q 796 532 802 470 q 777 633 790 595 q 741 687 763 671 q 687 703 720 703 q 640 692 661 703 q 603 658 618 682 q 579 598 588 635 q 570 509 570 562 l 570 213 z "},"q":{"ha":1259,"x_min":60,"x_max":1224,"o":"m 60 377 q 89 534 60 460 q 174 662 117 607 q 319 749 232 717 q 524 781 406 781 q 653 768 596 781 q 754 736 710 756 q 829 692 798 717 q 883 643 861 667 l 1105 781 l 1105 -222 l 1224 -222 l 1224 -271 l 583 -271 l 583 -222 l 701 -222 l 701 40 q 616 -7 667 12 q 490 -26 564 -26 q 300 7 380 -26 q 166 95 219 39 q 86 223 113 151 q 60 377 60 296 m 584 47 q 638 63 615 47 q 677 104 662 79 q 701 157 693 128 q 708 213 708 186 l 708 509 q 699 600 708 562 q 675 665 690 639 q 639 703 660 690 q 593 715 618 715 q 538 697 560 715 q 502 639 515 680 q 483 534 488 599 q 477 377 477 470 q 483 223 477 286 q 502 121 489 160 q 535 65 515 82 q 584 47 555 47 z "},"r":{"ha":1074,"x_min":54,"x_max":1061,"o":"m 54 49 l 173 49 l 173 706 l 54 706 l 54 755 l 576 755 l 576 668 q 628 715 598 694 q 694 750 658 736 q 772 773 730 765 q 859 781 814 781 q 943 769 905 781 q 1006 738 980 758 q 1047 690 1033 718 q 1061 631 1061 663 q 1045 573 1061 600 q 1003 526 1030 546 q 941 493 977 505 q 864 481 905 481 q 787 493 823 481 q 725 526 751 505 q 682 573 698 546 q 667 631 667 600 q 671 662 667 646 q 683 690 675 677 q 650 670 669 684 q 615 635 631 656 q 588 588 599 615 q 576 530 576 562 l 576 49 l 708 49 l 708 0 l 54 0 l 54 49 z "},"s":{"ha":1058,"x_min":83,"x_max":1000,"o":"m 83 296 l 134 296 q 214 197 163 244 q 331 114 266 150 q 468 56 395 77 q 612 34 541 34 q 670 37 642 34 q 719 48 698 40 q 752 71 740 57 q 765 108 765 85 q 744 146 765 131 q 688 172 724 161 q 607 189 653 182 q 512 202 562 195 q 345 233 422 214 q 209 285 267 252 q 118 369 151 318 q 85 495 85 420 q 116 617 85 564 q 202 707 147 671 q 332 762 257 743 q 496 781 408 781 q 582 772 538 781 q 665 751 625 764 q 742 721 705 738 q 807 686 778 703 l 898 772 l 954 772 l 954 505 l 906 505 q 836 592 878 552 q 740 661 793 632 q 624 707 686 690 q 494 724 562 724 q 433 720 460 724 q 385 709 405 717 q 353 690 364 702 q 342 661 342 677 q 359 623 342 637 q 409 596 376 608 q 492 576 443 585 q 608 557 542 568 q 763 524 691 544 q 887 471 835 505 q 970 385 940 437 q 1000 253 1000 332 q 976 137 1000 189 q 902 49 951 85 q 783 -6 854 13 q 619 -26 711 -26 q 526 -17 576 -26 q 426 7 475 -9 q 333 46 377 23 q 258 97 289 68 l 140 -16 l 83 -16 l 83 296 z "},"t":{"ha":839,"x_min":16,"x_max":826,"o":"m 134 706 l 16 706 l 16 755 l 134 755 q 257 778 203 755 q 350 839 312 802 q 409 924 389 877 q 429 1017 429 970 l 538 1017 l 538 755 l 756 755 l 756 706 l 538 706 l 538 288 q 546 170 538 216 q 568 98 553 124 q 603 63 583 73 q 647 54 623 54 q 693 65 671 54 q 732 99 715 75 q 760 160 749 122 q 770 252 770 197 q 769 279 770 265 q 767 308 768 293 l 824 308 q 826 246 826 274 q 803 108 826 161 q 736 25 779 55 q 630 -16 692 -5 q 491 -26 568 -26 q 338 -9 404 -26 q 226 44 271 7 q 157 140 180 81 q 134 281 134 198 l 134 706 z "},"u":{"ha":1295,"x_min":22,"x_max":1259,"o":"m 141 706 l 22 706 l 22 755 l 545 755 l 545 316 q 549 202 545 246 q 563 132 553 157 q 590 97 573 106 q 633 87 607 87 q 678 98 659 87 q 711 128 698 109 q 731 175 724 148 q 737 234 737 202 l 737 706 l 637 706 l 637 755 l 1141 755 l 1141 49 l 1259 49 l 1259 0 l 737 0 l 737 87 q 685 39 715 60 q 617 4 654 18 q 537 -18 580 -11 q 450 -26 495 -26 q 297 -2 357 -26 q 203 67 237 22 q 155 174 168 111 q 141 316 141 237 l 141 706 z "},"v":{"ha":1063,"x_min":-6,"x_max":1073,"o":"m 112 706 l -6 706 l -6 755 l 626 755 l 626 706 l 535 706 l 720 247 q 751 329 734 284 q 786 418 768 373 q 819 507 803 464 q 848 583 836 549 q 869 640 861 617 q 879 666 878 662 q 881 674 881 671 q 872 689 881 683 q 846 699 863 695 q 807 704 829 703 q 757 706 784 706 l 757 755 l 1073 755 l 1073 706 q 1022 704 1043 706 q 986 696 1000 701 q 962 683 971 691 q 948 663 953 675 q 931 622 943 652 q 903 549 920 591 q 868 456 887 507 q 828 351 848 405 q 788 243 808 296 q 750 142 768 189 q 720 58 733 96 q 699 0 706 21 l 408 0 l 112 706 z "},"w":{"ha":1582,"x_min":-6,"x_max":1592,"o":"m 112 706 l -6 706 l -6 755 l 600 755 l 600 706 l 541 706 l 665 273 l 763 621 l 733 706 l 647 706 l 647 755 l 1222 755 l 1222 706 l 1163 706 l 1287 273 q 1310 354 1298 311 q 1335 438 1322 396 q 1358 520 1347 481 q 1377 590 1369 559 q 1392 641 1386 621 q 1398 665 1397 661 q 1400 674 1400 671 q 1391 689 1400 683 q 1365 699 1381 695 q 1326 704 1349 703 q 1276 706 1303 706 l 1276 755 l 1592 755 l 1592 706 q 1541 704 1563 706 q 1505 696 1519 701 q 1481 683 1490 691 q 1467 663 1472 675 q 1452 623 1462 652 q 1430 552 1442 593 q 1401 461 1417 511 q 1371 358 1386 411 q 1339 252 1355 305 q 1310 151 1324 199 q 1286 64 1297 103 q 1269 0 1275 25 l 978 0 l 798 521 l 647 0 l 356 0 l 112 706 z "},"x":{"ha":1149,"x_min":0,"x_max":1149,"o":"m 0 49 q 51 52 30 49 q 85 60 71 55 q 109 74 100 66 q 125 92 117 81 l 352 403 l 151 706 l 32 706 l 32 755 l 684 755 l 684 706 l 593 706 l 762 452 q 793 495 777 473 q 827 541 810 518 q 859 585 843 564 q 886 623 874 606 q 907 651 899 640 q 917 666 915 663 q 920 674 920 671 q 910 689 920 683 q 885 699 901 695 q 845 704 868 703 q 795 706 823 706 l 795 755 l 1118 755 l 1118 706 q 1067 703 1088 706 q 1032 694 1046 700 q 1009 681 1018 689 q 993 663 1000 673 q 961 618 982 648 q 912 551 939 589 q 856 473 885 514 q 799 396 826 433 l 1030 49 l 1149 49 l 1149 0 l 497 0 l 497 49 l 587 49 l 389 347 q 356 304 375 329 q 318 252 338 279 q 278 197 298 224 q 242 148 258 170 q 215 109 226 125 q 201 89 203 93 q 199 84 199 86 q 199 81 199 83 q 208 66 199 72 q 234 56 217 60 q 273 51 250 52 q 323 49 296 49 l 323 0 l 0 0 l 0 49 z "},"y":{"ha":1065,"x_min":-6,"x_max":1073,"o":"m 18 -168 q 32 -118 18 -142 q 68 -78 45 -95 q 122 -50 91 -60 q 188 -40 153 -40 q 252 -50 222 -40 q 306 -75 283 -59 q 343 -114 330 -92 q 357 -162 357 -136 q 345 -208 357 -186 q 311 -241 333 -229 q 419 -204 372 -235 q 506 -119 467 -174 l 112 706 l -6 706 l -6 755 l 626 755 l 626 706 l 535 706 l 714 292 q 750 370 731 329 q 786 451 768 411 q 821 529 804 492 q 849 595 837 566 q 870 643 862 624 q 879 666 878 662 q 881 674 881 671 q 872 689 881 683 q 846 699 863 695 q 807 704 829 703 q 757 706 784 706 l 757 755 l 1073 755 l 1073 706 q 1022 704 1043 706 q 985 696 1000 701 q 962 683 970 691 q 948 663 953 675 q 930 622 945 656 q 890 534 915 587 q 835 412 866 480 q 768 269 804 343 q 696 118 733 194 q 625 -27 660 42 q 557 -142 592 -92 q 476 -226 522 -192 q 370 -278 431 -260 q 227 -296 310 -296 q 146 -290 184 -296 q 80 -268 109 -283 q 35 -229 52 -253 q 18 -168 18 -204 z "},"z":{"ha":1120,"x_min":71,"x_max":1029,"o":"m 71 49 l 559 706 l 320 706 q 300 692 313 706 q 274 657 288 679 q 244 608 260 635 q 215 553 229 581 q 189 500 201 526 q 171 458 178 475 l 105 458 l 105 755 l 1028 755 l 1028 706 l 545 49 l 795 49 q 822 63 807 49 q 854 101 838 78 q 888 152 871 123 q 920 207 905 180 q 946 258 935 235 q 964 296 958 282 l 1029 296 l 1029 0 l 71 0 l 71 49 z "},"{":{"ha":642,"x_min":95,"x_max":585,"o":"m 184 58 q 185 114 184 86 q 187 176 186 141 q 189 271 189 227 q 185 342 189 309 q 172 401 182 376 q 143 440 161 426 q 95 455 125 455 l 95 505 q 143 520 125 505 q 172 559 161 534 q 185 618 182 585 q 189 689 189 652 q 187 784 189 733 q 185 847 186 819 q 184 902 184 874 q 212 1019 184 976 q 291 1085 239 1063 q 417 1114 342 1107 q 585 1121 491 1121 l 585 1074 q 523 1067 547 1074 q 487 1042 500 1060 q 470 994 474 1024 q 465 916 465 963 q 466 856 465 884 q 468 798 467 827 q 470 735 469 762 q 471 680 471 709 q 452 600 471 634 q 404 541 433 566 q 336 502 374 517 q 260 480 298 487 q 336 458 298 473 q 404 419 374 444 q 452 360 433 395 q 471 281 471 326 q 470 225 471 252 q 468 162 469 198 q 466 105 467 134 q 465 45 465 76 q 470 -33 465 -3 q 487 -82 474 -64 q 523 -107 500 -100 q 585 -114 547 -114 l 585 -161 q 417 -154 491 -161 q 291 -125 342 -147 q 212 -59 239 -102 q 184 58 184 -16 z "},"|":{"ha":357,"x_min":144,"x_max":214,"o":"m 144 1237 l 214 1237 l 214 -400 l 144 -400 l 144 1237 z "},"}":{"ha":642,"x_min":57,"x_max":547,"o":"m 95 -114 q 155 -82 142 -100 q 172 -33 168 -64 q 176 45 176 -3 q 176 105 176 76 q 174 162 175 134 q 172 225 172 198 q 171 281 171 252 q 190 360 171 326 q 238 419 208 395 q 306 458 268 444 q 382 480 343 473 q 306 502 343 487 q 238 541 268 517 q 190 600 208 566 q 171 680 171 634 q 172 735 171 709 q 174 798 172 762 q 176 856 175 827 q 176 916 176 884 q 172 994 176 963 q 155 1042 168 1024 q 118 1067 142 1060 q 57 1074 95 1074 l 57 1121 q 225 1114 151 1121 q 351 1085 299 1107 q 430 1019 402 1063 q 457 902 457 976 q 456 847 457 874 q 454 784 456 819 q 452 689 452 733 q 456 618 452 652 q 470 559 460 585 q 498 520 480 534 q 547 505 517 505 l 547 455 q 498 440 517 455 q 470 401 480 426 q 456 342 460 376 q 452 271 452 309 q 454 176 452 227 q 456 114 456 141 q 457 58 457 86 q 430 -59 457 -16 q 351 -125 402 -102 q 225 -154 299 -147 q 57 -161 151 -161 l 57 -114 l 95 -114 z "},"~":{"ha":1009,"x_min":96,"x_max":913,"o":"m 96 474 q 148 523 117 498 q 217 566 180 547 q 294 596 254 585 q 372 608 334 608 q 452 596 416 608 q 524 569 488 584 q 594 545 557 555 q 675 534 630 534 q 781 545 728 534 q 883 571 834 555 l 913 534 q 861 486 892 510 q 792 443 829 462 q 714 412 755 424 q 637 401 674 401 q 555 413 592 401 q 482 441 519 425 q 414 464 450 454 q 334 474 378 474 q 228 464 281 474 q 126 437 175 453 l 96 474 z "},"":{"ha":618,"x_min":92,"x_max":526,"o":"m 317 351 q 245 365 279 351 q 187 404 212 379 q 148 462 162 429 q 134 534 134 496 q 148 604 134 571 q 187 663 162 637 q 245 702 212 688 q 317 716 279 716 q 387 702 354 716 q 446 663 420 688 q 485 604 471 637 q 499 534 499 571 q 485 462 499 496 q 446 404 471 429 q 387 365 420 379 q 317 351 354 351 m 92 -120 q 105 -36 92 -78 q 140 48 119 7 q 188 130 161 90 q 241 207 215 170 q 278 259 261 234 q 310 308 296 284 q 341 260 323 285 q 377 208 358 235 q 430 131 404 170 q 478 49 456 91 q 513 -35 499 7 q 526 -120 526 -77 q 509 -200 526 -166 q 462 -255 492 -233 q 393 -286 432 -276 q 310 -296 353 -296 q 226 -286 265 -296 q 157 -255 186 -276 q 110 -200 127 -233 q 92 -120 92 -166 z "},"":{"ha":1078,"x_min":60,"x_max":1023,"o":"m 60 385 q 96 547 60 473 q 196 672 132 620 q 346 752 259 724 q 535 781 433 781 l 545 781 l 545 884 l 614 884 l 614 778 q 793 748 717 771 q 921 694 870 726 q 997 624 972 662 q 1023 547 1023 585 q 1008 491 1023 517 q 967 446 993 465 q 908 415 942 427 q 836 404 874 404 q 762 415 796 404 q 702 446 727 427 q 661 491 676 465 q 646 547 646 517 q 660 599 646 574 q 696 643 673 624 q 751 674 720 662 q 819 688 783 686 q 728 709 772 702 q 650 717 684 717 q 632 716 641 717 q 614 714 623 715 l 614 43 q 626 42 620 42 q 637 42 631 42 q 745 56 694 42 q 834 97 795 71 q 901 160 874 123 q 937 243 927 197 l 1000 243 q 963 133 994 182 q 882 50 932 84 q 764 -4 831 15 q 614 -25 696 -23 l 614 -136 l 545 -136 l 545 -24 q 335 11 425 -19 q 183 94 244 41 q 91 219 122 146 q 60 385 60 292 m 545 684 q 512 643 526 669 q 489 581 498 618 q 476 493 480 543 q 471 377 471 443 q 475 254 471 307 q 489 164 479 202 q 511 103 498 127 q 545 65 525 79 l 545 684 z "},"":{"ha":1244,"x_min":90,"x_max":1168,"o":"m 90 127 q 104 188 90 162 q 143 231 119 214 q 198 257 167 248 q 262 265 229 265 q 298 264 279 265 q 339 262 317 263 l 304 317 l 111 317 l 111 387 l 262 387 q 243 424 252 405 q 224 463 233 443 l 111 463 l 111 533 l 201 533 q 188 594 193 563 q 183 659 183 625 q 200 769 183 720 q 247 853 216 817 q 319 915 277 890 q 412 957 361 941 q 521 980 463 972 q 640 987 578 987 q 857 969 761 987 q 1021 918 954 951 q 1125 838 1088 885 q 1161 730 1161 790 q 1143 662 1161 692 q 1095 613 1124 633 q 1028 583 1065 593 q 954 572 991 572 q 874 585 911 572 q 808 618 836 597 q 764 668 781 640 q 748 729 748 696 q 762 788 748 760 q 800 837 775 816 q 859 869 824 857 q 936 881 893 881 q 966 879 951 881 q 996 873 981 878 q 890 907 954 893 q 760 920 827 920 q 676 908 709 920 q 624 874 643 896 q 597 824 604 853 q 589 762 589 795 q 590 696 589 726 q 593 640 591 667 q 598 587 595 613 q 604 533 601 562 l 829 533 l 829 463 l 608 463 q 609 438 609 451 q 609 410 609 425 q 609 398 609 404 q 608 387 609 392 l 829 387 l 829 317 l 602 317 q 594 277 599 296 q 584 239 589 258 q 698 231 642 234 q 808 227 755 227 q 905 230 855 227 q 998 242 955 233 q 1073 271 1041 252 q 1118 321 1105 290 l 1162 321 q 1166 275 1164 298 q 1168 233 1168 253 q 1154 125 1168 173 q 1107 44 1139 77 q 1025 -8 1076 10 q 901 -26 974 -26 q 793 -15 846 -26 q 692 14 741 -4 q 597 54 643 32 q 511 100 552 77 q 408 5 461 36 q 287 -26 355 -26 q 204 -14 241 -26 q 142 18 168 -2 q 103 66 117 39 q 90 127 90 94 m 197 128 q 206 85 197 103 q 229 54 214 66 q 261 36 243 42 q 299 31 279 31 q 337 36 319 31 q 371 54 356 42 q 395 82 386 65 q 404 122 404 100 q 392 169 404 145 q 329 201 357 189 q 281 214 301 214 q 249 208 264 214 q 222 190 234 201 q 204 163 211 179 q 197 128 197 148 z "},"":{"ha":937,"x_min":84,"x_max":853,"o":"m 216 170 q 162 266 182 213 q 142 378 142 318 q 161 487 142 435 q 213 581 180 538 l 84 710 l 132 759 l 261 629 q 356 684 304 665 q 469 704 409 704 q 581 684 528 704 q 675 629 633 665 l 805 759 l 853 710 l 724 581 q 776 487 758 538 q 795 378 795 435 q 775 266 795 318 q 720 170 755 213 l 853 38 l 805 -10 l 671 122 q 578 70 629 89 q 469 52 526 52 q 359 70 410 52 q 265 123 307 89 l 132 -10 l 84 38 l 216 170 m 210 378 q 231 277 210 324 q 286 195 251 230 q 368 140 321 160 q 469 119 415 119 q 569 140 522 119 q 651 195 616 160 q 707 277 686 230 q 727 378 727 324 q 707 478 727 431 q 651 560 686 525 q 569 616 616 595 q 469 636 522 636 q 368 616 415 636 q 286 560 321 595 q 231 478 251 525 q 210 378 210 431 z "},"":{"ha":1200,"x_min":-3,"x_max":1211,"o":"m 222 222 l 393 222 l 393 302 l 222 302 l 222 372 l 381 372 l 101 908 l -3 908 l -3 961 l 721 961 l 721 908 l 598 908 l 820 420 l 1023 866 q 1024 872 1024 869 q 1025 878 1025 876 q 1016 892 1025 886 q 990 901 1006 898 q 951 906 974 905 q 901 908 928 908 l 901 961 l 1211 961 l 1211 908 q 1160 906 1181 908 q 1127 900 1140 905 q 1106 887 1114 895 q 1092 866 1098 879 l 864 372 l 1029 372 l 1029 302 l 861 302 l 861 222 l 1029 222 l 1029 153 l 861 153 l 861 54 l 979 54 l 979 0 l 274 0 l 274 54 l 393 54 l 393 153 l 222 153 l 222 222 z "},"":{"ha":357,"x_min":144,"x_max":214,"o":"m 144 1237 l 214 1237 l 214 481 l 144 481 l 144 1237 m 214 355 l 214 -400 l 144 -400 l 144 355 l 214 355 z "},"":{"ha":1006,"x_min":92,"x_max":915,"o":"m 94 43 q 104 84 94 64 q 133 117 115 103 q 175 140 151 132 q 229 149 199 149 q 281 140 257 149 q 323 117 306 132 q 351 84 341 103 q 361 43 361 64 q 358 19 361 31 q 346 -6 354 6 q 326 -29 338 -18 q 296 -46 313 -39 q 330 -57 307 -52 q 383 -66 353 -62 q 449 -74 413 -71 q 524 -77 486 -77 q 671 -55 618 -77 q 724 1 724 -33 q 704 40 724 22 q 649 71 684 57 q 570 98 615 85 q 475 121 525 110 q 317 159 388 139 q 197 208 247 178 q 119 282 146 237 q 92 395 92 326 q 104 470 92 433 q 139 537 116 506 q 196 595 162 569 q 271 640 229 621 q 169 725 203 675 q 134 854 134 776 q 164 970 134 919 q 245 1057 193 1021 q 367 1112 297 1093 q 518 1131 437 1131 q 656 1118 592 1131 q 767 1082 720 1105 q 841 1030 814 1060 q 867 966 867 1000 q 858 925 867 944 q 832 891 849 905 q 792 869 815 877 q 739 861 768 861 q 686 869 711 861 q 644 891 661 877 q 616 925 626 905 q 606 966 606 944 q 610 990 606 977 q 623 1015 614 1003 q 647 1037 633 1027 q 684 1050 662 1046 q 655 1063 672 1057 q 616 1072 637 1068 q 569 1078 594 1076 q 519 1080 545 1080 q 440 1074 478 1080 q 373 1055 402 1067 q 327 1026 345 1043 q 309 986 309 1008 q 327 945 309 963 q 378 913 345 927 q 455 887 410 899 q 553 865 500 876 q 699 828 633 849 q 812 775 765 807 q 885 697 859 743 q 911 585 911 651 q 873 453 911 509 q 767 363 835 397 q 830 326 802 347 q 876 277 857 304 q 905 214 895 250 q 915 134 915 179 q 885 19 915 69 q 802 -66 855 -32 q 674 -118 748 -100 q 511 -136 600 -136 q 419 -132 463 -136 q 336 -120 376 -127 q 264 -102 297 -112 q 204 -81 231 -92 q 122 -26 149 -58 q 94 43 94 7 m 298 552 q 317 514 298 532 q 370 482 336 497 q 451 454 404 467 q 557 427 499 440 q 620 412 590 420 q 678 396 650 405 q 708 417 697 405 q 719 447 719 429 q 699 487 719 469 q 646 518 680 504 q 567 545 612 532 q 471 570 522 557 q 342 608 400 587 q 310 585 321 599 q 298 552 298 572 z "},"":{"ha":638,"x_min":7,"x_max":631,"o":"m 513 892 q 467 902 488 892 q 429 927 445 911 q 404 965 413 943 q 395 1010 395 986 q 404 1057 395 1035 q 429 1095 413 1078 q 467 1120 445 1111 q 513 1129 488 1129 q 559 1120 538 1129 q 597 1095 581 1111 q 622 1057 613 1078 q 631 1010 631 1035 q 622 965 631 986 q 597 927 613 943 q 559 902 581 911 q 513 892 538 892 m 125 892 q 79 902 101 892 q 41 927 58 911 q 16 965 25 943 q 7 1010 7 986 q 16 1057 7 1035 q 41 1095 25 1078 q 79 1120 58 1111 q 125 1129 101 1129 q 172 1120 150 1129 q 209 1095 193 1111 q 234 1057 225 1078 q 243 1010 243 1035 q 234 965 243 986 q 209 927 225 943 q 172 902 193 911 q 125 892 150 892 z "},"":{"ha":1213,"x_min":100,"x_max":1113,"o":"m 100 480 q 118 615 100 550 q 169 736 136 680 q 249 838 202 792 q 351 918 295 884 q 472 969 407 951 q 606 987 536 987 q 741 969 676 987 q 862 918 806 951 q 964 838 918 884 q 1044 736 1010 792 q 1095 615 1077 680 q 1113 480 1113 550 q 1095 346 1113 410 q 1044 225 1077 281 q 964 122 1010 169 q 862 43 918 76 q 741 -8 806 10 q 606 -26 676 -26 q 409 14 501 -26 q 249 122 317 54 q 140 283 180 191 q 100 480 100 375 m 163 480 q 179 362 163 419 q 224 257 195 306 q 293 167 253 208 q 383 98 334 127 q 489 53 432 69 q 606 37 545 37 q 724 53 667 37 q 830 98 781 69 q 919 167 879 127 q 988 257 960 208 q 1033 362 1017 306 q 1049 480 1049 419 q 1033 598 1049 541 q 988 704 1017 654 q 919 793 960 753 q 830 862 879 833 q 724 907 781 891 q 606 923 667 923 q 489 907 545 923 q 383 862 432 891 q 293 793 334 833 q 224 704 253 753 q 179 598 195 654 q 163 480 163 541 m 269 460 q 291 588 269 529 q 357 691 313 648 q 468 759 401 734 q 623 783 534 783 q 687 777 654 783 q 750 759 720 771 q 808 730 781 747 q 856 689 835 712 l 888 741 l 923 741 l 923 508 l 877 508 q 839 616 862 574 q 787 683 815 659 q 728 718 759 708 q 667 727 697 727 q 626 719 646 727 q 588 685 605 710 q 562 616 572 661 q 551 498 551 571 q 561 368 551 420 q 587 284 570 315 q 628 241 604 254 q 684 228 652 228 q 754 238 720 228 q 813 274 787 249 q 857 340 840 299 q 878 443 873 382 l 928 443 q 907 334 924 385 q 853 246 890 283 q 760 186 817 208 q 621 165 703 165 q 476 186 541 165 q 365 247 411 208 q 294 340 319 286 q 269 460 269 395 z "},"":{"ha":808,"x_min":107,"x_max":741,"o":"m 271 458 q 195 468 227 458 q 144 496 163 479 q 116 534 125 513 q 107 579 107 556 q 132 650 107 623 q 198 693 156 677 q 297 713 240 708 q 418 718 353 718 l 418 733 q 412 809 418 781 q 394 852 406 838 q 365 870 382 866 q 323 874 347 874 q 290 872 310 874 q 253 867 269 871 q 311 848 289 864 q 334 806 334 833 q 326 776 334 790 q 303 752 317 762 q 271 735 290 741 q 231 729 252 729 q 191 735 210 729 q 158 752 172 741 q 136 776 144 762 q 128 806 128 790 q 154 857 128 836 q 219 892 179 878 q 310 912 260 905 q 410 919 360 919 q 514 911 470 919 q 587 882 558 903 q 631 825 616 861 q 646 733 646 789 l 646 573 q 652 529 646 544 q 673 513 658 513 q 687 518 682 513 q 695 532 692 524 q 699 551 698 541 q 700 574 700 562 l 700 612 l 741 612 l 741 574 q 733 524 741 545 q 707 487 725 502 q 660 465 689 473 q 589 458 631 458 q 535 460 560 458 q 489 468 509 462 q 453 485 468 474 q 429 513 437 496 q 398 485 418 496 q 357 468 379 474 q 312 460 335 462 q 271 458 290 458 m 372 520 q 405 535 392 520 q 418 573 418 549 l 418 677 q 373 672 390 677 q 345 655 355 667 q 331 627 335 644 q 328 583 328 609 q 338 537 328 555 q 372 520 349 520 z "},"":{"ha":1032,"x_min":27,"x_max":985,"o":"m 956 739 l 985 711 l 688 377 l 985 43 l 956 15 l 400 377 l 956 739 m 583 739 l 612 711 l 315 377 l 612 43 l 583 15 l 27 377 l 583 739 z "},"":{"ha":857,"x_min":142,"x_max":749,"o":"m 142 755 l 749 755 l 749 419 l 665 419 l 665 671 l 142 671 l 142 755 z "},"":{"ha":729,"x_min":61,"x_max":668,"o":"m 61 485 l 668 485 l 668 401 l 61 401 l 61 485 z "},"":{"ha":1213,"x_min":100,"x_max":1113,"o":"m 100 480 q 118 615 100 550 q 169 736 136 680 q 249 838 202 792 q 351 918 295 884 q 472 969 407 951 q 606 987 536 987 q 741 969 676 987 q 862 918 806 951 q 964 838 918 884 q 1044 736 1010 792 q 1095 615 1077 680 q 1113 480 1113 550 q 1095 346 1113 410 q 1044 225 1077 281 q 964 122 1010 169 q 862 43 918 76 q 741 -8 806 10 q 606 -26 676 -26 q 409 14 501 -26 q 249 122 317 54 q 140 283 180 191 q 100 480 100 375 m 163 480 q 179 362 163 419 q 224 257 195 306 q 293 167 253 208 q 383 98 334 127 q 489 53 432 69 q 606 37 545 37 q 724 53 667 37 q 830 98 781 69 q 919 167 879 127 q 988 257 960 208 q 1033 362 1017 306 q 1049 480 1049 419 q 1033 598 1049 541 q 988 704 1017 654 q 919 793 960 753 q 830 862 879 833 q 724 907 781 891 q 606 923 667 923 q 489 907 545 923 q 383 862 432 891 q 293 793 334 833 q 224 704 253 753 q 179 598 195 654 q 163 480 163 541 m 305 235 l 351 235 l 351 731 l 305 731 l 305 777 l 692 777 q 856 734 800 777 q 911 616 911 691 q 900 562 911 587 q 863 518 890 537 q 788 489 836 500 q 668 477 741 478 q 783 468 736 476 q 857 444 829 460 q 896 403 884 427 q 908 347 908 379 q 908 331 908 338 q 907 309 908 323 q 906 294 906 301 q 906 280 906 288 q 909 248 906 262 q 920 229 911 234 l 920 191 q 876 175 903 180 q 817 170 848 170 q 744 179 772 170 q 697 206 715 187 q 673 255 680 224 q 667 328 667 285 q 664 397 667 371 q 652 437 661 422 q 631 456 644 451 q 597 460 617 460 l 597 189 l 305 189 l 305 235 m 597 507 q 633 511 619 507 q 656 525 648 514 q 668 558 665 536 q 671 616 671 580 q 668 676 671 653 q 656 711 665 699 q 633 727 648 723 q 597 731 619 731 l 597 507 z "},"":{"ha":638,"x_min":16,"x_max":623,"o":"m 16 987 l 623 987 l 623 876 l 16 876 l 16 987 z "},"":{"ha":648,"x_min":81,"x_max":567,"o":"m 324 580 q 230 599 274 580 q 152 651 185 618 q 100 729 119 684 q 81 823 81 773 q 100 918 81 873 q 152 995 119 962 q 230 1047 185 1028 q 324 1066 274 1066 q 419 1047 374 1066 q 496 995 463 1028 q 548 918 529 962 q 567 823 567 873 q 548 729 567 773 q 496 651 529 684 q 419 599 463 618 q 324 580 374 580 m 324 690 q 376 701 351 690 q 418 729 400 711 q 447 771 437 747 q 458 823 458 795 q 447 875 458 850 q 418 917 437 899 q 376 946 400 935 q 324 956 351 956 q 273 946 297 956 q 231 917 249 935 q 202 875 212 899 q 191 823 191 850 q 202 771 191 795 q 231 729 212 747 q 273 701 249 711 q 324 690 297 690 z "},"":{"ha":728,"x_min":60,"x_max":667,"o":"m 321 401 l 60 401 l 60 485 l 321 485 l 321 746 l 406 746 l 406 485 l 667 485 l 667 401 l 406 401 l 406 139 l 321 139 l 321 401 m 60 84 l 667 84 l 667 0 l 60 0 l 60 84 z "},"":{"ha":753,"x_min":102,"x_max":656,"o":"m 113 534 q 175 589 142 559 q 239 652 208 619 q 299 720 271 685 q 349 789 328 754 q 384 857 371 823 q 396 922 396 891 q 389 965 396 949 q 370 990 382 981 q 343 1003 359 1000 q 311 1006 328 1006 q 283 1004 296 1006 q 329 971 312 992 q 347 924 347 949 q 337 887 347 904 q 311 857 328 870 q 271 837 294 844 q 224 830 249 830 q 176 837 198 830 q 137 857 154 844 q 111 887 121 870 q 102 924 102 904 q 120 973 102 951 q 172 1009 138 995 q 252 1032 205 1024 q 356 1040 298 1040 q 458 1031 407 1040 q 550 1003 509 1022 q 617 952 591 983 q 642 876 642 921 q 616 797 642 830 q 545 740 589 763 q 443 701 501 716 q 321 677 385 686 q 319 667 319 673 l 317 659 l 591 659 q 608 687 600 671 q 619 715 616 703 l 656 714 l 628 488 l 113 488 l 113 534 z "},"":{"ha":716,"x_min":95,"x_max":640,"o":"m 274 517 q 292 515 283 516 q 309 515 300 515 q 347 520 330 515 q 378 538 365 526 q 398 570 391 550 q 405 620 405 590 q 395 670 405 648 q 367 708 385 692 q 324 731 349 723 q 271 742 299 740 l 271 780 q 322 793 298 783 q 365 822 347 804 q 395 864 384 840 q 406 915 406 887 q 398 959 406 942 q 377 987 390 977 q 346 1001 363 997 q 310 1005 329 1005 q 285 1004 298 1005 q 258 1000 273 1004 q 291 988 275 996 q 317 969 306 980 q 335 944 328 958 q 341 915 341 930 q 332 880 341 896 q 306 851 322 863 q 268 832 290 839 q 222 825 246 825 q 174 832 196 825 q 137 851 153 839 q 112 880 121 863 q 102 915 102 896 q 120 965 102 942 q 170 1005 138 988 q 249 1030 203 1021 q 352 1040 295 1040 q 446 1032 398 1040 q 534 1007 494 1024 q 598 963 573 990 q 623 899 623 937 q 553 797 623 831 q 349 762 484 763 q 465 756 412 761 q 557 736 519 751 q 618 697 596 722 q 640 633 640 673 q 620 566 640 594 q 564 518 600 537 q 476 491 527 500 q 364 481 425 481 q 254 489 304 481 q 169 510 205 496 q 114 545 134 524 q 95 595 95 566 q 104 630 95 614 q 129 659 113 647 q 167 679 145 671 q 214 686 189 686 q 261 679 239 686 q 299 659 283 671 q 325 630 315 647 q 334 595 334 614 q 317 549 334 570 q 274 517 301 529 z "},"":{"ha":638,"x_min":87,"x_max":551,"o":"m 87 916 q 100 926 91 918 q 125 947 110 934 q 170 985 144 963 q 224 1030 195 1007 q 282 1078 253 1054 q 337 1121 311 1101 q 382 1156 362 1141 q 412 1177 401 1171 q 435 1186 423 1183 q 458 1189 446 1189 q 493 1181 477 1189 q 523 1159 510 1173 q 543 1127 536 1145 q 551 1090 551 1109 q 540 1048 551 1068 q 505 1015 529 1028 q 473 999 496 1009 q 421 977 451 989 q 357 951 391 965 q 288 925 322 938 q 221 901 253 912 q 166 881 190 889 q 137 870 149 875 q 121 864 125 866 l 87 916 z "},"":{"ha":1295,"x_min":144,"x_max":1266,"o":"m 144 755 l 548 755 q 537 503 541 618 q 533 281 533 388 q 543 183 533 221 q 569 123 553 145 q 605 94 585 102 q 644 86 625 86 q 686 98 668 86 q 717 129 705 109 q 735 176 729 149 q 741 234 741 203 l 741 755 l 1144 755 l 1144 95 q 1152 74 1144 80 q 1169 67 1159 67 q 1187 74 1179 67 q 1199 97 1194 81 q 1207 139 1204 113 q 1209 205 1209 165 l 1266 205 l 1266 182 q 1251 74 1266 115 q 1204 11 1236 33 q 1121 -19 1172 -12 q 998 -26 1069 -26 q 900 -18 941 -26 q 830 3 859 -11 q 783 39 801 18 q 756 89 766 60 q 742 54 751 70 q 718 25 732 37 q 685 6 704 13 q 640 -1 665 -1 q 530 75 565 -1 l 548 -345 l 144 -345 l 144 755 z "},"":{"ha":943,"x_min":58,"x_max":878,"o":"m 702 961 l 878 961 l 878 908 l 760 908 l 760 -150 l 878 -150 l 878 -203 l 702 -203 l 702 961 m 563 -150 l 563 298 l 414 298 q 264 322 330 298 q 152 389 198 346 q 82 493 106 433 q 58 627 58 554 q 82 753 58 692 q 152 860 106 813 q 264 933 197 906 q 414 961 330 961 l 625 961 l 625 -203 l 445 -203 l 445 -150 l 563 -150 z "},"":{"ha":551,"x_min":93,"x_max":458,"o":"m 276 245 q 205 260 238 245 q 146 299 172 274 q 107 357 121 324 q 93 428 93 390 q 107 499 93 466 q 146 558 121 533 q 205 597 172 583 q 276 611 238 611 q 347 597 313 611 q 405 558 380 583 q 444 499 430 533 q 458 428 458 466 q 444 357 458 390 q 405 299 430 324 q 347 260 380 274 q 276 245 313 245 z "},"":{"ha":638,"x_min":77,"x_max":565,"o":"m 299 0 l 299 -127 q 365 -106 331 -112 q 425 -100 398 -100 q 481 -109 456 -100 q 526 -133 507 -117 q 555 -170 545 -149 q 565 -216 565 -191 q 518 -315 565 -279 q 373 -352 471 -352 q 279 -345 324 -352 q 196 -326 234 -338 q 127 -301 157 -315 q 77 -273 97 -287 l 94 -236 q 127 -251 105 -243 q 176 -268 149 -260 q 232 -280 203 -275 q 287 -286 261 -286 q 322 -283 306 -286 q 349 -273 338 -280 q 367 -254 361 -266 q 374 -222 374 -241 q 357 -180 374 -195 q 317 -165 341 -165 q 300 -166 309 -165 q 283 -172 291 -168 l 249 -172 l 249 0 l 299 0 z "},"":{"ha":567,"x_min":102,"x_max":503,"o":"m 102 528 l 187 528 l 187 922 l 102 922 l 102 965 q 175 970 138 965 q 248 984 213 975 q 312 1004 282 993 q 364 1029 342 1016 l 419 1029 l 419 528 l 503 528 l 503 488 l 102 488 l 102 528 z "},"":{"ha":776,"x_min":95,"x_max":681,"o":"m 388 458 q 168 516 240 458 q 95 688 95 574 q 168 861 95 802 q 388 919 240 919 q 608 860 535 919 q 681 688 681 802 q 608 516 681 574 q 388 458 535 458 m 388 489 q 413 497 403 489 q 430 528 424 506 q 439 589 437 551 q 442 688 442 627 q 439 787 442 748 q 430 848 437 826 q 413 879 424 871 q 388 888 403 888 q 363 879 373 888 q 346 848 353 871 q 337 787 340 826 q 334 688 334 748 q 337 589 334 627 q 346 528 340 551 q 363 497 353 506 q 388 489 373 489 z "},"":{"ha":1032,"x_min":47,"x_max":1005,"o":"m 718 377 l 420 711 l 450 739 l 1005 377 l 450 15 l 420 43 l 718 377 m 345 377 l 47 711 l 77 739 l 632 377 l 77 15 l 47 43 l 345 377 z "},"":{"ha":1326,"x_min":81,"x_max":1254,"o":"m 81 460 l 167 460 l 167 854 l 81 854 l 81 897 q 155 902 117 897 q 227 916 193 907 q 292 937 262 925 q 344 961 322 948 l 399 961 l 399 460 l 483 460 l 483 420 l 81 420 l 81 460 m 1135 957 l 1187 903 l 299 16 l 245 68 l 1135 957 m 707 169 l 1013 541 l 1174 541 l 1174 169 l 1254 169 l 1254 133 l 1174 133 l 1174 40 l 1240 40 l 1240 0 l 876 0 l 876 40 l 942 40 l 942 133 l 707 133 l 707 169 m 942 169 l 942 373 l 777 169 l 942 169 z "},"":{"ha":1464,"x_min":68,"x_max":1367,"o":"m 68 460 l 153 460 l 153 854 l 68 854 l 68 897 q 141 902 104 897 q 214 916 179 907 q 278 937 248 925 q 330 961 309 948 l 385 961 l 385 460 l 469 460 l 469 420 l 68 420 l 68 460 m 1112 957 l 1164 903 l 276 16 l 222 68 l 1112 957 m 823 45 q 886 101 853 71 q 950 164 919 131 q 1010 231 981 197 q 1060 300 1038 266 q 1094 369 1082 335 q 1107 434 1107 403 q 1100 477 1107 460 q 1081 502 1093 493 q 1054 514 1069 511 q 1021 517 1038 517 q 994 515 1007 517 q 1040 483 1023 504 q 1057 435 1057 461 q 1048 399 1057 416 q 1021 369 1038 382 q 982 349 1004 356 q 935 342 960 342 q 887 349 909 342 q 848 369 865 356 q 822 399 831 382 q 812 435 812 416 q 831 485 812 463 q 882 521 849 507 q 962 544 916 536 q 1067 551 1009 551 q 1169 543 1118 551 q 1261 514 1220 534 q 1328 464 1302 495 q 1353 388 1353 433 q 1326 308 1353 342 q 1256 251 1300 275 q 1154 213 1212 228 q 1032 189 1096 198 q 1029 179 1030 185 l 1028 171 l 1301 171 q 1318 199 1310 182 q 1330 227 1326 215 l 1367 226 l 1339 0 l 823 0 l 823 45 z "},"":{"ha":1410,"x_min":95,"x_max":1337,"o":"m 274 450 q 292 448 283 448 q 309 447 300 447 q 347 452 330 447 q 378 470 365 458 q 398 502 391 482 q 405 552 405 522 q 395 603 405 581 q 367 640 385 625 q 324 664 349 655 q 271 674 299 672 l 271 712 q 322 726 298 715 q 365 754 347 736 q 395 796 384 772 q 406 847 406 819 q 398 891 406 874 q 377 919 390 909 q 346 933 363 929 q 310 937 329 937 q 285 937 298 937 q 258 932 273 936 q 291 920 275 928 q 317 901 306 912 q 335 876 328 890 q 341 847 341 862 q 332 812 341 828 q 306 783 322 795 q 268 764 290 771 q 222 757 246 757 q 174 764 196 757 q 137 783 153 771 q 112 812 121 795 q 102 847 102 828 q 120 897 102 874 q 170 937 138 920 q 249 963 203 954 q 352 972 295 972 q 446 964 398 972 q 534 939 494 956 q 598 896 573 922 q 623 831 623 869 q 553 729 623 764 q 349 694 484 695 q 465 688 412 693 q 557 669 519 683 q 618 630 596 654 q 640 566 640 605 q 620 498 640 526 q 564 451 600 469 q 476 423 527 432 q 364 414 425 414 q 254 421 304 414 q 169 442 205 428 q 114 477 134 456 q 95 527 95 498 q 104 563 95 546 q 129 591 113 579 q 167 611 145 604 q 214 618 189 618 q 261 611 239 618 q 299 591 283 604 q 325 563 315 579 q 334 527 334 546 q 317 481 334 502 q 274 450 301 461 m 1211 957 l 1263 903 l 376 16 l 322 68 l 1211 957 m 790 169 l 1096 541 l 1257 541 l 1257 169 l 1337 169 l 1337 133 l 1257 133 l 1257 40 l 1323 40 l 1323 0 l 960 0 l 960 40 l 1025 40 l 1025 133 l 790 133 l 790 169 m 1025 169 l 1025 373 l 861 169 l 1025 169 z "},"":{"ha":1046,"x_min":52,"x_max":995,"o":"m 524 351 q 453 365 486 351 q 395 404 420 379 q 356 462 370 429 q 342 534 342 496 q 356 604 342 571 q 395 663 370 637 q 453 702 420 688 q 524 716 486 716 q 595 702 562 716 q 654 663 629 688 q 693 604 679 637 q 707 534 707 571 q 693 462 707 496 q 654 404 679 429 q 595 365 629 379 q 524 351 562 351 m 52 -24 q 72 68 52 28 q 126 136 92 107 q 205 185 161 165 q 298 221 250 206 q 394 248 346 237 q 485 270 443 260 q 559 293 527 281 q 608 321 591 304 q 597 253 608 288 q 570 182 586 218 q 535 109 554 146 q 501 35 517 72 q 474 -39 485 -2 q 463 -113 463 -77 q 502 -209 463 -173 q 613 -244 541 -244 q 667 -241 636 -244 q 728 -231 698 -237 q 661 -209 692 -224 q 607 -173 629 -194 q 571 -125 584 -151 q 558 -68 558 -98 q 575 -4 558 -34 q 622 49 593 26 q 692 84 652 71 q 777 97 732 97 q 862 84 822 97 q 931 49 902 71 q 978 -4 961 26 q 995 -68 995 -34 q 963 -164 995 -122 q 869 -236 931 -207 q 717 -281 808 -265 q 509 -296 626 -296 q 341 -280 423 -296 q 195 -231 259 -264 q 91 -146 130 -198 q 52 -24 52 -95 z "},"":{"ha":1283,"x_min":-10,"x_max":1286,"o":"m 372 1130 q 329 1164 342 1141 q 315 1213 315 1187 q 321 1250 315 1232 q 340 1282 328 1268 q 369 1305 353 1297 q 406 1314 386 1314 q 424 1312 415 1314 q 442 1307 433 1310 q 473 1291 452 1302 q 520 1265 494 1280 q 578 1233 547 1251 q 641 1197 610 1215 q 701 1161 672 1179 q 754 1131 730 1144 q 793 1108 777 1117 q 812 1097 808 1099 l 796 1050 q 770 1055 791 1051 q 718 1063 749 1058 q 656 1074 690 1068 q 587 1085 622 1079 q 518 1098 552 1091 q 454 1110 484 1104 q 404 1121 425 1116 q 372 1130 382 1126 m -10 54 q 74 61 45 54 q 112 88 104 68 l 461 961 l 759 961 l 1168 54 l 1286 54 l 1286 0 l 517 0 l 517 54 l 648 54 l 554 288 l 256 288 l 176 90 q 176 85 176 88 q 185 70 176 75 q 211 60 194 64 q 250 55 227 56 q 300 54 273 54 l 300 0 l -10 0 l -10 54 m 533 341 l 402 661 l 277 341 l 533 341 z "},"":{"ha":1283,"x_min":-10,"x_max":1286,"o":"m 406 1097 q 425 1108 410 1099 q 464 1131 441 1117 q 516 1161 487 1144 q 577 1197 546 1179 q 640 1233 608 1215 q 697 1265 671 1251 q 745 1291 724 1280 q 776 1307 766 1302 q 794 1312 785 1310 q 812 1314 803 1314 q 848 1305 831 1314 q 877 1282 865 1297 q 896 1250 889 1268 q 903 1213 903 1232 q 889 1164 903 1187 q 846 1130 876 1141 q 814 1121 836 1126 q 764 1110 793 1116 q 700 1098 734 1104 q 631 1085 666 1091 q 562 1074 596 1079 q 500 1063 528 1068 q 448 1055 469 1058 q 422 1050 427 1051 l 406 1097 m -10 54 q 74 61 45 54 q 112 88 104 68 l 461 961 l 759 961 l 1168 54 l 1286 54 l 1286 0 l 517 0 l 517 54 l 648 54 l 554 288 l 256 288 l 176 90 q 176 85 176 88 q 185 70 176 75 q 211 60 194 64 q 250 55 227 56 q 300 54 273 54 l 300 0 l -10 0 l -10 54 m 533 341 l 402 661 l 277 341 l 533 341 z "},"":{"ha":1283,"x_min":-10,"x_max":1286,"o":"m 272 1072 l 609 1314 l 946 1072 l 907 1020 l 609 1120 l 311 1020 l 272 1072 m -10 54 q 74 61 45 54 q 112 88 104 68 l 461 961 l 759 961 l 1168 54 l 1286 54 l 1286 0 l 517 0 l 517 54 l 648 54 l 554 288 l 256 288 l 176 90 q 176 85 176 88 q 185 70 176 75 q 211 60 194 64 q 250 55 227 56 q 300 54 273 54 l 300 0 l -10 0 l -10 54 m 533 341 l 402 661 l 277 341 l 533 341 z "},"":{"ha":1283,"x_min":-10,"x_max":1286,"o":"m 253 1082 q 272 1163 257 1126 q 312 1226 288 1200 q 372 1267 337 1253 q 449 1282 406 1282 q 533 1268 490 1282 q 621 1238 576 1255 q 705 1210 663 1222 q 788 1197 747 1197 q 861 1212 826 1197 q 929 1265 897 1227 l 966 1242 q 947 1161 962 1198 q 907 1098 932 1124 q 848 1057 882 1072 q 770 1042 813 1042 q 694 1054 734 1042 q 614 1081 654 1065 q 522 1113 568 1099 q 431 1127 476 1127 q 357 1112 393 1127 q 290 1059 322 1097 l 253 1082 m -10 54 q 74 61 45 54 q 112 88 104 68 l 461 961 l 759 961 l 1168 54 l 1286 54 l 1286 0 l 517 0 l 517 54 l 648 54 l 554 288 l 256 288 l 176 90 q 176 85 176 88 q 185 70 176 75 q 211 60 194 64 q 250 55 227 56 q 300 54 273 54 l 300 0 l -10 0 l -10 54 m 533 341 l 402 661 l 277 341 l 533 341 z "},"":{"ha":1283,"x_min":-10,"x_max":1286,"o":"m 804 1033 q 757 1042 779 1033 q 719 1067 735 1051 q 694 1105 703 1084 q 685 1151 685 1126 q 694 1197 685 1175 q 719 1235 703 1219 q 757 1260 735 1251 q 804 1270 779 1270 q 849 1260 828 1270 q 887 1235 871 1251 q 912 1197 903 1219 q 922 1151 922 1175 q 912 1105 922 1126 q 887 1067 903 1084 q 849 1042 871 1051 q 804 1033 828 1033 m 416 1033 q 370 1042 391 1033 q 332 1067 348 1051 q 306 1105 315 1084 q 297 1151 297 1126 q 306 1197 297 1175 q 332 1235 315 1219 q 370 1260 348 1251 q 416 1270 391 1270 q 462 1260 440 1270 q 499 1235 484 1251 q 525 1197 515 1219 q 534 1151 534 1175 q 525 1105 534 1126 q 499 1067 515 1084 q 462 1042 484 1051 q 416 1033 440 1033 m -10 54 q 74 61 45 54 q 112 88 104 68 l 461 961 l 759 961 l 1168 54 l 1286 54 l 1286 0 l 517 0 l 517 54 l 648 54 l 554 288 l 256 288 l 176 90 q 176 85 176 88 q 185 70 176 75 q 211 60 194 64 q 250 55 227 56 q 300 54 273 54 l 300 0 l -10 0 l -10 54 m 533 341 l 402 661 l 277 341 l 533 341 z "},"":{"ha":1283,"x_min":-10,"x_max":1286,"o":"m -10 54 q 74 61 45 54 q 112 88 104 68 l 461 961 l 553 961 q 532 968 543 964 q 480 1004 503 981 q 445 1056 458 1026 q 432 1120 432 1086 q 445 1184 432 1154 q 480 1236 458 1214 q 533 1272 503 1259 q 597 1284 563 1284 q 661 1272 631 1284 q 713 1236 690 1259 q 748 1184 735 1214 q 761 1120 761 1154 q 748 1056 761 1086 q 713 1004 735 1026 q 661 968 690 981 q 639 961 650 964 l 759 961 l 1168 54 l 1286 54 l 1286 0 l 517 0 l 517 54 l 648 54 l 554 288 l 256 288 l 176 90 q 176 85 176 88 q 185 70 176 75 q 211 60 194 64 q 250 55 227 56 q 300 54 273 54 l 300 0 l -10 0 l -10 54 m 533 341 l 402 661 l 277 341 l 533 341 m 597 1030 q 632 1037 615 1030 q 661 1057 648 1044 q 680 1085 673 1069 q 687 1120 687 1102 q 680 1155 687 1139 q 661 1184 673 1172 q 632 1203 648 1196 q 597 1211 615 1211 q 562 1203 578 1211 q 533 1184 545 1196 q 514 1155 521 1172 q 507 1120 507 1139 q 514 1085 507 1102 q 533 1057 521 1069 q 562 1037 545 1044 q 597 1030 578 1030 z "},"":{"ha":1650,"x_min":-10,"x_max":1544,"o":"m -10 54 q 73 61 45 54 q 112 88 102 69 l 580 961 l 1512 961 l 1512 631 l 1466 631 l 1277 908 l 1048 908 l 1048 505 l 1150 505 l 1240 728 l 1284 728 l 1284 227 l 1240 227 l 1150 452 l 1048 452 l 1048 54 l 1301 54 l 1497 362 l 1544 362 l 1544 0 l 449 0 l 449 54 l 580 54 l 580 288 l 285 288 l 184 91 q 182 85 182 87 q 192 70 182 75 q 217 60 201 64 q 257 55 234 56 q 307 54 279 54 l 307 0 l -10 0 l -10 54 m 580 341 l 580 851 l 315 341 l 580 341 z "},"":{"ha":1253,"x_min":80,"x_max":1154,"o":"m 80 458 q 116 667 80 570 q 224 835 152 764 q 404 946 296 906 q 656 987 512 987 q 850 955 760 987 q 1015 852 939 923 l 1099 977 l 1145 977 l 1145 536 l 1093 536 q 1026 715 1068 644 q 935 829 985 787 q 831 889 885 871 q 729 906 777 906 q 683 902 706 906 q 640 885 661 899 q 600 847 618 872 q 569 779 582 822 q 548 673 555 736 q 540 521 540 610 q 546 357 540 428 q 563 235 551 287 q 592 150 575 184 q 633 96 610 116 q 686 67 656 75 q 749 58 715 58 q 876 79 817 58 q 981 144 935 100 q 1056 260 1026 189 q 1094 429 1085 330 l 1154 429 q 1137 312 1150 368 q 1100 206 1124 255 q 1040 116 1076 157 q 954 45 1004 75 q 839 -3 904 15 q 692 -24 774 -21 l 692 -102 q 758 -80 724 -86 q 818 -75 791 -75 q 875 -83 849 -75 q 919 -107 901 -92 q 948 -144 938 -123 q 958 -191 958 -165 q 911 -290 958 -253 q 766 -326 865 -326 q 672 -319 718 -326 q 589 -300 627 -312 q 520 -275 551 -289 q 470 -247 490 -261 l 487 -210 q 520 -225 498 -217 q 569 -242 543 -234 q 625 -255 596 -250 q 680 -260 654 -260 q 715 -257 699 -260 q 743 -247 731 -254 q 761 -228 754 -240 q 767 -197 767 -216 q 751 -154 767 -169 q 710 -139 734 -139 q 693 -141 703 -139 q 677 -146 684 -142 l 642 -146 l 642 -26 q 410 12 514 -24 q 233 111 307 47 q 120 263 160 175 q 80 458 80 352 z "},"":{"ha":1256,"x_min":67,"x_max":1150,"o":"m 399 1130 q 356 1164 370 1141 q 342 1213 342 1187 q 349 1250 342 1232 q 368 1282 355 1268 q 396 1305 380 1297 q 433 1314 413 1314 q 451 1312 442 1314 q 469 1307 460 1310 q 500 1291 479 1302 q 548 1265 521 1280 q 606 1233 574 1251 q 668 1197 637 1215 q 728 1161 699 1179 q 781 1131 758 1144 q 820 1108 804 1117 q 840 1097 836 1099 l 823 1050 q 797 1055 818 1051 q 745 1063 776 1058 q 683 1074 717 1068 q 614 1085 649 1079 q 545 1098 579 1091 q 481 1110 511 1104 q 431 1121 452 1116 q 399 1130 409 1126 m 67 54 l 186 54 l 186 908 l 67 908 l 67 961 l 1118 961 l 1118 631 l 1072 631 l 883 908 l 654 908 l 654 505 l 756 505 l 846 728 l 890 728 l 890 227 l 846 227 l 756 452 l 654 452 l 654 54 l 907 54 l 1103 362 l 1150 362 l 1150 0 l 67 0 l 67 54 z "},"":{"ha":1256,"x_min":67,"x_max":1150,"o":"m 433 1097 q 452 1108 437 1099 q 491 1131 468 1117 q 544 1161 514 1144 q 604 1197 573 1179 q 667 1233 635 1215 q 725 1265 698 1251 q 772 1291 751 1280 q 803 1307 793 1302 q 821 1312 812 1310 q 840 1314 830 1314 q 875 1305 859 1314 q 904 1282 892 1297 q 923 1250 916 1268 q 930 1213 930 1232 q 917 1164 930 1187 q 873 1130 903 1141 q 841 1121 863 1126 q 791 1110 820 1116 q 727 1098 762 1104 q 658 1085 693 1091 q 589 1074 623 1079 q 528 1063 555 1068 q 475 1055 496 1058 q 449 1050 454 1051 l 433 1097 m 67 54 l 186 54 l 186 908 l 67 908 l 67 961 l 1118 961 l 1118 631 l 1072 631 l 883 908 l 654 908 l 654 505 l 756 505 l 846 728 l 890 728 l 890 227 l 846 227 l 756 452 l 654 452 l 654 54 l 907 54 l 1103 362 l 1150 362 l 1150 0 l 67 0 l 67 54 z "},"":{"ha":1256,"x_min":67,"x_max":1150,"o":"m 299 1072 l 636 1314 l 973 1072 l 934 1020 l 636 1120 l 338 1020 l 299 1072 m 67 54 l 186 54 l 186 908 l 67 908 l 67 961 l 1118 961 l 1118 631 l 1072 631 l 883 908 l 654 908 l 654 505 l 756 505 l 846 728 l 890 728 l 890 227 l 846 227 l 756 452 l 654 452 l 654 54 l 907 54 l 1103 362 l 1150 362 l 1150 0 l 67 0 l 67 54 z "},"":{"ha":1256,"x_min":67,"x_max":1150,"o":"m 831 1046 q 784 1056 806 1046 q 746 1081 762 1065 q 721 1119 730 1097 q 712 1164 712 1140 q 721 1211 712 1189 q 746 1249 730 1232 q 784 1274 762 1265 q 831 1283 806 1283 q 877 1274 855 1283 q 914 1249 898 1265 q 940 1211 930 1232 q 949 1164 949 1189 q 940 1119 949 1140 q 914 1081 930 1097 q 877 1056 898 1065 q 831 1046 855 1046 m 443 1046 q 397 1056 418 1046 q 359 1081 375 1065 q 333 1119 342 1097 q 324 1164 324 1140 q 333 1211 324 1189 q 359 1249 342 1232 q 397 1274 375 1265 q 443 1283 418 1283 q 489 1274 467 1283 q 527 1249 511 1265 q 552 1211 543 1232 q 561 1164 561 1189 q 552 1119 561 1140 q 527 1081 543 1097 q 489 1056 511 1065 q 443 1046 467 1046 m 67 54 l 186 54 l 186 908 l 67 908 l 67 961 l 1118 961 l 1118 631 l 1072 631 l 883 908 l 654 908 l 654 505 l 756 505 l 846 728 l 890 728 l 890 227 l 846 227 l 756 452 l 654 452 l 654 54 l 907 54 l 1103 362 l 1150 362 l 1150 0 l 67 0 l 67 54 z "},"":{"ha":839,"x_min":67,"x_max":772,"o":"m 184 1130 q 141 1164 155 1141 q 127 1213 127 1187 q 134 1250 127 1232 q 153 1282 140 1268 q 181 1305 165 1297 q 218 1314 198 1314 q 236 1312 227 1314 q 254 1307 245 1310 q 285 1291 264 1302 q 333 1265 306 1280 q 391 1233 359 1251 q 453 1197 422 1215 q 513 1161 484 1179 q 566 1131 543 1144 q 605 1108 589 1117 q 625 1097 621 1099 l 608 1050 q 582 1055 603 1051 q 530 1063 561 1058 q 468 1074 502 1068 q 399 1085 434 1079 q 330 1098 364 1091 q 267 1110 296 1104 q 216 1121 237 1116 q 184 1130 194 1126 m 67 54 l 186 54 l 186 908 l 67 908 l 67 961 l 772 961 l 772 908 l 654 908 l 654 54 l 772 54 l 772 0 l 67 0 l 67 54 z "},"":{"ha":839,"x_min":67,"x_max":772,"o":"m 218 1097 q 237 1108 222 1099 q 276 1131 253 1117 q 329 1161 299 1144 q 389 1197 358 1179 q 452 1233 420 1215 q 510 1265 483 1251 q 557 1291 536 1280 q 588 1307 578 1302 q 606 1312 597 1310 q 625 1314 615 1314 q 660 1305 644 1314 q 689 1282 677 1297 q 708 1250 701 1268 q 715 1213 715 1232 q 702 1164 715 1187 q 658 1130 688 1141 q 627 1121 648 1126 q 576 1110 605 1116 q 512 1098 547 1104 q 443 1085 478 1091 q 374 1074 408 1079 q 313 1063 340 1068 q 260 1055 281 1058 q 234 1050 239 1051 l 218 1097 m 67 54 l 186 54 l 186 908 l 67 908 l 67 961 l 772 961 l 772 908 l 654 908 l 654 54 l 772 54 l 772 0 l 67 0 l 67 54 z "},"":{"ha":839,"x_min":67,"x_max":772,"o":"m 84 1072 l 421 1314 l 758 1072 l 719 1020 l 421 1120 l 123 1020 l 84 1072 m 67 54 l 186 54 l 186 908 l 67 908 l 67 961 l 772 961 l 772 908 l 654 908 l 654 54 l 772 54 l 772 0 l 67 0 l 67 54 z "},"":{"ha":839,"x_min":67,"x_max":772,"o":"m 616 1033 q 569 1042 591 1033 q 531 1067 547 1051 q 506 1105 515 1084 q 497 1151 497 1126 q 506 1197 497 1175 q 531 1235 515 1219 q 569 1260 547 1251 q 616 1270 591 1270 q 662 1260 640 1270 q 699 1235 683 1251 q 725 1197 715 1219 q 734 1151 734 1175 q 725 1105 734 1126 q 699 1067 715 1084 q 662 1042 683 1051 q 616 1033 640 1033 m 228 1033 q 182 1042 203 1033 q 144 1067 160 1051 q 118 1105 127 1084 q 109 1151 109 1126 q 118 1197 109 1175 q 144 1235 127 1219 q 182 1260 160 1251 q 228 1270 203 1270 q 274 1260 252 1270 q 312 1235 296 1251 q 337 1197 328 1219 q 346 1151 346 1175 q 337 1105 346 1126 q 312 1067 328 1084 q 274 1042 296 1051 q 228 1033 252 1033 m 67 54 l 186 54 l 186 908 l 67 908 l 67 961 l 772 961 l 772 908 l 654 908 l 654 54 l 772 54 l 772 0 l 67 0 l 67 54 z "},"":{"ha":1373,"x_min":42,"x_max":1293,"o":"m 67 54 l 186 54 l 186 418 l 42 418 l 42 503 l 186 503 l 186 908 l 67 908 l 67 961 l 823 961 q 1018 929 931 961 q 1166 835 1105 897 q 1260 684 1227 773 q 1293 481 1293 595 q 1260 277 1293 366 q 1166 126 1227 187 q 1018 32 1105 64 q 823 0 931 0 l 67 0 l 67 54 m 654 54 q 712 60 686 54 q 758 84 738 66 q 791 132 777 102 q 815 210 806 162 q 828 324 824 257 q 833 481 833 391 q 828 637 833 571 q 815 751 824 704 q 791 829 806 799 q 758 877 777 860 q 712 901 738 895 q 654 908 686 908 l 654 503 l 751 503 l 751 418 l 654 418 l 654 54 z "},"":{"ha":1265,"x_min":19,"x_max":1230,"o":"m 331 1082 q 350 1163 335 1126 q 390 1226 366 1200 q 450 1267 415 1253 q 527 1282 484 1282 q 611 1268 568 1282 q 699 1238 654 1255 q 783 1210 741 1222 q 866 1197 825 1197 q 939 1212 904 1197 q 1007 1265 975 1227 l 1044 1242 q 1025 1161 1040 1198 q 985 1098 1010 1124 q 926 1057 960 1072 q 848 1042 891 1042 q 772 1054 812 1042 q 692 1081 732 1065 q 600 1113 646 1099 q 509 1127 554 1127 q 435 1112 471 1127 q 368 1059 400 1097 l 331 1082 m 31 54 q 88 55 60 54 q 136 61 115 57 q 170 73 157 65 q 182 92 182 80 l 182 800 l 100 908 l 19 908 l 19 961 l 612 961 l 1048 387 l 1048 868 q 1039 888 1048 880 q 1015 900 1031 896 q 975 906 998 905 q 923 908 952 908 l 923 961 l 1230 961 l 1230 908 q 1139 901 1172 908 q 1105 868 1105 893 l 1105 0 l 762 0 l 240 724 l 240 96 q 251 74 240 82 q 282 61 262 66 q 328 55 301 57 q 384 54 354 54 l 384 0 l 31 0 l 31 54 z "},"":{"ha":1322,"x_min":80,"x_max":1242,"o":"m 425 1130 q 381 1164 395 1141 q 367 1213 367 1187 q 374 1250 367 1232 q 393 1282 380 1268 q 421 1305 405 1297 q 458 1314 438 1314 q 476 1312 467 1314 q 494 1307 486 1310 q 525 1291 505 1302 q 573 1265 546 1280 q 631 1233 600 1251 q 693 1197 662 1215 q 753 1161 724 1179 q 806 1131 783 1144 q 845 1108 829 1117 q 865 1097 861 1099 l 848 1050 q 822 1055 843 1051 q 770 1063 801 1058 q 708 1074 742 1068 q 639 1085 674 1079 q 570 1098 604 1091 q 507 1110 536 1104 q 456 1121 477 1116 q 425 1130 434 1126 m 80 481 q 94 612 80 548 q 137 732 108 675 q 213 835 167 788 q 323 916 259 882 q 472 968 388 949 q 661 987 556 987 q 850 968 766 987 q 999 916 935 949 q 1110 835 1064 882 q 1185 732 1156 788 q 1229 612 1215 675 q 1242 481 1242 548 q 1229 350 1242 414 q 1185 229 1215 286 q 1110 126 1156 173 q 999 45 1064 79 q 850 -7 935 12 q 661 -26 766 -26 q 472 -7 556 -26 q 323 45 388 12 q 213 126 259 79 q 137 229 167 173 q 94 349 108 286 q 80 481 80 413 m 661 21 q 720 42 696 21 q 758 116 743 63 q 778 257 772 168 q 783 481 783 345 q 778 704 783 616 q 758 845 772 793 q 720 919 743 898 q 661 940 696 940 q 603 919 626 940 q 565 845 579 898 q 546 704 551 793 q 540 481 540 616 q 546 257 540 345 q 565 116 551 168 q 603 42 579 63 q 661 21 626 21 z "},"":{"ha":1322,"x_min":80,"x_max":1242,"o":"m 458 1097 q 477 1108 462 1099 q 516 1131 493 1117 q 569 1161 539 1144 q 629 1197 598 1179 q 692 1233 661 1215 q 750 1265 723 1251 q 797 1291 777 1280 q 828 1307 818 1302 q 846 1312 837 1310 q 865 1314 855 1314 q 900 1305 884 1314 q 929 1282 917 1297 q 948 1250 941 1268 q 956 1213 956 1232 q 942 1164 956 1187 q 898 1130 928 1141 q 866 1121 888 1126 q 816 1110 845 1116 q 752 1098 787 1104 q 683 1085 718 1091 q 614 1074 648 1079 q 553 1063 581 1068 q 500 1055 522 1058 q 474 1050 479 1051 l 458 1097 m 80 481 q 94 612 80 548 q 137 732 108 675 q 213 835 167 788 q 323 916 259 882 q 472 968 388 949 q 661 987 556 987 q 850 968 766 987 q 999 916 935 949 q 1110 835 1064 882 q 1185 732 1156 788 q 1229 612 1215 675 q 1242 481 1242 548 q 1229 350 1242 414 q 1185 229 1215 286 q 1110 126 1156 173 q 999 45 1064 79 q 850 -7 935 12 q 661 -26 766 -26 q 472 -7 556 -26 q 323 45 388 12 q 213 126 259 79 q 137 229 167 173 q 94 349 108 286 q 80 481 80 413 m 661 21 q 720 42 696 21 q 758 116 743 63 q 778 257 772 168 q 783 481 783 345 q 778 704 783 616 q 758 845 772 793 q 720 919 743 898 q 661 940 696 940 q 603 919 626 940 q 565 845 579 898 q 546 704 551 793 q 540 481 540 616 q 546 257 540 345 q 565 116 551 168 q 603 42 579 63 q 661 21 626 21 z "},"":{"ha":1322,"x_min":80,"x_max":1242,"o":"m 324 1072 l 661 1314 l 998 1072 l 959 1020 l 661 1120 l 363 1020 l 324 1072 m 80 481 q 94 612 80 548 q 137 732 108 675 q 213 835 167 788 q 323 916 259 882 q 472 968 388 949 q 661 987 556 987 q 850 968 766 987 q 999 916 935 949 q 1110 835 1064 882 q 1185 732 1156 788 q 1229 612 1215 675 q 1242 481 1242 548 q 1229 350 1242 414 q 1185 229 1215 286 q 1110 126 1156 173 q 999 45 1064 79 q 850 -7 935 12 q 661 -26 766 -26 q 472 -7 556 -26 q 323 45 388 12 q 213 126 259 79 q 137 229 167 173 q 94 349 108 286 q 80 481 80 413 m 661 21 q 720 42 696 21 q 758 116 743 63 q 778 257 772 168 q 783 481 783 345 q 778 704 783 616 q 758 845 772 793 q 720 919 743 898 q 661 940 696 940 q 603 919 626 940 q 565 845 579 898 q 546 704 551 793 q 540 481 540 616 q 546 257 540 345 q 565 116 551 168 q 603 42 579 63 q 661 21 626 21 z "},"":{"ha":1322,"x_min":80,"x_max":1242,"o":"m 305 1082 q 325 1163 309 1126 q 365 1226 340 1200 q 424 1267 389 1253 q 501 1282 458 1282 q 585 1268 542 1282 q 673 1238 628 1255 q 758 1210 715 1222 q 840 1197 800 1197 q 913 1212 878 1197 q 981 1265 949 1227 l 1019 1242 q 999 1161 1015 1198 q 959 1098 984 1124 q 900 1057 935 1072 q 823 1042 865 1042 q 746 1054 786 1042 q 666 1081 707 1065 q 574 1113 620 1099 q 484 1127 528 1127 q 410 1112 445 1127 q 342 1059 374 1097 l 305 1082 m 80 481 q 94 612 80 548 q 137 732 108 675 q 213 835 167 788 q 323 916 259 882 q 472 968 388 949 q 661 987 556 987 q 850 968 766 987 q 999 916 935 949 q 1110 835 1064 882 q 1185 732 1156 788 q 1229 612 1215 675 q 1242 481 1242 548 q 1229 350 1242 414 q 1185 229 1215 286 q 1110 126 1156 173 q 999 45 1064 79 q 850 -7 935 12 q 661 -26 766 -26 q 472 -7 556 -26 q 323 45 388 12 q 213 126 259 79 q 137 229 167 173 q 94 349 108 286 q 80 481 80 413 m 661 21 q 720 42 696 21 q 758 116 743 63 q 778 257 772 168 q 783 481 783 345 q 778 704 783 616 q 758 845 772 793 q 720 919 743 898 q 661 940 696 940 q 603 919 626 940 q 565 845 579 898 q 546 704 551 793 q 540 481 540 616 q 546 257 540 345 q 565 116 551 168 q 603 42 579 63 q 661 21 626 21 z "},"":{"ha":1322,"x_min":80,"x_max":1242,"o":"m 856 1033 q 809 1042 831 1033 q 771 1067 787 1051 q 746 1105 755 1084 q 737 1151 737 1126 q 746 1197 737 1175 q 771 1235 755 1219 q 809 1260 787 1251 q 856 1270 831 1270 q 902 1260 880 1270 q 939 1235 923 1251 q 965 1197 956 1219 q 974 1151 974 1175 q 965 1105 974 1126 q 939 1067 956 1084 q 902 1042 923 1051 q 856 1033 880 1033 m 468 1033 q 422 1042 444 1033 q 384 1067 400 1051 q 358 1105 368 1084 q 349 1151 349 1126 q 358 1197 349 1175 q 384 1235 368 1219 q 422 1260 400 1251 q 468 1270 444 1270 q 514 1260 492 1270 q 552 1235 536 1251 q 577 1197 568 1219 q 586 1151 586 1175 q 577 1105 586 1126 q 552 1067 568 1084 q 514 1042 536 1051 q 468 1033 492 1033 m 80 481 q 94 612 80 548 q 137 732 108 675 q 213 835 167 788 q 323 916 259 882 q 472 968 388 949 q 661 987 556 987 q 850 968 766 987 q 999 916 935 949 q 1110 835 1064 882 q 1185 732 1156 788 q 1229 612 1215 675 q 1242 481 1242 548 q 1229 350 1242 414 q 1185 229 1215 286 q 1110 126 1156 173 q 999 45 1064 79 q 850 -7 935 12 q 661 -26 766 -26 q 472 -7 556 -26 q 323 45 388 12 q 213 126 259 79 q 137 229 167 173 q 94 349 108 286 q 80 481 80 413 m 661 21 q 720 42 696 21 q 758 116 743 63 q 778 257 772 168 q 783 481 783 345 q 778 704 783 616 q 758 845 772 793 q 720 919 743 898 q 661 940 696 940 q 603 919 626 940 q 565 845 579 898 q 546 704 551 793 q 540 481 540 616 q 546 257 540 345 q 565 116 551 168 q 603 42 579 63 q 661 21 626 21 z "},"":{"ha":728,"x_min":96,"x_max":633,"o":"m 96 199 l 304 408 l 96 617 l 155 677 l 363 468 l 572 677 l 632 617 l 423 408 l 633 199 l 573 140 l 363 349 l 155 140 l 96 199 z "},"":{"ha":1322,"x_min":80,"x_max":1242,"o":"m 391 16 q 249 93 308 45 q 152 202 190 141 q 97 334 115 263 q 80 481 80 405 q 94 612 80 548 q 137 732 108 675 q 213 835 167 788 q 323 916 259 882 q 472 968 388 949 q 661 987 556 987 q 761 982 714 987 q 850 968 808 977 l 946 1166 l 1014 1133 l 925 947 q 1070 870 1010 918 q 1169 761 1131 822 q 1225 628 1207 700 q 1242 481 1242 557 q 1229 350 1242 414 q 1185 229 1215 286 q 1110 126 1156 173 q 999 45 1064 79 q 850 -7 935 12 q 661 -26 766 -26 q 558 -20 606 -26 q 467 -5 510 -15 l 372 -203 l 302 -168 l 391 16 m 768 796 q 752 864 762 836 q 729 908 743 891 q 699 932 716 925 q 661 940 682 940 q 603 919 626 940 q 565 845 579 898 q 546 704 551 793 q 540 481 540 616 q 542 328 540 395 l 768 796 m 553 175 q 569 102 559 132 q 591 55 578 73 q 622 29 604 37 q 661 21 639 21 q 720 42 696 21 q 758 116 743 63 q 778 257 772 168 q 783 481 783 345 q 783 569 783 528 q 781 647 782 610 l 553 175 z "},"":{"ha":1284,"x_min":54,"x_max":1242,"o":"m 571 1130 q 527 1164 541 1141 q 513 1213 513 1187 q 520 1250 513 1232 q 539 1282 527 1268 q 568 1305 551 1297 q 604 1314 585 1314 q 623 1312 614 1314 q 641 1307 632 1310 q 672 1291 651 1302 q 719 1265 692 1280 q 777 1233 746 1251 q 840 1197 808 1215 q 900 1161 871 1179 q 953 1131 929 1144 q 991 1108 976 1117 q 1011 1097 1007 1099 l 995 1050 q 968 1055 989 1051 q 916 1063 947 1058 q 854 1074 888 1068 q 786 1085 821 1079 q 716 1098 751 1091 q 653 1110 682 1104 q 602 1121 624 1116 q 571 1130 581 1126 m 173 908 l 54 908 l 54 961 l 759 961 l 759 908 l 641 908 l 641 385 q 648 263 641 321 q 676 162 654 205 q 737 92 697 118 q 842 66 777 66 q 894 72 867 66 q 945 91 920 77 q 992 130 970 105 q 1030 195 1014 155 q 1057 291 1047 235 q 1066 423 1066 347 l 1066 868 q 1036 898 1066 888 q 947 908 1006 908 l 947 961 l 1242 961 l 1242 908 q 1154 898 1183 908 q 1124 868 1124 888 l 1124 442 q 1101 230 1124 319 q 1024 85 1078 142 q 881 1 970 28 q 659 -26 792 -26 q 495 -9 567 -26 q 369 36 423 7 q 277 107 315 66 q 217 197 240 148 q 183 302 194 246 q 173 416 173 357 l 173 908 z "},"":{"ha":1284,"x_min":54,"x_max":1242,"o":"m 604 1097 q 624 1108 608 1099 q 663 1131 640 1117 q 715 1161 686 1144 q 776 1197 745 1179 q 838 1233 807 1215 q 896 1265 869 1251 q 944 1291 923 1280 q 975 1307 964 1302 q 992 1312 983 1310 q 1011 1314 1002 1314 q 1047 1305 1030 1314 q 1076 1282 1063 1297 q 1095 1250 1088 1268 q 1102 1213 1102 1232 q 1088 1164 1102 1187 q 1044 1130 1074 1141 q 1013 1121 1035 1126 q 962 1110 991 1116 q 899 1098 933 1104 q 830 1085 865 1091 q 761 1074 795 1079 q 699 1063 727 1068 q 647 1055 668 1058 q 621 1050 626 1051 l 604 1097 m 173 908 l 54 908 l 54 961 l 759 961 l 759 908 l 641 908 l 641 385 q 648 263 641 321 q 676 162 654 205 q 737 92 697 118 q 842 66 777 66 q 894 72 867 66 q 945 91 920 77 q 992 130 970 105 q 1030 195 1014 155 q 1057 291 1047 235 q 1066 423 1066 347 l 1066 868 q 1036 898 1066 888 q 947 908 1006 908 l 947 961 l 1242 961 l 1242 908 q 1154 898 1183 908 q 1124 868 1124 888 l 1124 442 q 1101 230 1124 319 q 1024 85 1078 142 q 881 1 970 28 q 659 -26 792 -26 q 495 -9 567 -26 q 369 36 423 7 q 277 107 315 66 q 217 197 240 148 q 183 302 194 246 q 173 416 173 357 l 173 908 z "},"":{"ha":1284,"x_min":54,"x_max":1242,"o":"m 471 1072 l 808 1314 l 1145 1072 l 1105 1020 l 808 1120 l 509 1020 l 471 1072 m 173 908 l 54 908 l 54 961 l 759 961 l 759 908 l 641 908 l 641 385 q 648 263 641 321 q 676 162 654 205 q 737 92 697 118 q 842 66 777 66 q 894 72 867 66 q 945 91 920 77 q 992 130 970 105 q 1030 195 1014 155 q 1057 291 1047 235 q 1066 423 1066 347 l 1066 868 q 1036 898 1066 888 q 947 908 1006 908 l 947 961 l 1242 961 l 1242 908 q 1154 898 1183 908 q 1124 868 1124 888 l 1124 442 q 1101 230 1124 319 q 1024 85 1078 142 q 881 1 970 28 q 659 -26 792 -26 q 495 -9 567 -26 q 369 36 423 7 q 277 107 315 66 q 217 197 240 148 q 183 302 194 246 q 173 416 173 357 l 173 908 z "},"":{"ha":1284,"x_min":54,"x_max":1242,"o":"m 1002 1033 q 956 1042 977 1033 q 918 1067 934 1051 q 893 1105 902 1084 q 884 1151 884 1126 q 893 1197 884 1175 q 918 1235 902 1219 q 956 1260 934 1251 q 1002 1270 977 1270 q 1048 1260 1027 1270 q 1086 1235 1069 1251 q 1111 1197 1102 1219 q 1120 1151 1120 1175 q 1111 1105 1120 1126 q 1086 1067 1102 1084 q 1048 1042 1069 1051 q 1002 1033 1027 1033 m 614 1033 q 568 1042 590 1033 q 530 1067 547 1051 q 505 1105 514 1084 q 496 1151 496 1126 q 505 1197 496 1175 q 530 1235 514 1219 q 568 1260 547 1251 q 614 1270 590 1270 q 661 1260 639 1270 q 698 1235 682 1251 q 723 1197 714 1219 q 732 1151 732 1175 q 723 1105 732 1126 q 698 1067 714 1084 q 661 1042 682 1051 q 614 1033 639 1033 m 173 908 l 54 908 l 54 961 l 759 961 l 759 908 l 641 908 l 641 385 q 648 263 641 321 q 676 162 654 205 q 737 92 697 118 q 842 66 777 66 q 894 72 867 66 q 945 91 920 77 q 992 130 970 105 q 1030 195 1014 155 q 1057 291 1047 235 q 1066 423 1066 347 l 1066 868 q 1036 898 1066 888 q 947 908 1006 908 l 947 961 l 1242 961 l 1242 908 q 1154 898 1183 908 q 1124 868 1124 888 l 1124 442 q 1101 230 1124 319 q 1024 85 1078 142 q 881 1 970 28 q 659 -26 792 -26 q 495 -9 567 -26 q 369 36 423 7 q 277 107 315 66 q 217 197 240 148 q 183 302 194 246 q 173 416 173 357 l 173 908 z "},"":{"ha":1200,"x_min":-3,"x_max":1211,"o":"m 621 1097 q 641 1108 625 1099 q 680 1131 656 1117 q 732 1161 703 1144 q 793 1197 762 1179 q 855 1233 824 1215 q 913 1265 886 1251 q 961 1291 940 1280 q 991 1307 981 1302 q 1009 1312 1000 1310 q 1028 1314 1019 1314 q 1064 1305 1047 1314 q 1093 1282 1080 1297 q 1112 1250 1105 1268 q 1119 1213 1119 1232 q 1105 1164 1119 1187 q 1061 1130 1091 1141 q 1030 1121 1051 1126 q 979 1110 1008 1116 q 916 1098 950 1104 q 847 1085 882 1091 q 778 1074 812 1079 q 716 1063 744 1068 q 664 1055 685 1058 q 637 1050 643 1051 l 621 1097 m 274 54 l 393 54 l 393 339 l 100 908 l -3 908 l -3 961 l 721 961 l 721 908 l 606 908 l 826 438 l 1023 866 q 1025 878 1025 871 q 1016 892 1025 886 q 990 901 1006 898 q 951 906 974 905 q 901 908 928 908 l 901 961 l 1211 961 l 1211 908 q 1160 906 1181 908 q 1127 900 1140 905 q 1106 887 1114 895 q 1092 866 1098 879 l 861 370 l 861 54 l 979 54 l 979 0 l 274 0 l 274 54 z "},"":{"ha":1317,"x_min":67,"x_max":1293,"o":"m 67 54 l 186 54 l 186 908 l 67 908 l 67 961 l 772 961 l 772 908 l 654 908 l 654 825 l 823 825 q 1018 806 931 825 q 1166 746 1105 787 q 1260 640 1227 705 q 1293 481 1293 574 q 1260 321 1293 387 q 1166 214 1227 256 q 1018 154 1105 173 q 823 136 931 136 l 654 136 l 654 54 l 772 54 l 772 0 l 67 0 l 67 54 m 654 189 q 736 210 702 189 q 792 268 770 230 q 823 359 813 305 q 833 481 833 414 q 823 602 833 548 q 792 694 813 656 q 736 752 770 732 q 654 772 702 772 l 654 189 z "},"":{"ha":1408,"x_min":47,"x_max":1384,"o":"m 47 49 l 167 49 l 167 642 l 47 642 l 47 690 l 167 690 l 167 721 q 198 879 167 815 q 292 980 230 942 q 446 1035 354 1019 q 660 1051 538 1051 q 1006 1000 894 1051 q 1118 852 1118 949 q 1106 800 1118 822 q 1075 761 1095 778 q 1032 730 1056 743 q 984 705 1008 717 q 946 685 964 694 q 913 664 928 675 q 891 640 899 653 q 882 611 882 627 q 894 581 882 594 q 925 558 905 568 q 971 538 945 547 q 1027 519 997 529 q 1107 494 1065 507 q 1188 463 1149 480 q 1264 423 1228 446 q 1326 371 1299 401 q 1369 303 1353 342 q 1384 216 1384 265 q 1364 118 1384 163 q 1304 42 1343 74 q 1205 -8 1264 10 q 1070 -26 1147 -26 q 986 -18 1029 -26 q 904 5 944 -10 q 828 43 864 20 q 765 95 793 66 l 716 -16 l 660 -16 l 660 235 l 710 235 q 788 145 749 182 q 863 86 827 109 q 931 53 899 63 q 989 43 963 43 q 1043 58 1023 43 q 1063 95 1063 73 q 1054 124 1063 110 q 1027 152 1044 138 q 988 179 1010 165 q 939 209 965 193 q 854 261 899 233 q 773 322 810 288 q 712 398 736 357 q 688 492 688 440 q 694 547 688 522 q 711 596 701 573 q 734 641 721 619 q 760 682 747 662 q 787 723 774 703 q 809 765 800 743 q 825 811 819 787 q 831 862 831 835 q 820 926 831 899 q 789 970 808 953 q 744 996 770 987 q 688 1004 718 1004 q 618 991 646 1004 q 573 957 590 978 q 550 910 557 936 q 543 860 543 885 q 548 807 543 829 q 557 762 552 784 q 567 713 562 739 q 571 650 571 688 l 571 0 l 47 0 l 47 49 z "},"":{"ha":1249,"x_min":89,"x_max":1201,"o":"m 420 1014 q 385 1047 396 1027 q 374 1090 374 1067 q 382 1127 374 1109 q 402 1158 389 1145 q 431 1180 414 1172 q 467 1188 448 1188 q 490 1185 479 1188 q 513 1176 502 1183 q 543 1156 523 1171 q 588 1121 563 1141 q 643 1077 614 1101 q 701 1030 672 1053 q 755 984 730 1006 q 800 946 781 962 q 825 925 815 933 q 838 916 834 918 l 804 863 q 788 870 800 865 q 759 880 777 874 q 704 900 735 888 q 637 924 672 911 q 568 951 603 937 q 504 977 534 964 q 452 999 474 989 q 420 1014 429 1008 m 89 178 q 109 268 89 230 q 164 331 128 305 q 250 373 200 357 q 362 398 300 389 q 494 410 423 407 q 640 413 564 413 l 640 451 q 628 590 640 538 q 592 670 616 642 q 533 706 568 698 q 451 715 498 715 q 398 711 426 715 q 348 701 370 707 q 406 686 379 698 q 451 655 432 673 q 480 614 470 637 q 491 569 491 592 q 477 515 491 541 q 437 472 463 490 q 379 442 412 453 q 308 431 346 431 q 237 442 270 431 q 179 472 204 453 q 140 515 155 490 q 126 569 126 541 q 147 637 126 607 q 203 691 168 668 q 287 732 239 715 q 391 760 336 749 q 507 775 447 770 q 627 781 567 781 q 811 766 732 781 q 941 714 889 751 q 1019 613 993 677 q 1044 451 1044 549 l 1044 167 q 1055 89 1044 116 q 1094 61 1065 61 q 1117 70 1108 61 q 1132 94 1126 79 q 1139 129 1137 109 q 1141 169 1141 149 l 1141 236 l 1201 236 l 1201 169 q 1187 77 1201 115 q 1139 17 1173 40 q 1047 -16 1105 -6 q 903 -26 990 -26 q 821 -21 859 -26 q 751 -5 783 -16 q 696 26 720 7 q 660 73 673 45 q 606 23 640 42 q 532 -7 572 3 q 453 -22 493 -18 q 380 -26 413 -26 q 245 -9 300 -26 q 155 35 189 7 q 104 100 120 63 q 89 178 89 137 m 480 185 q 498 104 480 135 q 559 73 517 73 q 617 99 594 73 q 640 167 640 124 l 640 351 q 560 342 591 351 q 511 314 529 333 q 487 262 493 294 q 480 185 480 231 z "},"":{"ha":1249,"x_min":89,"x_max":1201,"o":"m 417 916 q 430 926 420 918 q 454 947 439 934 q 499 985 473 963 q 554 1030 525 1007 q 612 1078 583 1054 q 666 1121 641 1101 q 711 1156 692 1141 q 741 1177 731 1171 q 764 1186 753 1183 q 787 1189 776 1189 q 823 1181 806 1189 q 852 1159 840 1173 q 873 1127 865 1145 q 880 1090 880 1109 q 869 1048 880 1068 q 835 1015 859 1028 q 803 999 825 1009 q 751 977 781 989 q 686 951 721 965 q 617 925 652 938 q 551 901 583 912 q 496 881 519 889 q 467 870 478 875 q 451 864 455 866 l 417 916 m 89 178 q 109 268 89 230 q 164 331 128 305 q 250 373 200 357 q 362 398 300 389 q 494 410 423 407 q 640 413 564 413 l 640 451 q 628 590 640 538 q 592 670 616 642 q 533 706 568 698 q 451 715 498 715 q 398 711 426 715 q 348 701 370 707 q 406 686 379 698 q 451 655 432 673 q 480 614 470 637 q 491 569 491 592 q 477 515 491 541 q 437 472 463 490 q 379 442 412 453 q 308 431 346 431 q 237 442 270 431 q 179 472 204 453 q 140 515 155 490 q 126 569 126 541 q 147 637 126 607 q 203 691 168 668 q 287 732 239 715 q 391 760 336 749 q 507 775 447 770 q 627 781 567 781 q 811 766 732 781 q 941 714 889 751 q 1019 613 993 677 q 1044 451 1044 549 l 1044 167 q 1055 89 1044 116 q 1094 61 1065 61 q 1117 70 1108 61 q 1132 94 1126 79 q 1139 129 1137 109 q 1141 169 1141 149 l 1141 236 l 1201 236 l 1201 169 q 1187 77 1201 115 q 1139 17 1173 40 q 1047 -16 1105 -6 q 903 -26 990 -26 q 821 -21 859 -26 q 751 -5 783 -16 q 696 26 720 7 q 660 73 673 45 q 606 23 640 42 q 532 -7 572 3 q 453 -22 493 -18 q 380 -26 413 -26 q 245 -9 300 -26 q 155 35 189 7 q 104 100 120 63 q 89 178 89 137 m 480 185 q 498 104 480 135 q 559 73 517 73 q 617 99 594 73 q 640 167 640 124 l 640 351 q 560 342 591 351 q 511 314 529 333 q 487 262 493 294 q 480 185 480 231 z "},"":{"ha":1249,"x_min":89,"x_max":1201,"o":"m 290 901 l 621 1198 l 951 901 l 918 857 l 621 991 l 322 857 l 290 901 m 89 178 q 109 268 89 230 q 164 331 128 305 q 250 373 200 357 q 362 398 300 389 q 494 410 423 407 q 640 413 564 413 l 640 451 q 628 590 640 538 q 592 670 616 642 q 533 706 568 698 q 451 715 498 715 q 398 711 426 715 q 348 701 370 707 q 406 686 379 698 q 451 655 432 673 q 480 614 470 637 q 491 569 491 592 q 477 515 491 541 q 437 472 463 490 q 379 442 412 453 q 308 431 346 431 q 237 442 270 431 q 179 472 204 453 q 140 515 155 490 q 126 569 126 541 q 147 637 126 607 q 203 691 168 668 q 287 732 239 715 q 391 760 336 749 q 507 775 447 770 q 627 781 567 781 q 811 766 732 781 q 941 714 889 751 q 1019 613 993 677 q 1044 451 1044 549 l 1044 167 q 1055 89 1044 116 q 1094 61 1065 61 q 1117 70 1108 61 q 1132 94 1126 79 q 1139 129 1137 109 q 1141 169 1141 149 l 1141 236 l 1201 236 l 1201 169 q 1187 77 1201 115 q 1139 17 1173 40 q 1047 -16 1105 -6 q 903 -26 990 -26 q 821 -21 859 -26 q 751 -5 783 -16 q 696 26 720 7 q 660 73 673 45 q 606 23 640 42 q 532 -7 572 3 q 453 -22 493 -18 q 380 -26 413 -26 q 245 -9 300 -26 q 155 35 189 7 q 104 100 120 63 q 89 178 89 137 m 480 185 q 498 104 480 135 q 559 73 517 73 q 617 99 594 73 q 640 167 640 124 l 640 351 q 560 342 591 351 q 511 314 529 333 q 487 262 493 294 q 480 185 480 231 z "},"":{"ha":1249,"x_min":89,"x_max":1201,"o":"m 281 928 q 301 1009 286 972 q 341 1072 316 1046 q 400 1113 366 1099 q 477 1128 435 1128 q 559 1115 517 1128 q 646 1085 602 1101 q 732 1056 689 1069 q 817 1043 775 1043 q 890 1058 854 1043 q 958 1112 925 1073 l 995 1088 q 976 1007 991 1044 q 936 944 960 970 q 876 903 911 918 q 799 888 842 888 q 722 900 762 888 q 642 927 682 911 q 550 959 595 945 q 460 973 504 973 q 386 958 421 973 q 319 905 351 943 l 281 928 m 89 178 q 109 268 89 230 q 164 331 128 305 q 250 373 200 357 q 362 398 300 389 q 494 410 423 407 q 640 413 564 413 l 640 451 q 628 590 640 538 q 592 670 616 642 q 533 706 568 698 q 451 715 498 715 q 398 711 426 715 q 348 701 370 707 q 406 686 379 698 q 451 655 432 673 q 480 614 470 637 q 491 569 491 592 q 477 515 491 541 q 437 472 463 490 q 379 442 412 453 q 308 431 346 431 q 237 442 270 431 q 179 472 204 453 q 140 515 155 490 q 126 569 126 541 q 147 637 126 607 q 203 691 168 668 q 287 732 239 715 q 391 760 336 749 q 507 775 447 770 q 627 781 567 781 q 811 766 732 781 q 941 714 889 751 q 1019 613 993 677 q 1044 451 1044 549 l 1044 167 q 1055 89 1044 116 q 1094 61 1065 61 q 1117 70 1108 61 q 1132 94 1126 79 q 1139 129 1137 109 q 1141 169 1141 149 l 1141 236 l 1201 236 l 1201 169 q 1187 77 1201 115 q 1139 17 1173 40 q 1047 -16 1105 -6 q 903 -26 990 -26 q 821 -21 859 -26 q 751 -5 783 -16 q 696 26 720 7 q 660 73 673 45 q 606 23 640 42 q 532 -7 572 3 q 453 -22 493 -18 q 380 -26 413 -26 q 245 -9 300 -26 q 155 35 189 7 q 104 100 120 63 q 89 178 89 137 m 480 185 q 498 104 480 135 q 559 73 517 73 q 617 99 594 73 q 640 167 640 124 l 640 351 q 560 342 591 351 q 511 314 529 333 q 487 262 493 294 q 480 185 480 231 z "},"":{"ha":1249,"x_min":89,"x_max":1201,"o":"m 812 892 q 766 902 787 892 q 728 927 744 911 q 703 965 712 943 q 694 1010 694 986 q 703 1057 694 1035 q 728 1095 712 1078 q 766 1120 744 1111 q 812 1129 787 1129 q 858 1120 837 1129 q 896 1095 880 1111 q 921 1057 912 1078 q 930 1010 930 1035 q 921 965 930 986 q 896 927 912 943 q 858 902 880 911 q 812 892 837 892 m 425 892 q 378 902 400 892 q 340 927 357 911 q 315 965 324 943 q 306 1010 306 986 q 315 1057 306 1035 q 340 1095 324 1078 q 378 1120 357 1111 q 425 1129 400 1129 q 471 1120 449 1129 q 508 1095 492 1111 q 533 1057 524 1078 q 543 1010 543 1035 q 533 965 543 986 q 508 927 524 943 q 471 902 492 911 q 425 892 449 892 m 89 178 q 109 268 89 230 q 164 331 128 305 q 250 373 200 357 q 362 398 300 389 q 494 410 423 407 q 640 413 564 413 l 640 451 q 628 590 640 538 q 592 670 616 642 q 533 706 568 698 q 451 715 498 715 q 398 711 426 715 q 348 701 370 707 q 406 686 379 698 q 451 655 432 673 q 480 614 470 637 q 491 569 491 592 q 477 515 491 541 q 437 472 463 490 q 379 442 412 453 q 308 431 346 431 q 237 442 270 431 q 179 472 204 453 q 140 515 155 490 q 126 569 126 541 q 147 637 126 607 q 203 691 168 668 q 287 732 239 715 q 391 760 336 749 q 507 775 447 770 q 627 781 567 781 q 811 766 732 781 q 941 714 889 751 q 1019 613 993 677 q 1044 451 1044 549 l 1044 167 q 1055 89 1044 116 q 1094 61 1065 61 q 1117 70 1108 61 q 1132 94 1126 79 q 1139 129 1137 109 q 1141 169 1141 149 l 1141 236 l 1201 236 l 1201 169 q 1187 77 1201 115 q 1139 17 1173 40 q 1047 -16 1105 -6 q 903 -26 990 -26 q 821 -21 859 -26 q 751 -5 783 -16 q 696 26 720 7 q 660 73 673 45 q 606 23 640 42 q 532 -7 572 3 q 453 -22 493 -18 q 380 -26 413 -26 q 245 -9 300 -26 q 155 35 189 7 q 104 100 120 63 q 89 178 89 137 m 480 185 q 498 104 480 135 q 559 73 517 73 q 617 99 594 73 q 640 167 640 124 l 640 351 q 560 342 591 351 q 511 314 529 333 q 487 262 493 294 q 480 185 480 231 z "},"":{"ha":1249,"x_min":89,"x_max":1201,"o":"m 621 850 q 556 863 587 850 q 504 898 526 876 q 469 950 481 920 q 456 1015 456 981 q 469 1078 456 1048 q 504 1131 481 1108 q 556 1166 526 1153 q 621 1179 587 1179 q 684 1166 654 1179 q 736 1131 714 1153 q 772 1078 759 1108 q 785 1015 785 1048 q 772 950 785 981 q 736 898 759 920 q 684 863 714 876 q 621 850 654 850 m 621 924 q 655 931 639 924 q 684 951 672 939 q 704 980 696 963 q 711 1015 711 996 q 704 1049 711 1033 q 684 1078 696 1066 q 655 1098 672 1090 q 621 1105 639 1105 q 586 1098 602 1105 q 557 1078 569 1090 q 537 1049 545 1066 q 530 1015 530 1033 q 537 980 530 996 q 557 951 545 963 q 586 931 569 939 q 621 924 602 924 m 89 178 q 109 268 89 230 q 164 331 128 305 q 250 373 200 357 q 362 398 300 389 q 494 410 423 407 q 640 413 564 413 l 640 451 q 628 590 640 538 q 592 670 616 642 q 533 706 568 698 q 451 715 498 715 q 398 711 426 715 q 348 701 370 707 q 406 686 379 698 q 451 655 432 673 q 480 614 470 637 q 491 569 491 592 q 477 515 491 541 q 437 472 463 490 q 379 442 412 453 q 308 431 346 431 q 237 442 270 431 q 179 472 204 453 q 140 515 155 490 q 126 569 126 541 q 147 637 126 607 q 203 691 168 668 q 287 732 239 715 q 391 760 336 749 q 507 775 447 770 q 627 781 567 781 q 811 766 732 781 q 941 714 889 751 q 1019 613 993 677 q 1044 451 1044 549 l 1044 167 q 1055 89 1044 116 q 1094 61 1065 61 q 1117 70 1108 61 q 1132 94 1126 79 q 1139 129 1137 109 q 1141 169 1141 149 l 1141 236 l 1201 236 l 1201 169 q 1187 77 1201 115 q 1139 17 1173 40 q 1047 -16 1105 -6 q 903 -26 990 -26 q 821 -21 859 -26 q 751 -5 783 -16 q 696 26 720 7 q 660 73 673 45 q 606 23 640 42 q 532 -7 572 3 q 453 -22 493 -18 q 380 -26 413 -26 q 245 -9 300 -26 q 155 35 189 7 q 104 100 120 63 q 89 178 89 137 m 480 185 q 498 104 480 135 q 559 73 517 73 q 617 99 594 73 q 640 167 640 124 l 640 351 q 560 342 591 351 q 511 314 529 333 q 487 262 493 294 q 480 185 480 231 z "},"":{"ha":1666,"x_min":92,"x_max":1605,"o":"m 92 178 q 112 268 92 230 q 168 331 132 305 q 254 373 203 357 q 365 398 304 389 q 497 410 427 407 q 644 413 568 413 l 644 451 q 632 590 644 538 q 596 670 620 642 q 536 706 572 698 q 454 715 501 715 q 401 711 429 715 q 351 701 373 707 q 409 686 382 698 q 454 655 435 673 q 484 614 473 637 q 494 569 494 592 q 480 515 494 541 q 441 472 466 490 q 382 442 416 453 q 311 431 349 431 q 240 442 273 431 q 183 472 208 453 q 144 515 158 490 q 130 569 130 541 q 150 637 130 607 q 207 691 171 668 q 291 732 242 715 q 395 760 339 749 q 510 775 450 770 q 630 781 570 781 q 785 771 718 781 q 904 737 853 761 q 1144 781 1011 781 q 1292 764 1225 781 q 1409 720 1358 748 q 1497 653 1460 692 q 1558 570 1534 614 q 1594 476 1582 525 q 1605 377 1605 427 l 1061 377 q 1070 208 1061 273 q 1100 106 1080 143 q 1151 56 1120 69 q 1227 42 1183 42 q 1335 56 1284 42 q 1424 97 1385 71 q 1491 160 1464 123 q 1527 243 1517 197 l 1590 243 q 1555 131 1587 181 q 1471 46 1524 81 q 1345 -7 1417 12 q 1189 -26 1273 -26 q 1000 -15 1079 -26 q 867 16 922 -4 q 777 62 812 35 q 720 120 742 88 q 681 67 705 90 q 626 29 656 45 q 563 2 596 13 q 497 -15 530 -8 q 434 -23 464 -21 q 383 -26 405 -26 q 248 -9 304 -26 q 158 35 193 7 q 108 100 123 63 q 92 178 92 137 m 1252 446 q 1244 587 1250 530 q 1226 677 1238 643 q 1198 725 1215 711 q 1157 739 1181 739 q 1116 725 1133 739 q 1087 677 1099 711 q 1069 587 1076 643 q 1062 446 1063 530 l 1252 446 m 484 185 q 502 104 484 135 q 562 73 520 73 q 621 99 597 73 q 644 167 644 124 l 644 351 q 564 342 595 351 q 514 314 532 333 q 490 262 496 294 q 484 185 484 231 z "},"":{"ha":1078,"x_min":60,"x_max":1023,"o":"m 60 385 q 96 547 60 473 q 196 672 132 620 q 346 752 259 724 q 535 781 433 781 q 758 759 665 781 q 909 703 850 737 q 995 627 968 669 q 1023 547 1023 586 q 1008 491 1023 517 q 967 446 993 465 q 908 415 942 427 q 836 404 874 404 q 762 415 796 404 q 702 446 727 427 q 661 491 676 465 q 646 547 646 517 q 660 599 646 574 q 696 643 673 624 q 751 674 720 662 q 819 688 783 686 q 749 709 787 700 q 673 718 711 718 q 584 705 622 718 q 522 654 547 691 q 484 550 496 616 q 471 377 471 484 q 480 208 471 273 q 510 106 490 143 q 561 56 530 69 q 637 42 593 42 q 745 56 694 42 q 834 97 795 71 q 901 160 874 123 q 937 243 927 197 l 1000 243 q 962 130 994 180 q 877 45 930 80 q 754 -7 825 11 q 599 -26 683 -26 q 592 -25 595 -26 q 585 -25 589 -25 l 585 -102 q 651 -80 617 -86 q 711 -75 684 -75 q 768 -83 742 -75 q 812 -107 793 -92 q 841 -144 831 -123 q 851 -191 851 -165 q 804 -290 851 -253 q 659 -326 758 -326 q 565 -319 610 -326 q 482 -300 520 -312 q 413 -275 444 -289 q 363 -247 383 -261 l 380 -210 q 413 -225 391 -217 q 462 -242 435 -234 q 518 -255 489 -250 q 573 -260 547 -260 q 608 -257 592 -260 q 635 -247 624 -254 q 653 -228 647 -240 q 660 -197 660 -216 q 644 -154 660 -169 q 603 -139 627 -139 q 586 -141 595 -139 q 570 -146 577 -142 l 535 -146 l 535 -24 q 330 13 418 -18 q 181 96 241 43 q 91 220 121 148 q 60 385 60 293 z "},"":{"ha":1076,"x_min":60,"x_max":1015,"o":"m 363 1014 q 329 1047 340 1027 q 318 1090 318 1067 q 326 1127 318 1109 q 346 1158 333 1145 q 375 1180 358 1172 q 411 1188 392 1188 q 434 1185 422 1188 q 457 1176 446 1183 q 487 1156 467 1171 q 532 1121 507 1141 q 587 1077 557 1101 q 645 1030 616 1053 q 699 984 673 1006 q 744 946 725 962 q 768 925 759 933 q 781 916 778 918 l 747 863 q 732 870 743 865 q 703 880 720 874 q 647 900 679 888 q 581 924 616 911 q 512 951 547 937 q 448 977 477 964 q 395 999 418 989 q 363 1014 373 1008 m 60 385 q 98 549 60 475 q 201 673 135 622 q 358 753 267 725 q 554 781 448 781 q 702 764 635 781 q 819 720 768 748 q 907 653 870 692 q 968 570 944 614 q 1004 476 992 525 q 1015 377 1015 427 l 471 377 q 480 208 471 273 q 510 106 490 143 q 561 56 530 69 q 637 42 593 42 q 745 56 694 42 q 834 97 795 71 q 901 160 874 123 q 937 243 927 197 l 1000 243 q 962 130 994 180 q 877 45 930 80 q 754 -7 825 11 q 599 -26 683 -26 q 366 2 467 -26 q 197 82 265 29 q 95 211 130 134 q 60 385 60 287 m 662 446 q 654 587 660 530 q 636 677 648 643 q 608 725 625 711 q 567 739 591 739 q 526 725 543 739 q 497 677 509 711 q 479 587 486 643 q 472 446 473 530 l 662 446 z "},"":{"ha":1076,"x_min":60,"x_max":1015,"o":"m 361 916 q 374 926 364 918 q 398 947 383 934 q 443 985 417 963 q 497 1030 469 1007 q 555 1078 526 1054 q 610 1121 585 1101 q 655 1156 635 1141 q 685 1177 675 1171 q 708 1186 696 1183 q 731 1189 720 1189 q 767 1181 750 1189 q 796 1159 783 1173 q 817 1127 809 1145 q 824 1090 824 1109 q 813 1048 824 1068 q 779 1015 802 1028 q 747 999 769 1009 q 694 977 724 989 q 630 951 665 965 q 561 925 595 938 q 495 901 526 912 q 439 881 463 889 q 410 870 422 875 q 395 864 399 866 l 361 916 m 60 385 q 98 549 60 475 q 201 673 135 622 q 358 753 267 725 q 554 781 448 781 q 702 764 635 781 q 819 720 768 748 q 907 653 870 692 q 968 570 944 614 q 1004 476 992 525 q 1015 377 1015 427 l 471 377 q 480 208 471 273 q 510 106 490 143 q 561 56 530 69 q 637 42 593 42 q 745 56 694 42 q 834 97 795 71 q 901 160 874 123 q 937 243 927 197 l 1000 243 q 962 130 994 180 q 877 45 930 80 q 754 -7 825 11 q 599 -26 683 -26 q 366 2 467 -26 q 197 82 265 29 q 95 211 130 134 q 60 385 60 287 m 662 446 q 654 587 660 530 q 636 677 648 643 q 608 725 625 711 q 567 739 591 739 q 526 725 543 739 q 497 677 509 711 q 479 587 486 643 q 472 446 473 530 l 662 446 z "},"":{"ha":1076,"x_min":60,"x_max":1015,"o":"m 234 901 l 564 1198 l 895 901 l 862 857 l 564 991 l 266 857 l 234 901 m 60 385 q 98 549 60 475 q 201 673 135 622 q 358 753 267 725 q 554 781 448 781 q 702 764 635 781 q 819 720 768 748 q 907 653 870 692 q 968 570 944 614 q 1004 476 992 525 q 1015 377 1015 427 l 471 377 q 480 208 471 273 q 510 106 490 143 q 561 56 530 69 q 637 42 593 42 q 745 56 694 42 q 834 97 795 71 q 901 160 874 123 q 937 243 927 197 l 1000 243 q 962 130 994 180 q 877 45 930 80 q 754 -7 825 11 q 599 -26 683 -26 q 366 2 467 -26 q 197 82 265 29 q 95 211 130 134 q 60 385 60 287 m 662 446 q 654 587 660 530 q 636 677 648 643 q 608 725 625 711 q 567 739 591 739 q 526 725 543 739 q 497 677 509 711 q 479 587 486 643 q 472 446 473 530 l 662 446 z "},"":{"ha":1076,"x_min":60,"x_max":1015,"o":"m 756 892 q 709 902 731 892 q 672 927 688 911 q 647 965 656 943 q 637 1010 637 986 q 647 1057 637 1035 q 672 1095 656 1078 q 709 1120 688 1111 q 756 1129 731 1129 q 802 1120 781 1129 q 840 1095 823 1111 q 865 1057 856 1078 q 874 1010 874 1035 q 865 965 874 986 q 840 927 856 943 q 802 902 823 911 q 756 892 781 892 m 368 892 q 322 902 344 892 q 284 927 300 911 q 259 965 268 943 q 250 1010 250 986 q 259 1057 250 1035 q 284 1095 268 1078 q 322 1120 300 1111 q 368 1129 344 1129 q 414 1120 393 1129 q 452 1095 436 1111 q 477 1057 468 1078 q 486 1010 486 1035 q 477 965 486 986 q 452 927 468 943 q 414 902 436 911 q 368 892 393 892 m 60 385 q 98 549 60 475 q 201 673 135 622 q 358 753 267 725 q 554 781 448 781 q 702 764 635 781 q 819 720 768 748 q 907 653 870 692 q 968 570 944 614 q 1004 476 992 525 q 1015 377 1015 427 l 471 377 q 480 208 471 273 q 510 106 490 143 q 561 56 530 69 q 637 42 593 42 q 745 56 694 42 q 834 97 795 71 q 901 160 874 123 q 937 243 927 197 l 1000 243 q 962 130 994 180 q 877 45 930 80 q 754 -7 825 11 q 599 -26 683 -26 q 366 2 467 -26 q 197 82 265 29 q 95 211 130 134 q 60 385 60 287 m 662 446 q 654 587 660 530 q 636 677 648 643 q 608 725 625 711 q 567 739 591 739 q 526 725 543 739 q 497 677 509 711 q 479 587 486 643 q 472 446 473 530 l 662 446 z "},"":{"ha":730,"x_min":54,"x_max":695,"o":"m 488 880 q 432 900 464 888 q 366 924 401 911 q 297 951 332 937 q 233 977 262 964 q 180 999 203 989 q 149 1014 158 1008 q 114 1047 125 1027 q 103 1090 103 1067 q 111 1127 103 1109 q 131 1158 118 1145 q 160 1180 143 1172 q 196 1188 177 1188 q 219 1185 208 1188 q 242 1176 231 1183 q 272 1156 252 1171 q 317 1121 292 1141 q 372 1077 342 1101 q 430 1030 401 1053 q 484 984 458 1006 q 529 946 510 962 q 553 925 544 933 q 566 916 563 918 l 532 863 q 517 870 528 865 q 488 880 505 874 m 54 49 l 173 49 l 173 706 l 54 706 l 54 755 l 576 755 l 576 49 l 695 49 l 695 0 l 54 0 l 54 49 z "},"":{"ha":730,"x_min":54,"x_max":695,"o":"m 146 916 q 159 926 149 918 q 183 947 168 934 q 228 985 202 963 q 282 1030 254 1007 q 340 1078 311 1054 q 395 1121 370 1101 q 440 1156 420 1141 q 470 1177 460 1171 q 493 1186 481 1183 q 516 1189 505 1189 q 552 1181 535 1189 q 581 1159 568 1173 q 602 1127 594 1145 q 609 1090 609 1109 q 598 1048 609 1068 q 564 1015 587 1028 q 532 999 554 1009 q 479 977 509 989 q 415 951 450 965 q 346 925 380 938 q 280 901 311 912 q 224 881 248 889 q 195 870 207 875 q 180 864 184 866 l 146 916 m 54 49 l 173 49 l 173 706 l 54 706 l 54 755 l 576 755 l 576 49 l 695 49 l 695 0 l 54 0 l 54 49 z "},"":{"ha":730,"x_min":19,"x_max":695,"o":"m 19 901 l 349 1198 l 680 901 l 647 857 l 349 991 l 51 857 l 19 901 m 54 49 l 173 49 l 173 706 l 54 706 l 54 755 l 576 755 l 576 49 l 695 49 l 695 0 l 54 0 l 54 49 z "},"":{"ha":730,"x_min":35,"x_max":695,"o":"m 541 892 q 494 902 516 892 q 457 927 473 911 q 432 965 441 943 q 422 1010 422 986 q 432 1057 422 1035 q 457 1095 441 1078 q 494 1120 473 1111 q 541 1129 516 1129 q 587 1120 566 1129 q 625 1095 608 1111 q 650 1057 641 1078 q 659 1010 659 1035 q 650 965 659 986 q 625 927 641 943 q 587 902 608 911 q 541 892 566 892 m 153 892 q 107 902 129 892 q 69 927 85 911 q 44 965 53 943 q 35 1010 35 986 q 44 1057 35 1035 q 69 1095 53 1078 q 107 1120 85 1111 q 153 1129 129 1129 q 199 1120 178 1129 q 237 1095 221 1111 q 262 1057 253 1078 q 271 1010 271 1035 q 262 965 271 986 q 237 927 253 943 q 199 902 221 911 q 153 892 178 892 m 54 49 l 173 49 l 173 706 l 54 706 l 54 755 l 576 755 l 576 49 l 695 49 l 695 0 l 54 0 l 54 49 z "},"":{"ha":1100,"x_min":60,"x_max":1026,"o":"m 60 343 q 86 487 60 423 q 160 594 112 550 q 275 662 208 639 q 428 686 343 686 q 526 678 479 686 q 613 659 573 670 q 574 803 600 735 q 506 926 549 870 l 382 802 l 323 861 l 448 987 q 357 1046 408 1021 q 240 1088 306 1072 l 258 1129 q 406 1111 336 1124 q 538 1078 476 1097 l 701 1241 l 761 1181 l 625 1045 q 801 939 726 1001 q 926 800 876 876 q 1001 636 976 724 q 1026 454 1026 548 q 1003 254 1026 343 q 922 103 979 165 q 767 8 864 41 q 523 -26 670 -26 q 364 -10 433 -26 q 244 33 295 6 q 157 97 193 60 q 101 174 122 133 q 70 258 79 215 q 60 343 60 302 m 427 306 q 435 165 427 219 q 459 80 444 111 q 494 38 474 50 q 536 27 514 27 q 584 48 566 27 q 614 110 603 68 q 629 212 625 151 q 633 353 633 273 q 631 471 633 412 q 623 585 629 529 q 566 591 593 591 q 505 575 532 591 q 461 524 479 559 q 435 435 444 489 q 427 306 427 381 z "},"":{"ha":1314,"x_min":54,"x_max":1291,"o":"m 328 928 q 347 1009 332 972 q 387 1072 362 1046 q 446 1113 412 1099 q 524 1128 481 1128 q 605 1115 563 1128 q 692 1085 648 1101 q 778 1056 735 1069 q 863 1043 821 1043 q 936 1058 901 1043 q 1004 1112 971 1073 l 1041 1088 q 1022 1007 1037 1044 q 982 944 1006 970 q 922 903 957 918 q 845 888 888 888 q 768 900 808 888 q 688 927 728 911 q 596 959 642 945 q 506 973 550 973 q 432 958 467 973 q 365 905 397 943 l 328 928 m 54 49 l 173 49 l 173 706 l 54 706 l 54 755 l 576 755 l 576 668 q 629 715 598 694 q 697 751 660 736 q 777 773 734 766 q 864 781 819 781 q 1016 756 956 781 q 1111 688 1076 732 q 1159 580 1145 644 q 1173 439 1173 517 l 1173 49 l 1291 49 l 1291 0 l 701 0 l 701 49 l 769 49 l 769 439 q 765 553 769 509 q 751 623 761 597 q 724 658 741 648 q 681 668 707 668 q 635 657 655 668 q 603 627 616 646 q 583 580 589 607 q 576 521 576 553 l 576 49 l 644 49 l 644 0 l 54 0 l 54 49 z "},"":{"ha":1145,"x_min":60,"x_max":1085,"o":"m 372 1014 q 338 1047 349 1027 q 327 1090 327 1067 q 334 1127 327 1109 q 354 1158 342 1145 q 384 1180 367 1172 q 420 1188 401 1188 q 443 1185 431 1188 q 466 1176 454 1183 q 495 1156 475 1171 q 541 1121 515 1141 q 595 1077 566 1101 q 653 1030 625 1053 q 708 984 682 1006 q 753 946 734 962 q 777 925 768 933 q 790 916 787 918 l 756 863 q 741 870 752 865 q 711 880 729 874 q 656 900 688 888 q 590 924 625 911 q 521 951 555 937 q 456 977 486 964 q 404 999 427 989 q 372 1014 382 1008 m 60 377 q 92 538 60 465 q 188 666 124 612 q 348 750 252 720 q 573 781 444 781 q 798 750 702 781 q 958 666 894 720 q 1053 538 1021 612 q 1085 377 1085 465 q 1053 216 1085 290 q 958 89 1021 142 q 798 4 894 35 q 573 -26 702 -26 q 348 4 444 -26 q 188 89 252 35 q 92 216 124 142 q 60 377 60 290 m 573 16 q 617 33 599 16 q 647 92 635 50 q 664 202 659 133 q 669 377 669 272 q 664 552 669 483 q 647 663 659 622 q 617 722 635 705 q 573 739 599 739 q 528 722 547 739 q 498 663 510 705 q 482 552 487 622 q 477 377 477 483 q 482 202 477 272 q 498 92 487 133 q 528 33 510 50 q 573 16 547 16 z "},"":{"ha":1145,"x_min":60,"x_max":1085,"o":"m 370 916 q 382 926 373 918 q 407 947 392 934 q 452 985 426 963 q 506 1030 477 1007 q 564 1078 535 1054 q 619 1121 593 1101 q 664 1156 644 1141 q 694 1177 684 1171 q 717 1186 705 1183 q 740 1189 728 1189 q 775 1181 759 1189 q 805 1159 792 1173 q 825 1127 818 1145 q 833 1090 833 1109 q 822 1048 833 1068 q 787 1015 811 1028 q 755 999 778 1009 q 703 977 733 989 q 639 951 673 965 q 570 925 604 938 q 504 901 535 912 q 448 881 472 889 q 419 870 431 875 q 404 864 408 866 l 370 916 m 60 377 q 92 538 60 465 q 188 666 124 612 q 348 750 252 720 q 573 781 444 781 q 798 750 702 781 q 958 666 894 720 q 1053 538 1021 612 q 1085 377 1085 465 q 1053 216 1085 290 q 958 89 1021 142 q 798 4 894 35 q 573 -26 702 -26 q 348 4 444 -26 q 188 89 252 35 q 92 216 124 142 q 60 377 60 290 m 573 16 q 617 33 599 16 q 647 92 635 50 q 664 202 659 133 q 669 377 669 272 q 664 552 669 483 q 647 663 659 622 q 617 722 635 705 q 573 739 599 739 q 528 722 547 739 q 498 663 510 705 q 482 552 487 622 q 477 377 477 483 q 482 202 477 272 q 498 92 487 133 q 528 33 510 50 q 573 16 547 16 z "},"":{"ha":1145,"x_min":60,"x_max":1085,"o":"m 243 901 l 573 1198 l 903 901 l 871 857 l 573 991 l 275 857 l 243 901 m 60 377 q 92 538 60 465 q 188 666 124 612 q 348 750 252 720 q 573 781 444 781 q 798 750 702 781 q 958 666 894 720 q 1053 538 1021 612 q 1085 377 1085 465 q 1053 216 1085 290 q 958 89 1021 142 q 798 4 894 35 q 573 -26 702 -26 q 348 4 444 -26 q 188 89 252 35 q 92 216 124 142 q 60 377 60 290 m 573 16 q 617 33 599 16 q 647 92 635 50 q 664 202 659 133 q 669 377 669 272 q 664 552 669 483 q 647 663 659 622 q 617 722 635 705 q 573 739 599 739 q 528 722 547 739 q 498 663 510 705 q 482 552 487 622 q 477 377 477 483 q 482 202 477 272 q 498 92 487 133 q 528 33 510 50 q 573 16 547 16 z "},"":{"ha":1145,"x_min":60,"x_max":1085,"o":"m 234 928 q 253 1009 238 972 q 293 1072 269 1046 q 353 1113 318 1099 q 430 1128 387 1128 q 512 1115 469 1128 q 598 1085 554 1101 q 685 1056 642 1069 q 769 1043 728 1043 q 842 1058 807 1043 q 910 1112 878 1073 l 947 1088 q 928 1007 943 1044 q 888 944 913 970 q 829 903 863 918 q 751 888 794 888 q 675 900 715 888 q 594 927 635 911 q 502 959 548 945 q 412 973 456 973 q 338 958 374 973 q 271 905 303 943 l 234 928 m 60 377 q 92 538 60 465 q 188 666 124 612 q 348 750 252 720 q 573 781 444 781 q 798 750 702 781 q 958 666 894 720 q 1053 538 1021 612 q 1085 377 1085 465 q 1053 216 1085 290 q 958 89 1021 142 q 798 4 894 35 q 573 -26 702 -26 q 348 4 444 -26 q 188 89 252 35 q 92 216 124 142 q 60 377 60 290 m 573 16 q 617 33 599 16 q 647 92 635 50 q 664 202 659 133 q 669 377 669 272 q 664 552 669 483 q 647 663 659 622 q 617 722 635 705 q 573 739 599 739 q 528 722 547 739 q 498 663 510 705 q 482 552 487 622 q 477 377 477 483 q 482 202 477 272 q 498 92 487 133 q 528 33 510 50 q 573 16 547 16 z "},"":{"ha":1145,"x_min":60,"x_max":1085,"o":"m 765 892 q 718 902 740 892 q 681 927 696 911 q 655 965 665 943 q 646 1010 646 986 q 655 1057 646 1035 q 681 1095 665 1078 q 718 1120 696 1111 q 765 1129 740 1129 q 811 1120 789 1129 q 848 1095 832 1111 q 874 1057 865 1078 q 883 1010 883 1035 q 874 965 883 986 q 848 927 865 943 q 811 902 832 911 q 765 892 789 892 m 377 892 q 331 902 353 892 q 293 927 309 911 q 268 965 277 943 q 258 1010 258 986 q 268 1057 258 1035 q 293 1095 277 1078 q 331 1120 309 1111 q 377 1129 353 1129 q 423 1120 401 1129 q 461 1095 445 1111 q 486 1057 477 1078 q 495 1010 495 1035 q 486 965 495 986 q 461 927 477 943 q 423 902 445 911 q 377 892 401 892 m 60 377 q 92 538 60 465 q 188 666 124 612 q 348 750 252 720 q 573 781 444 781 q 798 750 702 781 q 958 666 894 720 q 1053 538 1021 612 q 1085 377 1085 465 q 1053 216 1085 290 q 958 89 1021 142 q 798 4 894 35 q 573 -26 702 -26 q 348 4 444 -26 q 188 89 252 35 q 92 216 124 142 q 60 377 60 290 m 573 16 q 617 33 599 16 q 647 92 635 50 q 664 202 659 133 q 669 377 669 272 q 664 552 669 483 q 647 663 659 622 q 617 722 635 705 q 573 739 599 739 q 528 722 547 739 q 498 663 510 705 q 482 552 487 622 q 477 377 477 483 q 482 202 477 272 q 498 92 487 133 q 528 33 510 50 q 573 16 547 16 z "},"":{"ha":728,"x_min":60,"x_max":667,"o":"m 363 515 q 324 524 342 515 q 291 545 305 532 q 269 577 277 559 q 261 617 261 596 q 269 657 261 638 q 291 690 277 676 q 324 711 305 703 q 363 720 342 720 q 403 711 385 720 q 435 690 422 703 q 457 657 449 676 q 465 617 465 638 q 457 577 465 596 q 435 545 449 559 q 403 524 422 532 q 363 515 385 515 m 60 431 l 667 431 l 667 347 l 60 347 l 60 431 m 261 163 q 269 203 261 184 q 291 235 277 222 q 324 257 305 249 q 363 265 342 265 q 403 257 385 265 q 435 235 422 249 q 457 203 449 222 q 465 163 465 184 q 457 123 465 142 q 435 91 449 104 q 403 69 422 77 q 363 61 385 61 q 324 69 342 61 q 291 91 305 77 q 269 123 277 104 q 261 163 261 142 z "},"":{"ha":1145,"x_min":60,"x_max":1085,"o":"m 239 52 q 104 190 149 106 q 60 377 60 273 q 92 538 60 465 q 188 666 124 612 q 348 750 252 720 q 573 781 444 781 q 713 770 649 781 q 831 739 777 759 l 943 869 l 1000 819 l 902 705 q 1040 567 995 651 q 1085 377 1085 482 q 1053 216 1085 290 q 958 89 1021 142 q 798 4 894 35 q 573 -26 702 -26 q 430 -15 495 -26 q 311 17 365 -3 l 205 -106 l 148 -54 l 239 52 m 664 545 q 653 637 660 600 q 634 697 646 674 q 608 729 623 720 q 573 739 593 739 q 528 722 547 739 q 498 663 510 705 q 482 552 487 622 q 477 377 477 483 l 477 328 l 664 545 m 481 215 q 492 120 484 158 q 510 59 499 82 q 537 26 522 36 q 573 16 553 16 q 617 33 599 16 q 647 92 635 50 q 664 202 659 133 q 669 377 669 272 q 669 406 669 392 q 668 433 669 419 l 481 215 z "},"":{"ha":1295,"x_min":22,"x_max":1259,"o":"m 427 1014 q 392 1047 403 1027 q 381 1090 381 1067 q 389 1127 381 1109 q 409 1158 396 1145 q 438 1180 421 1172 q 474 1188 455 1188 q 497 1185 486 1188 q 520 1176 509 1183 q 550 1156 530 1171 q 595 1121 570 1141 q 650 1077 621 1101 q 708 1030 679 1053 q 762 984 736 1006 q 807 946 788 962 q 831 925 822 933 q 844 916 841 918 l 810 863 q 795 870 806 865 q 766 880 783 874 q 710 900 742 888 q 644 924 679 911 q 575 951 610 937 q 511 977 541 964 q 458 999 481 989 q 427 1014 436 1008 m 141 706 l 22 706 l 22 755 l 545 755 l 545 316 q 549 202 545 246 q 563 132 553 157 q 590 97 573 106 q 633 87 607 87 q 678 98 659 87 q 711 128 698 109 q 731 175 724 148 q 737 234 737 202 l 737 706 l 637 706 l 637 755 l 1141 755 l 1141 49 l 1259 49 l 1259 0 l 737 0 l 737 87 q 685 39 715 60 q 617 4 654 18 q 537 -18 580 -11 q 450 -26 495 -26 q 297 -2 357 -26 q 203 67 237 22 q 155 174 168 111 q 141 316 141 237 l 141 706 z "},"":{"ha":1295,"x_min":22,"x_max":1259,"o":"m 424 916 q 437 926 427 918 q 461 947 446 934 q 506 985 480 963 q 561 1030 532 1007 q 618 1078 589 1054 q 673 1121 648 1101 q 718 1156 699 1141 q 748 1177 738 1171 q 771 1186 760 1183 q 794 1189 783 1189 q 830 1181 813 1189 q 859 1159 846 1173 q 880 1127 872 1145 q 887 1090 887 1109 q 876 1048 887 1068 q 842 1015 865 1028 q 810 999 832 1009 q 758 977 787 989 q 693 951 728 965 q 624 925 659 938 q 558 901 589 912 q 503 881 526 889 q 473 870 485 875 q 458 864 462 866 l 424 916 m 141 706 l 22 706 l 22 755 l 545 755 l 545 316 q 549 202 545 246 q 563 132 553 157 q 590 97 573 106 q 633 87 607 87 q 678 98 659 87 q 711 128 698 109 q 731 175 724 148 q 737 234 737 202 l 737 706 l 637 706 l 637 755 l 1141 755 l 1141 49 l 1259 49 l 1259 0 l 737 0 l 737 87 q 685 39 715 60 q 617 4 654 18 q 537 -18 580 -11 q 450 -26 495 -26 q 297 -2 357 -26 q 203 67 237 22 q 155 174 168 111 q 141 316 141 237 l 141 706 z "},"":{"ha":1295,"x_min":22,"x_max":1259,"o":"m 297 901 l 627 1198 l 958 901 l 925 857 l 627 991 l 329 857 l 297 901 m 141 706 l 22 706 l 22 755 l 545 755 l 545 316 q 549 202 545 246 q 563 132 553 157 q 590 97 573 106 q 633 87 607 87 q 678 98 659 87 q 711 128 698 109 q 731 175 724 148 q 737 234 737 202 l 737 706 l 637 706 l 637 755 l 1141 755 l 1141 49 l 1259 49 l 1259 0 l 737 0 l 737 87 q 685 39 715 60 q 617 4 654 18 q 537 -18 580 -11 q 450 -26 495 -26 q 297 -2 357 -26 q 203 67 237 22 q 155 174 168 111 q 141 316 141 237 l 141 706 z "},"":{"ha":1295,"x_min":22,"x_max":1259,"o":"m 819 892 q 772 902 794 892 q 735 927 751 911 q 710 965 719 943 q 701 1010 701 986 q 710 1057 701 1035 q 735 1095 719 1078 q 772 1120 751 1111 q 819 1129 794 1129 q 865 1120 844 1129 q 903 1095 886 1111 q 928 1057 919 1078 q 937 1010 937 1035 q 928 965 937 986 q 903 927 919 943 q 865 902 886 911 q 819 892 844 892 m 431 892 q 385 902 407 892 q 347 927 363 911 q 322 965 331 943 q 313 1010 313 986 q 322 1057 313 1035 q 347 1095 331 1078 q 385 1120 363 1111 q 431 1129 407 1129 q 477 1120 456 1129 q 515 1095 499 1111 q 540 1057 531 1078 q 549 1010 549 1035 q 540 965 549 986 q 515 927 531 943 q 477 902 499 911 q 431 892 456 892 m 141 706 l 22 706 l 22 755 l 545 755 l 545 316 q 549 202 545 246 q 563 132 553 157 q 590 97 573 106 q 633 87 607 87 q 678 98 659 87 q 711 128 698 109 q 731 175 724 148 q 737 234 737 202 l 737 706 l 637 706 l 637 755 l 1141 755 l 1141 49 l 1259 49 l 1259 0 l 737 0 l 737 87 q 685 39 715 60 q 617 4 654 18 q 537 -18 580 -11 q 450 -26 495 -26 q 297 -2 357 -26 q 203 67 237 22 q 155 174 168 111 q 141 316 141 237 l 141 706 z "},"":{"ha":1063,"x_min":-6,"x_max":1073,"o":"m 509 916 q 522 926 512 918 q 546 947 531 934 q 591 985 565 963 q 645 1030 616 1007 q 703 1078 674 1054 q 758 1121 732 1101 q 803 1156 783 1141 q 833 1177 823 1171 q 856 1186 844 1183 q 879 1189 867 1189 q 915 1181 898 1189 q 944 1159 931 1173 q 964 1127 957 1145 q 972 1090 972 1109 q 961 1048 972 1068 q 926 1015 950 1028 q 895 999 917 1009 q 842 977 872 989 q 778 951 812 965 q 709 925 743 938 q 643 901 674 912 q 587 881 611 889 q 558 870 570 875 q 543 864 547 866 l 509 916 m 18 -168 q 32 -118 18 -142 q 68 -78 45 -95 q 122 -50 91 -60 q 188 -40 153 -40 q 252 -50 222 -40 q 306 -75 283 -59 q 343 -114 330 -92 q 357 -162 357 -136 q 345 -208 357 -186 q 311 -241 333 -229 q 419 -204 372 -235 q 506 -119 467 -174 l 112 706 l -6 706 l -6 755 l 626 755 l 626 706 l 535 706 l 714 292 q 750 370 731 329 q 786 451 768 411 q 821 529 804 492 q 849 595 837 566 q 870 643 862 624 q 879 666 878 662 q 881 674 881 671 q 872 689 881 683 q 846 699 863 695 q 807 704 829 703 q 757 706 784 706 l 757 755 l 1073 755 l 1073 706 q 1022 704 1043 706 q 985 696 1000 701 q 962 683 970 691 q 948 663 953 675 q 930 622 945 656 q 890 534 915 587 q 835 412 866 480 q 768 269 804 343 q 696 118 733 194 q 625 -27 660 42 q 557 -142 592 -92 q 476 -226 522 -192 q 370 -278 431 -260 q 227 -296 310 -296 q 146 -290 184 -296 q 80 -268 109 -283 q 35 -229 52 -253 q 18 -168 18 -204 z "},"":{"ha":1317,"x_min":83,"x_max":1247,"o":"m 203 -222 l 203 977 l 83 977 l 83 1025 l 606 1025 l 606 701 q 685 759 634 738 q 819 781 735 781 q 1008 748 928 781 q 1142 660 1089 715 q 1221 531 1195 604 q 1247 377 1247 458 q 1221 223 1247 296 q 1142 95 1195 151 q 1008 7 1089 39 q 819 -26 928 -26 q 692 -7 743 -26 q 606 40 641 12 l 606 -222 l 725 -222 l 725 -271 l 84 -271 l 84 -222 l 203 -222 m 606 213 q 613 157 606 186 q 634 104 620 128 q 671 63 648 79 q 725 47 693 47 q 774 65 753 47 q 807 121 794 82 q 825 223 819 160 q 831 377 831 286 q 825 532 831 470 q 806 633 819 595 q 770 687 792 671 q 716 703 749 703 q 670 692 690 703 q 635 658 650 682 q 614 598 621 635 q 606 509 606 562 l 606 213 z "},"":{"ha":1063,"x_min":-6,"x_max":1073,"o":"m 817 892 q 770 902 792 892 q 733 927 749 911 q 708 965 717 943 q 699 1010 699 986 q 708 1057 699 1035 q 733 1095 717 1078 q 770 1120 749 1111 q 817 1129 792 1129 q 863 1120 842 1129 q 901 1095 884 1111 q 926 1057 917 1078 q 935 1010 935 1035 q 926 965 935 986 q 901 927 917 943 q 863 902 884 911 q 817 892 842 892 m 429 892 q 383 902 405 892 q 345 927 361 911 q 320 965 329 943 q 311 1010 311 986 q 320 1057 311 1035 q 345 1095 329 1078 q 383 1120 361 1111 q 429 1129 405 1129 q 475 1120 454 1129 q 513 1095 497 1111 q 538 1057 529 1078 q 547 1010 547 1035 q 538 965 547 986 q 513 927 529 943 q 475 902 497 911 q 429 892 454 892 m 18 -168 q 32 -118 18 -142 q 68 -78 45 -95 q 122 -50 91 -60 q 188 -40 153 -40 q 252 -50 222 -40 q 306 -75 283 -59 q 343 -114 330 -92 q 357 -162 357 -136 q 345 -208 357 -186 q 311 -241 333 -229 q 419 -204 372 -235 q 506 -119 467 -174 l 112 706 l -6 706 l -6 755 l 626 755 l 626 706 l 535 706 l 714 292 q 750 370 731 329 q 786 451 768 411 q 821 529 804 492 q 849 595 837 566 q 870 643 862 624 q 879 666 878 662 q 881 674 881 671 q 872 689 881 683 q 846 699 863 695 q 807 704 829 703 q 757 706 784 706 l 757 755 l 1073 755 l 1073 706 q 1022 704 1043 706 q 985 696 1000 701 q 962 683 970 691 q 948 663 953 675 q 930 622 945 656 q 890 534 915 587 q 835 412 866 480 q 768 269 804 343 q 696 118 733 194 q 625 -27 660 42 q 557 -142 592 -92 q 476 -226 522 -192 q 370 -278 431 -260 q 227 -296 310 -296 q 146 -290 184 -296 q 80 -268 109 -283 q 35 -229 52 -253 q 18 -168 18 -204 z "},"":{"ha":1314,"x_min":27,"x_max":1291,"o":"m 54 49 l 173 49 l 173 814 l 27 814 l 27 891 l 173 891 l 173 977 l 54 977 l 54 1025 l 576 1025 l 576 891 l 709 891 l 709 814 l 576 814 l 576 668 q 629 715 598 694 q 697 751 660 736 q 777 773 734 766 q 864 781 819 781 q 1016 756 956 781 q 1111 688 1076 732 q 1159 580 1145 644 q 1173 439 1173 517 l 1173 49 l 1291 49 l 1291 0 l 701 0 l 701 49 l 769 49 l 769 439 q 765 553 769 509 q 751 623 761 597 q 724 658 741 648 q 681 668 707 668 q 635 657 655 668 q 603 627 616 646 q 583 580 589 607 q 576 521 576 553 l 576 49 l 644 49 l 644 0 l 54 0 l 54 49 z "},"":{"ha":839,"x_min":65,"x_max":779,"o":"m 65 1082 q 84 1163 69 1126 q 124 1226 100 1200 q 184 1267 149 1253 q 261 1282 218 1282 q 345 1268 302 1282 q 433 1238 388 1255 q 517 1210 475 1222 q 600 1197 559 1197 q 673 1212 638 1197 q 741 1265 709 1227 l 779 1242 q 759 1161 774 1198 q 719 1098 744 1124 q 660 1057 694 1072 q 583 1042 625 1042 q 506 1054 546 1042 q 426 1081 467 1065 q 334 1113 380 1099 q 243 1127 288 1127 q 170 1112 205 1127 q 102 1059 134 1097 l 65 1082 m 67 54 l 186 54 l 186 908 l 67 908 l 67 961 l 772 961 l 772 908 l 654 908 l 654 54 l 772 54 l 772 0 l 67 0 l 67 54 z "},"":{"ha":730,"x_min":10,"x_max":724,"o":"m 10 928 q 30 1009 14 972 q 70 1072 45 1046 q 129 1113 94 1099 q 206 1128 163 1128 q 288 1115 245 1128 q 374 1085 330 1101 q 461 1056 418 1069 q 545 1043 504 1043 q 618 1058 583 1043 q 686 1112 654 1073 l 724 1088 q 704 1007 720 1044 q 664 944 689 970 q 605 903 640 918 q 528 888 570 888 q 451 900 491 888 q 370 927 411 911 q 278 959 324 945 q 189 973 233 973 q 115 958 150 973 q 47 905 79 943 l 10 928 m 54 49 l 173 49 l 173 706 l 54 706 l 54 755 l 576 755 l 576 49 l 695 49 l 695 0 l 54 0 l 54 49 z "},"":{"ha":730,"x_min":54,"x_max":695,"o":"m 54 49 l 173 49 l 173 706 l 54 706 l 54 755 l 576 755 l 576 49 l 695 49 l 695 0 l 54 0 l 54 49 z "},"":{"ha":1499,"x_min":54,"x_max":1354,"o":"m 937 967 q 954 1034 937 1006 q 999 1079 970 1061 q 1063 1104 1027 1096 q 1139 1112 1099 1112 q 1214 1104 1178 1112 q 1279 1079 1251 1096 q 1324 1034 1307 1061 q 1341 968 1341 1007 q 1324 901 1341 928 q 1279 856 1307 873 q 1214 831 1251 839 q 1139 823 1178 823 q 1063 831 1099 823 q 999 856 1027 839 q 954 901 970 873 q 937 967 937 928 m 368 823 q 292 831 328 823 q 227 856 255 839 q 182 901 199 873 q 165 967 165 928 q 182 1034 165 1006 q 227 1079 199 1061 q 292 1104 255 1096 q 368 1112 328 1112 q 443 1104 406 1112 q 507 1079 479 1096 q 552 1034 535 1061 q 569 968 569 1007 q 552 901 569 928 q 507 856 535 873 q 443 831 479 839 q 368 823 406 823 m 672 -109 q 684 -59 672 -83 q 719 -19 696 -36 q 770 9 741 -1 q 836 19 800 19 q 900 9 871 19 q 951 -19 930 -1 q 985 -59 973 -36 q 998 -109 998 -83 q 988 -152 998 -132 q 963 -189 979 -173 q 924 -217 947 -205 q 873 -234 901 -229 q 912 -244 890 -239 q 953 -249 935 -249 q 1005 -237 984 -249 q 1039 -207 1026 -226 q 1056 -165 1051 -189 q 1061 -117 1061 -142 q 1054 -68 1061 -92 q 1035 -25 1046 -45 q 1010 13 1023 -5 q 983 46 996 31 q 960 78 969 64 q 951 104 951 92 l 951 706 l 833 706 l 833 755 l 1354 755 l 1354 11 q 1264 -223 1354 -150 q 996 -296 1173 -296 q 873 -284 932 -296 q 770 -248 814 -272 q 699 -190 725 -224 q 672 -109 672 -155 m 54 49 l 173 49 l 173 706 l 54 706 l 54 755 l 576 755 l 576 49 l 695 49 l 695 0 l 54 0 l 54 49 z "},"":{"ha":891,"x_min":-16,"x_max":849,"o":"m 155 1072 l 492 1314 l 829 1072 l 789 1020 l 492 1120 l 193 1020 l 155 1072 m -16 163 q -4 213 -16 189 q 29 253 7 236 q 80 281 50 271 q 144 291 109 291 q 209 281 179 291 q 259 253 238 271 q 292 213 280 236 q 303 163 303 189 q 275 88 303 121 q 200 42 248 56 q 229 34 213 37 q 259 31 245 31 q 306 42 287 31 q 338 70 326 52 q 355 111 350 87 q 361 161 361 134 q 346 229 361 193 q 314 301 332 264 q 278 378 294 340 q 262 448 262 416 l 262 908 l 144 908 l 144 961 l 849 961 l 849 908 l 730 908 l 730 283 q 708 133 730 192 q 643 38 686 73 q 533 -12 599 3 q 380 -26 468 -26 q 229 -13 300 -26 q 102 24 157 0 q 16 84 47 49 q -16 163 -16 119 z "},"":{"ha":775,"x_min":-52,"x_max":725,"o":"m 64 901 l 395 1198 l 725 901 l 692 857 l 395 991 l 96 857 l 64 901 m 112 19 q 177 9 147 19 q 228 -19 206 -1 q 262 -59 250 -36 q 274 -109 274 -83 q 265 -152 274 -132 q 239 -189 256 -173 q 200 -217 223 -205 q 150 -234 177 -229 q 189 -244 166 -239 q 229 -249 212 -249 q 281 -237 260 -249 q 315 -207 302 -226 q 333 -165 328 -189 q 338 -117 338 -142 q 330 -68 338 -92 q 311 -25 323 -45 q 286 13 300 -5 q 260 46 273 31 q 236 78 245 64 q 227 104 227 92 l 227 706 l 109 706 l 109 755 l 631 755 l 631 11 q 540 -223 631 -150 q 272 -296 450 -296 q 150 -284 208 -296 q 46 -248 91 -272 q -25 -190 1 -224 q -52 -109 -52 -155 q -39 -59 -52 -83 q -5 -19 -27 -36 q 47 9 17 -1 q 112 19 77 19 z "},"":{"ha":1240,"x_min":54,"x_max":1211,"o":"m 54 49 l 173 49 l 173 977 l 54 977 l 54 1025 l 576 1025 l 576 397 q 622 440 595 415 q 677 494 648 466 q 735 551 707 522 q 788 603 764 579 q 827 644 812 627 q 846 666 843 661 q 849 670 848 669 q 849 674 849 672 q 840 689 849 683 q 814 699 831 695 q 775 704 798 703 q 725 706 752 706 l 725 755 l 1137 755 l 1137 706 q 1081 705 1109 706 q 1029 699 1054 703 q 984 686 1005 694 q 948 663 964 677 q 904 623 930 648 q 847 567 878 597 q 782 503 816 536 q 715 436 747 469 q 753 438 734 437 q 790 439 772 439 q 926 428 869 439 q 1019 391 983 417 q 1072 322 1055 365 q 1088 215 1088 279 q 1088 204 1088 209 q 1088 195 1088 200 q 1088 182 1088 190 q 1087 163 1088 175 q 1086 144 1086 152 q 1086 132 1086 137 q 1086 121 1086 126 q 1086 111 1086 117 q 1092 80 1086 92 q 1114 67 1099 67 q 1131 74 1124 67 q 1144 97 1139 81 q 1151 139 1149 113 q 1154 205 1154 165 l 1211 205 l 1211 182 q 1196 74 1211 115 q 1148 11 1181 33 q 1065 -19 1116 -12 q 942 -26 1014 -26 q 812 -11 862 -26 q 734 32 762 3 q 697 102 707 60 q 687 199 687 144 q 680 310 687 267 q 648 368 672 352 q 607 327 626 346 q 576 295 589 309 l 576 49 l 661 49 l 661 0 l 54 0 l 54 49 m 465 -203 q 473 -157 465 -180 q 499 -116 481 -134 q 543 -85 516 -97 q 606 -74 569 -74 q 674 -87 646 -74 q 720 -121 703 -100 q 746 -169 738 -142 q 754 -222 754 -195 q 734 -319 754 -278 q 681 -389 713 -361 q 607 -433 648 -417 q 525 -453 566 -449 l 505 -427 q 564 -408 538 -419 q 607 -383 590 -396 q 633 -356 625 -370 q 642 -332 642 -343 q 626 -313 642 -317 q 588 -304 610 -308 q 547 -298 568 -302 q 507 -284 525 -294 q 477 -255 489 -274 q 465 -203 465 -236 z "},"":{"ha":1240,"x_min":54,"x_max":1211,"o":"m 54 49 l 173 49 l 173 706 l 54 706 l 54 755 l 576 755 l 576 397 q 622 440 595 415 q 677 494 648 466 q 735 551 707 522 q 788 603 764 579 q 827 644 812 627 q 846 666 843 661 q 849 670 848 669 q 849 674 849 672 q 840 689 849 683 q 814 699 831 695 q 775 704 798 703 q 725 706 752 706 l 725 755 l 1137 755 l 1137 706 q 1081 705 1109 706 q 1029 699 1054 703 q 984 686 1005 694 q 948 663 964 677 q 904 623 930 648 q 847 567 878 597 q 782 503 816 536 q 715 436 747 469 q 753 438 734 437 q 790 439 772 439 q 926 428 869 439 q 1019 391 983 417 q 1072 322 1055 365 q 1088 215 1088 279 q 1088 204 1088 209 q 1088 195 1088 200 q 1088 182 1088 190 q 1087 163 1088 175 q 1086 144 1086 152 q 1086 132 1086 137 q 1086 121 1086 126 q 1086 111 1086 117 q 1092 80 1086 92 q 1114 67 1099 67 q 1131 74 1124 67 q 1144 97 1139 81 q 1151 139 1149 113 q 1154 205 1154 165 l 1211 205 l 1211 182 q 1196 74 1211 115 q 1148 11 1181 33 q 1065 -19 1116 -12 q 942 -26 1014 -26 q 812 -11 862 -26 q 734 32 762 3 q 697 102 707 60 q 687 199 687 144 q 680 310 687 267 q 648 368 672 352 q 607 327 626 346 q 576 295 589 309 l 576 49 l 695 49 l 695 0 l 54 0 l 54 49 z "},"":{"ha":1097,"x_min":54,"x_max":1018,"o":"m 54 49 l 173 49 l 173 977 l 54 977 l 54 1025 l 576 1025 l 576 49 l 695 49 l 695 0 l 54 0 l 54 49 m 652 428 q 667 499 652 466 q 706 558 681 533 q 764 597 731 583 q 836 611 798 611 q 906 597 873 611 q 964 558 939 583 q 1004 499 989 533 q 1018 428 1018 466 q 1004 357 1018 390 q 964 299 989 324 q 906 260 939 274 q 836 245 873 245 q 764 260 798 245 q 706 299 731 274 q 667 357 681 324 q 652 428 652 390 z "},"":{"ha":1122,"x_min":67,"x_max":1086,"o":"m 67 54 l 186 54 l 186 389 l 76 357 l 76 432 l 186 465 l 186 908 l 67 908 l 67 961 l 772 961 l 772 908 l 654 908 l 654 596 l 1002 699 l 1002 624 l 654 521 l 654 54 l 869 54 l 1040 362 l 1086 362 l 1086 0 l 67 0 l 67 54 z "},"":{"ha":730,"x_min":35,"x_max":730,"o":"m 54 49 l 173 49 l 173 397 l 35 357 l 35 432 l 173 473 l 173 977 l 54 977 l 54 1025 l 576 1025 l 576 585 l 730 631 l 730 556 l 576 511 l 576 49 l 695 49 l 695 0 l 54 0 l 54 49 z "},"":{"ha":1265,"x_min":19,"x_max":1230,"o":"m 484 1097 q 503 1108 488 1099 q 542 1131 519 1117 q 594 1161 565 1144 q 655 1197 624 1179 q 718 1233 686 1215 q 775 1265 749 1251 q 823 1291 802 1280 q 854 1307 844 1302 q 872 1312 863 1310 q 890 1314 881 1314 q 926 1305 909 1314 q 955 1282 943 1297 q 974 1250 967 1268 q 981 1213 981 1232 q 967 1164 981 1187 q 924 1130 954 1141 q 892 1121 914 1126 q 842 1110 871 1116 q 778 1098 812 1104 q 709 1085 744 1091 q 640 1074 674 1079 q 578 1063 606 1068 q 526 1055 547 1058 q 500 1050 505 1051 l 484 1097 m 31 54 q 88 55 60 54 q 136 61 115 57 q 170 73 157 65 q 182 92 182 80 l 182 800 l 100 908 l 19 908 l 19 961 l 612 961 l 1048 387 l 1048 868 q 1039 888 1048 880 q 1015 900 1031 896 q 975 906 998 905 q 923 908 952 908 l 923 961 l 1230 961 l 1230 908 q 1139 901 1172 908 q 1105 868 1105 893 l 1105 0 l 762 0 l 240 724 l 240 96 q 251 74 240 82 q 282 61 262 66 q 328 55 301 57 q 384 54 354 54 l 384 0 l 31 0 l 31 54 z "},"":{"ha":1314,"x_min":54,"x_max":1291,"o":"m 505 916 q 517 926 508 918 q 542 947 527 934 q 587 985 561 963 q 641 1030 612 1007 q 699 1078 670 1054 q 754 1121 728 1101 q 799 1156 779 1141 q 829 1177 819 1171 q 852 1186 840 1183 q 875 1189 863 1189 q 910 1181 894 1189 q 940 1159 927 1173 q 960 1127 953 1145 q 968 1090 968 1109 q 957 1048 968 1068 q 922 1015 946 1028 q 890 999 913 1009 q 838 977 868 989 q 774 951 808 965 q 705 925 739 938 q 638 901 670 912 q 583 881 607 889 q 554 870 566 875 q 538 864 543 866 l 505 916 m 54 49 l 173 49 l 173 706 l 54 706 l 54 755 l 576 755 l 576 668 q 629 715 598 694 q 697 751 660 736 q 777 773 734 766 q 864 781 819 781 q 1016 756 956 781 q 1111 688 1076 732 q 1159 580 1145 644 q 1173 439 1173 517 l 1173 49 l 1291 49 l 1291 0 l 701 0 l 701 49 l 769 49 l 769 439 q 765 553 769 509 q 751 623 761 597 q 724 658 741 648 q 681 668 707 668 q 635 657 655 668 q 603 627 616 646 q 583 580 589 607 q 576 521 576 553 l 576 49 l 644 49 l 644 0 l 54 0 l 54 49 z "},"":{"ha":1792,"x_min":80,"x_max":1687,"o":"m 80 481 q 112 670 80 582 q 213 822 143 758 q 393 924 282 887 q 661 961 503 961 l 1654 961 l 1654 631 l 1608 631 l 1419 908 l 1190 908 l 1190 505 l 1293 505 l 1382 728 l 1426 728 l 1426 227 l 1382 227 l 1293 452 l 1190 452 l 1190 54 l 1443 54 l 1640 362 l 1687 362 l 1687 0 l 661 0 q 393 37 503 0 q 213 139 282 75 q 112 292 143 204 q 80 481 80 380 m 641 47 q 683 54 665 47 q 714 79 701 61 q 737 129 728 97 q 752 208 747 160 q 761 323 758 256 q 763 481 763 391 q 761 638 763 571 q 752 753 758 705 q 737 833 747 802 q 714 882 728 864 q 683 907 701 900 q 641 914 665 914 q 599 907 617 914 q 568 882 581 900 q 545 833 554 864 q 530 753 536 802 q 522 638 524 705 q 519 481 519 571 q 522 323 519 391 q 530 208 524 256 q 545 129 536 160 q 568 79 554 97 q 599 54 581 61 q 641 47 617 47 z "},"":{"ha":1652,"x_min":60,"x_max":1591,"o":"m 60 377 q 92 538 60 465 q 188 666 124 612 q 348 750 252 720 q 573 781 444 781 q 737 758 669 781 q 850 694 804 735 q 970 758 901 734 q 1130 781 1040 781 q 1340 752 1253 781 q 1483 671 1427 724 q 1565 543 1539 618 q 1591 377 1591 469 l 1047 377 q 1056 208 1047 273 q 1085 106 1065 143 q 1137 56 1105 69 q 1213 42 1168 42 q 1320 56 1270 42 q 1410 97 1371 71 q 1476 160 1450 123 q 1512 243 1503 197 l 1576 243 q 1541 131 1573 181 q 1456 46 1510 81 q 1331 -7 1403 12 q 1175 -26 1259 -26 q 990 0 1068 -26 q 857 67 911 25 q 743 -1 812 24 q 573 -26 673 -26 q 348 4 444 -26 q 188 89 252 35 q 92 216 124 142 q 60 377 60 290 m 1238 446 q 1230 587 1236 530 q 1212 677 1223 643 q 1183 725 1200 711 q 1143 739 1166 739 q 1102 725 1119 739 q 1073 677 1084 711 q 1055 587 1061 643 q 1048 446 1049 530 l 1238 446 m 573 16 q 617 33 599 16 q 647 92 635 50 q 664 202 659 133 q 669 377 669 272 q 664 552 669 483 q 647 663 659 622 q 617 722 635 705 q 573 739 599 739 q 528 722 547 739 q 498 663 510 705 q 482 552 487 622 q 477 377 477 483 q 482 202 477 272 q 498 92 487 133 q 528 33 510 50 q 573 16 547 16 z "},"":{"ha":1377,"x_min":67,"x_max":1335,"o":"m 514 1097 q 534 1108 518 1099 q 572 1131 549 1117 q 625 1161 595 1144 q 686 1197 654 1179 q 748 1233 717 1215 q 806 1265 779 1251 q 853 1291 833 1280 q 884 1307 874 1302 q 902 1312 893 1310 q 921 1314 911 1314 q 957 1305 940 1314 q 985 1282 973 1297 q 1005 1250 998 1268 q 1012 1213 1012 1232 q 998 1164 1012 1187 q 954 1130 984 1141 q 923 1121 945 1126 q 872 1110 901 1116 q 809 1098 843 1104 q 740 1085 774 1091 q 671 1074 705 1079 q 609 1063 637 1068 q 557 1055 578 1058 q 530 1050 536 1051 l 514 1097 m 67 54 l 186 54 l 186 908 l 67 908 l 67 961 l 842 961 q 1008 946 935 961 q 1131 900 1081 931 q 1207 822 1181 869 q 1233 710 1233 774 q 1210 610 1233 654 q 1133 535 1187 566 q 987 488 1078 505 q 760 471 896 471 q 968 459 882 470 q 1108 420 1054 448 q 1188 346 1163 393 q 1213 229 1213 300 q 1213 195 1213 209 q 1212 162 1213 181 q 1211 132 1211 142 q 1211 108 1211 121 q 1216 76 1211 87 q 1236 65 1222 65 q 1268 109 1258 65 q 1278 234 1278 152 l 1335 234 l 1335 212 q 1323 99 1335 145 q 1278 24 1310 53 q 1192 -17 1246 -4 q 1054 -29 1137 -29 q 921 -13 974 -29 q 837 37 868 4 q 792 117 805 69 q 779 229 779 165 q 772 342 779 298 q 750 411 765 386 q 711 446 735 437 q 654 456 687 456 l 654 54 l 772 54 l 772 0 l 67 0 l 67 54 m 654 509 q 718 518 690 509 q 763 549 745 527 q 789 611 781 572 q 798 710 798 650 q 789 809 798 770 q 763 869 781 847 q 718 900 745 891 q 654 908 690 908 l 654 509 z "},"":{"ha":1377,"x_min":67,"x_max":1335,"o":"m 67 54 l 186 54 l 186 908 l 67 908 l 67 961 l 842 961 q 1008 946 935 961 q 1131 900 1081 931 q 1207 822 1181 869 q 1233 710 1233 774 q 1210 610 1233 654 q 1133 535 1187 566 q 987 488 1078 505 q 760 471 896 471 q 968 459 882 470 q 1108 420 1054 448 q 1188 346 1163 393 q 1213 229 1213 300 q 1213 195 1213 209 q 1212 162 1213 181 q 1211 132 1211 142 q 1211 108 1211 121 q 1216 76 1211 87 q 1236 65 1222 65 q 1268 109 1258 65 q 1278 234 1278 152 l 1335 234 l 1335 212 q 1323 99 1335 145 q 1278 24 1310 53 q 1192 -17 1246 -4 q 1054 -29 1137 -29 q 921 -13 974 -29 q 837 37 868 4 q 792 117 805 69 q 779 229 779 165 q 772 342 779 298 q 750 411 765 386 q 711 446 735 437 q 654 456 687 456 l 654 54 l 772 54 l 772 0 l 67 0 l 67 54 m 654 509 q 718 518 690 509 q 763 549 745 527 q 789 611 781 572 q 798 710 798 650 q 789 809 798 770 q 763 869 781 847 q 718 900 745 891 q 654 908 690 908 l 654 509 m 548 -179 q 584 -106 548 -134 q 699 -78 620 -78 q 772 -87 742 -78 q 821 -111 802 -96 q 848 -149 840 -127 q 857 -199 857 -172 q 835 -295 857 -254 q 778 -362 813 -335 q 700 -404 743 -389 q 612 -422 656 -418 l 591 -396 q 654 -378 627 -389 q 700 -354 682 -367 q 728 -329 718 -342 q 737 -305 737 -316 q 733 -293 737 -298 q 721 -285 728 -288 q 702 -280 713 -282 q 680 -277 692 -279 q 635 -272 659 -275 q 592 -259 612 -269 q 561 -231 573 -249 q 548 -179 548 -212 z "},"":{"ha":1074,"x_min":54,"x_max":1061,"o":"m 54 49 l 173 49 l 173 706 l 54 706 l 54 755 l 576 755 l 576 668 q 628 715 598 694 q 694 750 658 736 q 772 773 730 765 q 859 781 814 781 q 943 769 905 781 q 1006 738 980 758 q 1047 690 1033 718 q 1061 631 1061 663 q 1045 573 1061 600 q 1003 526 1030 546 q 941 493 977 505 q 864 481 905 481 q 787 493 823 481 q 725 526 751 505 q 682 573 698 546 q 667 631 667 600 q 671 662 667 646 q 683 690 675 677 q 650 670 669 684 q 615 635 631 656 q 588 588 599 615 q 576 530 576 562 l 576 49 l 708 49 l 708 0 l 54 0 l 54 49 m 243 -203 q 252 -157 243 -180 q 277 -116 260 -134 q 321 -85 294 -97 q 385 -74 347 -74 q 453 -87 425 -74 q 498 -121 481 -100 q 524 -169 516 -142 q 532 -222 532 -195 q 512 -319 532 -278 q 459 -389 492 -361 q 386 -433 427 -417 q 303 -453 345 -449 l 283 -427 q 342 -408 317 -419 q 386 -383 368 -396 q 412 -356 403 -370 q 420 -332 420 -343 q 405 -313 420 -317 q 366 -304 389 -308 q 325 -298 347 -302 q 285 -284 303 -294 q 255 -255 267 -274 q 243 -203 243 -236 z "},"":{"ha":1377,"x_min":67,"x_max":1335,"o":"m 366 1256 l 406 1308 l 703 1207 l 1002 1308 l 1040 1256 l 703 1014 l 366 1256 m 67 54 l 186 54 l 186 908 l 67 908 l 67 961 l 842 961 q 1008 946 935 961 q 1131 900 1081 931 q 1207 822 1181 869 q 1233 710 1233 774 q 1210 610 1233 654 q 1133 535 1187 566 q 987 488 1078 505 q 760 471 896 471 q 968 459 882 470 q 1108 420 1054 448 q 1188 346 1163 393 q 1213 229 1213 300 q 1213 195 1213 209 q 1212 162 1213 181 q 1211 132 1211 142 q 1211 108 1211 121 q 1216 76 1211 87 q 1236 65 1222 65 q 1268 109 1258 65 q 1278 234 1278 152 l 1335 234 l 1335 212 q 1323 99 1335 145 q 1278 24 1310 53 q 1192 -17 1246 -4 q 1054 -29 1137 -29 q 921 -13 974 -29 q 837 37 868 4 q 792 117 805 69 q 779 229 779 165 q 772 342 779 298 q 750 411 765 386 q 711 446 735 437 q 654 456 687 456 l 654 54 l 772 54 l 772 0 l 67 0 l 67 54 m 654 509 q 718 518 690 509 q 763 549 745 527 q 789 611 781 572 q 798 710 798 650 q 789 809 798 770 q 763 869 781 847 q 718 900 745 891 q 654 908 690 908 l 654 509 z "},"":{"ha":1074,"x_min":54,"x_max":1061,"o":"m 245 1126 l 277 1171 l 576 1036 l 873 1171 l 906 1126 l 576 829 l 245 1126 m 54 49 l 173 49 l 173 706 l 54 706 l 54 755 l 576 755 l 576 668 q 628 715 598 694 q 694 750 658 736 q 772 773 730 765 q 859 781 814 781 q 943 769 905 781 q 1006 738 980 758 q 1047 690 1033 718 q 1061 631 1061 663 q 1045 573 1061 600 q 1003 526 1030 546 q 941 493 977 505 q 864 481 905 481 q 787 493 823 481 q 725 526 751 505 q 682 573 698 546 q 667 631 667 600 q 671 662 667 646 q 683 690 675 677 q 650 670 669 684 q 615 635 631 656 q 588 588 599 615 q 576 530 576 562 l 576 49 l 708 49 l 708 0 l 54 0 l 54 49 z "},"":{"ha":661,"x_min":0,"x_max":661,"o":"m 0 901 l 330 1198 l 661 901 l 628 857 l 330 991 l 32 857 l 0 901 z "},"":{"ha":661,"x_min":0,"x_max":661,"o":"m 0 1126 l 32 1171 l 330 1036 l 628 1171 l 661 1126 l 330 829 l 0 1126 z "},"":{"ha":638,"x_min":155,"x_max":484,"o":"m 319 850 q 255 863 286 850 q 203 898 225 876 q 168 950 180 920 q 155 1015 155 981 q 168 1078 155 1048 q 203 1131 180 1108 q 255 1166 225 1153 q 319 1179 286 1179 q 383 1166 353 1179 q 435 1131 413 1153 q 471 1078 458 1108 q 484 1015 484 1048 q 471 950 484 981 q 435 898 458 920 q 383 863 413 876 q 319 850 353 850 m 319 924 q 354 931 338 924 q 383 951 371 939 q 402 980 395 963 q 410 1015 410 996 q 402 1049 410 1033 q 383 1078 395 1066 q 354 1098 371 1090 q 319 1105 338 1105 q 284 1098 301 1105 q 256 1078 268 1090 q 236 1049 243 1066 q 229 1015 229 1033 q 236 980 229 996 q 256 951 243 963 q 284 931 268 939 q 319 924 301 924 z "},"":{"ha":713,"x_min":0,"x_max":713,"o":"m 0 928 q 19 1009 4 972 q 59 1072 35 1046 q 119 1113 84 1099 q 196 1128 153 1128 q 278 1115 235 1128 q 364 1085 320 1101 q 451 1056 408 1069 q 535 1043 494 1043 q 608 1058 573 1043 q 676 1112 644 1073 l 713 1088 q 694 1007 709 1044 q 654 944 679 970 q 595 903 629 918 q 517 888 560 888 q 441 900 481 888 q 360 927 401 911 q 268 959 314 945 q 178 973 222 973 q 104 958 140 973 q 37 905 69 943 l 0 928 z "},"":{"ha":886,"x_min":96,"x_max":790,"o":"m 96 505 l 790 505 l 790 428 l 96 428 l 96 505 z "},"":{"ha":1580,"x_min":96,"x_max":1485,"o":"m 96 505 l 1485 505 l 1485 428 l 96 428 l 96 505 z "},"":{"ha":464,"x_min":75,"x_max":389,"o":"m 241 633 q 167 648 199 633 q 115 687 136 663 q 85 744 95 711 q 75 813 75 777 q 97 946 75 886 q 154 1051 119 1005 q 232 1129 189 1097 q 317 1182 275 1162 l 337 1156 q 242 1056 277 1099 q 207 983 207 1012 q 222 954 207 965 q 258 935 237 943 q 302 916 279 926 q 345 889 326 906 q 377 848 364 873 q 389 784 389 823 q 380 734 389 761 q 352 686 371 708 q 306 648 334 663 q 241 633 278 633 z "},"":{"ha":464,"x_min":75,"x_max":389,"o":"m 127 660 q 222 760 186 716 q 257 833 257 804 q 242 861 257 850 q 205 881 227 872 q 161 899 184 889 q 119 926 138 909 q 87 968 100 943 q 75 1031 75 993 q 84 1081 75 1055 q 112 1130 93 1107 q 158 1167 130 1152 q 222 1182 186 1182 q 297 1167 265 1182 q 349 1128 328 1153 q 379 1072 369 1104 q 389 1002 389 1039 q 367 870 389 929 q 310 765 345 810 q 232 686 275 719 q 146 633 189 653 l 127 660 z "},"":{"ha":464,"x_min":75,"x_max":389,"o":"m 186 -98 q 257 19 257 -10 q 242 47 257 37 q 205 67 227 58 q 161 85 184 75 q 119 112 138 96 q 87 154 100 129 q 75 218 75 179 q 84 267 75 241 q 112 316 93 294 q 158 353 130 338 q 222 368 186 368 q 297 354 265 368 q 349 315 328 339 q 379 258 369 290 q 389 189 389 225 q 367 56 389 115 q 310 -49 345 -3 q 232 -128 275 -95 q 146 -180 189 -161 l 127 -154 l 186 -98 z "},"":{"ha":837,"x_min":75,"x_max":762,"o":"m 614 633 q 540 648 572 633 q 488 687 509 663 q 458 744 468 711 q 448 813 448 777 q 470 946 448 886 q 527 1051 492 1005 q 605 1129 562 1097 q 690 1182 648 1162 l 710 1156 q 615 1056 650 1099 q 580 983 580 1012 q 595 954 580 965 q 631 935 610 943 q 675 916 652 926 q 718 889 699 906 q 750 848 737 873 q 762 784 762 823 q 753 734 762 761 q 725 686 744 708 q 679 648 707 663 q 614 633 651 633 m 241 633 q 167 648 199 633 q 115 687 136 663 q 85 744 95 711 q 75 813 75 777 q 97 946 75 886 q 154 1051 119 1005 q 232 1129 189 1097 q 317 1182 275 1162 l 337 1156 q 242 1056 277 1099 q 207 983 207 1012 q 222 954 207 965 q 258 935 237 943 q 302 916 279 926 q 345 889 326 906 q 377 848 364 873 q 389 784 389 823 q 380 734 389 761 q 352 686 371 708 q 306 648 334 663 q 241 633 278 633 z "},"":{"ha":837,"x_min":75,"x_max":762,"o":"m 500 660 q 595 760 559 716 q 630 833 630 804 q 615 861 630 850 q 578 881 600 872 q 534 899 557 889 q 492 926 511 909 q 460 968 473 943 q 448 1031 448 993 q 457 1081 448 1055 q 485 1130 466 1107 q 531 1167 503 1152 q 595 1182 559 1182 q 670 1167 638 1182 q 722 1128 701 1153 q 752 1072 742 1104 q 762 1002 762 1039 q 740 870 762 929 q 683 765 718 810 q 605 686 648 719 q 519 633 562 653 l 500 660 m 127 660 q 222 760 186 716 q 257 833 257 804 q 242 861 257 850 q 205 881 227 872 q 161 899 184 889 q 119 926 138 909 q 87 968 100 943 q 75 1031 75 993 q 84 1081 75 1055 q 112 1130 93 1107 q 158 1167 130 1152 q 222 1182 186 1182 q 297 1167 265 1182 q 349 1128 328 1153 q 379 1072 369 1104 q 389 1002 389 1039 q 367 870 389 929 q 310 765 345 810 q 232 686 275 719 q 146 633 189 653 l 127 660 z "},"":{"ha":844,"x_min":75,"x_max":769,"o":"m 454 150 q 464 199 454 173 q 491 248 473 226 q 538 286 510 271 q 602 300 566 300 q 676 286 645 300 q 728 247 708 271 q 759 190 749 222 q 769 121 769 157 q 747 -12 769 47 q 690 -117 725 -71 q 611 -196 654 -163 q 526 -248 568 -229 l 507 -222 q 602 -122 566 -165 q 637 -49 637 -78 q 622 -20 637 -31 q 585 -1 607 -9 q 541 18 564 7 q 499 44 518 28 q 467 86 479 61 q 454 150 454 111 m 75 150 q 84 199 75 173 q 112 248 93 226 q 158 286 130 271 q 222 300 186 300 q 297 286 265 300 q 349 247 328 271 q 379 190 369 222 q 389 121 389 157 q 367 -12 389 47 q 310 -117 345 -71 q 232 -196 275 -163 q 146 -248 189 -229 l 127 -222 q 222 -122 186 -165 q 257 -49 257 -78 q 242 -20 257 -31 q 205 -1 227 -9 q 161 18 184 7 q 119 44 138 28 q 87 86 100 61 q 75 150 75 111 z "},"":{"ha":660,"x_min":94,"x_max":566,"o":"m 330 130 q 238 149 281 130 q 163 200 195 168 q 112 275 131 232 q 94 366 94 317 q 112 459 94 416 q 163 534 131 502 q 238 584 195 566 q 330 603 281 603 q 422 584 379 603 q 497 534 465 566 q 548 459 529 502 q 566 366 566 416 q 548 275 566 317 q 497 200 529 232 q 422 149 465 168 q 330 130 379 130 z "},"":{"ha":659,"x_min":27,"x_max":612,"o":"m 583 739 l 612 711 l 315 377 l 612 43 l 583 15 l 27 377 l 583 739 z "},"":{"ha":659,"x_min":47,"x_max":632,"o":"m 345 377 l 47 711 l 77 739 l 632 377 l 77 15 l 47 43 l 345 377 z "},"":{"ha":1262,"x_min":-7,"x_max":1163,"o":"m -7 396 l 93 396 q 91 427 92 411 q 90 458 90 442 l 90 484 l -7 484 l -7 553 l 96 553 q 153 727 111 647 q 267 864 195 806 q 437 955 338 922 q 665 987 537 987 q 859 955 770 987 q 1025 852 949 923 l 1108 977 l 1155 977 l 1155 536 l 1102 536 q 1036 715 1078 644 q 944 829 994 787 q 841 889 895 871 q 739 906 787 906 q 694 902 716 906 q 651 887 672 899 q 613 851 631 875 q 581 789 595 828 q 559 692 568 750 q 549 553 551 634 l 795 553 l 795 484 l 549 484 q 551 438 550 460 q 553 396 551 416 l 795 396 l 795 327 l 558 327 q 583 196 566 248 q 625 113 600 144 q 684 71 650 83 q 759 58 717 58 q 886 79 827 58 q 990 144 945 100 q 1065 260 1036 189 q 1103 429 1095 330 l 1163 429 q 1129 251 1158 334 q 1041 106 1100 168 q 889 9 982 45 q 663 -26 796 -26 q 461 -1 553 -26 q 297 71 369 24 q 177 182 226 117 q 106 327 129 247 l -7 327 l -7 396 z "}}}
